<?xml version="1.0" encoding="utf-8"?>
<!-- Generator: Adobe Illustrator 17.0.0, SVG Export Plug-In . SVG Version: 6.00 Build 0)  -->
<!DOCTYPE svg PUBLIC "-//W3C//DTD SVG 1.1//EN" "http://www.w3.org/Graphics/SVG/1.1/DTD/svg11.dtd">
<svg version="1.1" id="Capa_1" xmlns="http://www.w3.org/2000/svg" xmlns:xlink="http://www.w3.org/1999/xlink" x="0px" y="0px"
	 width="560px" height="560px" viewBox="0 0 560 560" style="enable-background:new 0 0 560 560;" xml:space="preserve">
<style type="text/css">
	.st0{fill:#64A253;}
	.st1{fill:#FFFFFF;}
</style>
<g>
	<circle class="st0" cx="280.3" cy="280" r="280"/>
	<g>
		<polygon class="st1" points="26.8,369.9 41.7,362.9 65.5,352.7 88,343.8 109.4,331.1 139.3,314.7 174.9,296.3 223.1,267.3 
			251.9,246 255.8,246 260.6,246 263.5,246 309.7,274 378,314.5 430.3,347.8 485.4,382.9 485.4,388.7 512.1,355 423.9,307 
			423.2,258 382.8,258 381.9,278.1 312.6,245.2 270.7,221 263.5,221 259.7,221 251.9,221 193.3,257.7 127.8,303.5 77.8,331.6 
			38.3,358.2 		"/>
		<polygon class="st1" points="398.4,246 398.4,230.9 398.4,223.2 402.2,215.5 405,210.3 409.6,203 413.1,196.6 417.3,190.1 
			420.9,184.7 427.1,177.3 431.6,171.2 434.4,165.1 435.3,161.9 436.4,154.2 436.4,150 436.4,146.2 435.3,141.7 431.5,137.9 
			427,132.4 421.6,127.6 415.2,123.7 409.4,118.9 402.1,115.1 395.6,111.9 387.9,109 380.4,109 380.4,111.6 401.8,130.8 
			406.6,138.2 407.5,144.9 405.1,152.6 401.7,161.9 399.5,163.8 397.9,167.7 395,173.1 392.1,177.6 389.2,184.4 387.3,192.7 
			387.6,201 388.6,212 391.5,219.7 394.7,228.3 396.9,236.5 400.1,246 		"/>
	</g>
</g>
</svg>
