<?xml version="1.0" encoding="utf-8"?>
<!-- Generator: Adobe Illustrator 17.0.0, SVG Export Plug-In . SVG Version: 6.00 Build 0)  -->
<!DOCTYPE svg PUBLIC "-//W3C//DTD SVG 1.1//EN" "http://www.w3.org/Graphics/SVG/1.1/DTD/svg11.dtd">
<svg version="1.1" id="Capa_1" xmlns="http://www.w3.org/2000/svg" xmlns:xlink="http://www.w3.org/1999/xlink" x="0px" y="0px"
	 width="560px" height="560px" viewBox="0 0 560 560" style="enable-background:new 0 0 560 560;" xml:space="preserve">
<style type="text/css">
	.st0{fill:#64A253;}
	.st1{fill:#FCFCFC;}
</style>
<circle class="st0" cx="280.1" cy="280" r="280"/>
<g>
	<path class="st1" d="M430.5,416.9c-52.8,0-95.8-43-95.8-95.8c0-28.2,12.4-53.7,31.9-71.2l-13.9-21l-75.5,100.3
		c-2.6,3.6-6.6,5.6-10.9,5.6h-42.1c-6.6,46.4-46.4,82.1-94.7,82.1c-52.8,0-95.8-43-95.8-95.8s43-95.8,95.8-95.8
		c16.7,0,32.3,4.3,46,11.8l29.3-39.1h-47.9c-7.5,0-13.7-6.2-13.7-13.7c0-7.5,6.2-13.7,13.7-13.7h82.1v27.4h93l-18.2-27.4h-47.5
		c-7.5,0-13.7-6.2-13.7-13.7c0-7.5,6.2-13.7,13.7-13.7H321c4.5,0,8.8,2.4,11.3,6l57.1,85.5c12.4-6,26.3-9.4,41.1-9.4
		c52.8,0,95.8,43,95.8,95.8S483.4,416.9,430.5,416.9z M129.4,334.7c-11.3,0-17.7-12.8-10.9-21.8l40.2-53.7c-9-4.3-18.8-6.6-29.3-6.6
		c-37.6,0-68.4,30.8-68.4,68.4c0,37.6,30.8,68.4,68.4,68.4c33.1,0,60.7-23.5,67.1-54.7H129.4z M196.6,307.4
		c-2.6-12-8.1-22.9-16-31.6l-23.7,31.6H196.6z M321,225.3H218.4l-21.2,28.2c14.3,14.1,24,32.9,26.9,53.9h35.3L321,225.3z
		 M430.5,252.6c-9.2,0-17.7,1.9-25.9,5.1l37.2,55.6c4.3,6.4,2.6,15-3.6,19c-2.4,1.7-5.1,2.4-7.7,2.4c-4.5,0-8.8-2.1-11.3-6.2
		L382,272.9c-12.2,12.4-19.9,29.3-19.9,48.1c0,37.6,30.8,68.4,68.4,68.4c37.6,0,68.4-30.8,68.4-68.4
		C499,283.4,468.2,252.6,430.5,252.6z"/>
</g>
</svg>
