<?xml version="1.0" encoding="utf-8"?>
<!-- Generator: Adobe Illustrator 17.0.0, SVG Export Plug-In . SVG Version: 6.00 Build 0)  -->
<!DOCTYPE svg PUBLIC "-//W3C//DTD SVG 1.1//EN" "http://www.w3.org/Graphics/SVG/1.1/DTD/svg11.dtd">
<svg version="1.1" id="Capa_1" xmlns="http://www.w3.org/2000/svg" xmlns:xlink="http://www.w3.org/1999/xlink" x="0px" y="0px"
	 width="560px" height="560px" viewBox="0 0 560 560" style="enable-background:new 0 0 560 560;" xml:space="preserve">
<style type="text/css">
	.st0{fill:#64A253;}
	.st1{fill:#FFFFFF;}
	.st2{fill:#C1272D;}
</style>
<g>
	<circle class="st0" cx="279.9" cy="280" r="280"/>
	<path class="st1" d="M92.2,268.4c3,1.6,4.6,4.6,7,7.1c-1.5,2.2-3.3,3.7-6,5.1c0.1-2.7,2.6-3.1,3.2-4.8
		C96,272.8,91.9,271.8,92.2,268.4C92.3,268.3,92.2,268.4,92.2,268.4z"/>
	<path class="st1" d="M138,430.7c-0.3,0-0.7,0.2-0.8,0.1c-4-3.3-8.9-5-13-8c-2.3-1.7-4.3-4.7-4-8.4c0.1-1.3-0.3-2.6,0.9-3.4
		c1.2-0.8,2.6-0.6,3.6,0.3c5.4,5.3,11,10.4,16,16.1C143.1,430,140.6,430.8,138,430.7z"/>
	<path class="st1" d="M452.7,403c-2-0.3-2.9-2.1-1.8-4.2c2.1-4.4,4.4-8.6,6.8-12.9c0.6-1.2,1.9-1.9,3.3-1.5c1.4,0.3,2.1,1.5,2.1,2.9
		c0.1,2.6,3.4,5,0.6,7.8C460.6,398.2,458.4,402.4,452.7,403z"/>
	<path class="st1" d="M102,355.7c2.4,4,5.9,5.4,10.1,6.1c-1.6,2.2-3.6,1-4.7,2.2c-0.4,1.9,1.4,2.2,2.6,3.4c-1.8,0.8-3.5,1.6-5.3,2.4
		c-0.6-1.6,1.5-3.3-0.9-4.5c-1.5-0.2-2,2.1-4.4,1.9C101,363.6,103.9,360.3,102,355.7z"/>
	<path class="st1" d="M181.2,442.1c3.2,1.6,6.4,3.4,9.2,5.9c0.8,0.7,0.9,2.2-0.1,2.6c-1.8,0.9-4,2.5-5.9,1.2c-2.5-1.7-5.1-3.6-5.7-7
		C178.4,442.9,179.2,442.2,181.2,442.1z"/>
	<path class="st1" d="M458,176.5c1-2.9-2.6-2.6-3.2-4.8c2.6-0.7,5.4-0.9,8.1-2.6c-0.2,2.5-2.5,4.4-0.4,6.5c2.1,0.1,3.2-2.5,5.4-2.4
		c0.9,1.7-0.4,2.6-1.1,3.5c-2,2.6-3.8,5-2.3,8.5c0.4,0.8,0,1.8-1,2.1c-0.7,0.2-1.7-0.1-1.7-0.8c-0.5-5.4-5.4-5.7-8.8-7.6
		c-0.3-0.2-0.6-0.6-0.9-0.9C453.7,175.9,456.4,178.1,458,176.5z"/>
	<path class="st1" d="M406.1,478.8c0.7,5,1.4,9.5,2,14c7.6,0.4,8.4-5.9,11.1-10.9c1.2,6.4,3.4,11.9,8.2,16.5
		c-5.4-0.4-10.9-4.1-15.6,1.9c3,3.3,6.2,6.8,9.5,10.4c-1.6,2-3.2,1.8-5,0.9c-2.9-1.5-6.1-2.6-8.8-4.5c-4.1-2.8-7.9-2.7-11.9,0
		c-0.9,0.6-2.1,1-3.1,1.4c-1.8,0.8-3.4,0.6-4.4-1.3c-1-1.9,0-3.3,1.5-4.4c0.2-0.2,0.5-0.3,0.8-0.4c8.4-1.7,9.7-8.3,11.1-15.3
		C401.9,484.3,401,480,406.1,478.8z"/>
	<path d="M528.7,357.5c0.2,2.4,0.1,4.7-1.6,7.5C526.3,361.7,527.1,359.5,528.7,357.5z"/>
	<path d="M458.4,467.9c-1.6,3.4-3.9,4.3-6.7,6.3C453,470.6,455.3,469.7,458.4,467.9z"/>
	<path d="M511,406c-0.2-2.8,1.2-4.7,3.3-6.2C513.9,402.2,512.9,404.3,511,406z"/>
	<path d="M524.7,371.8c1,2.9-0.7,5.1-1.6,8.3C521.6,376.4,524,374.3,524.7,371.8z"/>
	<path d="M502.8,419.8c0.7-3.5,2.2-5.3,4.5-7.9C506.9,415.6,505.4,417.4,502.8,419.8z"/>
	<path d="M426.7,488.8c2-1.2,4-2.4,6-3.6c-0.9,3.1-3.3,3.6-5.4,4.6C427.1,489.5,426.9,489.1,426.7,488.8z"/>
	<path d="M485.2,442.7c0.8-2.4,2.4-4.2,4.9-6.4C489.5,440,487.3,441.3,485.2,442.7z"/>
	<path d="M517.6,392.5c-0.1-2.5,0.6-4.8,2.9-7.4C520.6,388.6,519,390.5,517.6,392.5z"/>
	<path d="M494.3,431.9c0.5-3.4,2.6-4.8,4.5-6.4C498.1,427.9,497,429.9,494.3,431.9z"/>
	<path d="M445.7,477.6c-1,2.6-3.3,3.4-5.5,4.3C441,479.1,443.5,478.6,445.7,477.6z"/>
	<path d="M469,458.9c-0.9,2.4-3,3.7-4.9,5.1C464.5,461.1,466.8,460.1,469,458.9z"/>
	<path d="M480.3,449c-1.9,1.6-3.8,3.2-5.8,4.8c0.5-2.8,3-4,4.9-5.6C479.8,448.5,480.1,448.8,480.3,449z"/>
	<path d="M157.9,448.8c-0.2,0.1-0.5,0.4-0.7,0.4c-5.1-0.7-5.1-0.7-4,4.2c-0.9,0.9-1.8,0.5-2.8,0.2c-0.7-0.3-1.4-1.2-2.3-0.4
		c-1.6,1.3,1.2,2.6-0.2,4.1c-2.1-0.7-4.4-2.1-6.8,0.3c0.4-2.3,1.8-4.5-0.7-6c1-1.8,3-0.5,4.1-2.1c0.6-1.5-2.3-2.8-1-4.7
		c5.6,0.3,5.6,0.3,4-4.1c4.6-0.2,4.6-0.2,3.5-6.7c1-1,1.9-0.1,2.7,0.3c0.9,0.5,1.7,1,2.6,0c0.9-1,0.5-1.8-0.2-2.6
		c-0.9-1-1.6-2.2-0.6-3.5c1.2-1.6,2.1-0.1,3.2,0.4c1.6,0.7,2.2-0.7,2.9-1.7c-1.8-3.5-1.8-3.5-1.8-6.4c0.2-0.1,0.5-0.4,0.7-0.4
		c3.2,0.7,7.2,2.2,3.5-3.7c-0.5-0.8,0.1-2.2,0.2-3.4c2.5-0.6,4.1,1.1,6.3,2.2c0.8-0.9,1.6-1.9,2.6-3.1c-1.6-2.8-4.1-5.5-3-9.5
		c2.7-0.1,4.8,1.3,6.7,2.8c1.7-0.1,2.1-1.5,3-2.3c-4.4-6.1-8.1-15.6-7.9-21c3.7,0.8,7.6,0.8,10.5,3.8c1.9-0.5,2.7-1.9,3.8-3.5
		c-3.2-4.4-6.4-8.8-9.5-13.2c-1.3-1.8-2.7-1.3-4.1-0.5c-3.4,1.9-8.4,1-10.3,4.9c-0.7,1.5,1.3,4.2,2,6.4c1.1,3.3,2.8,6.4,3.4,10.1
		c-4.4,0.1-1.6-8.7-7.9-5.7c0.7,2.7,3.5,4.4,3.1,7.3c-1.8,0.5-2-0.8-2.4-1.6c-2.5-5-6.8-8.1-11.8-10c-4.9-1.8-9.8-2.3-15,0.4
		c-2.2,1.1-5.9,3.4-8.7-0.5c-0.5-0.7-2.7-0.1-4.2-0.1c3.3-3.2,3.4-9.1,9.8-9.1c-4.8-12.7-9.4-24.7-13.8-36.4c-2-0.5-3.1,0.9-4.2,0.7
		c-1.5-0.3-4.2,2.9-4.7-1.3c0-0.3-2.9-0.3-4.6-0.4c0.4-1.9,4.5-2,2.6-5.3c-0.2-0.4,3.7-2.5,6.1-3.4c10.3-3.7,15.9-13.7,14-24.4
		c-0.2-1.1-0.9-2.2,0-3.6c2.7,1.8,1.5,5,2.8,7.4c2-0.4,4-0.5,2.9-3.6c-0.6-1.7-2-3.2-0.7-6.7c2.7,6.5,4.9,12,7.3,17.9
		c5.4-2.1,10.4-4,15.5-6c1.3-0.5,1.4-1.6,1.3-2.9c-0.2-3.1-0.3-6.3-0.5-9.8c-6.3-0.8-12.6-0.5-18.8-1.3c-7.3-0.9-14.7-0.4-22-1.3
		c-7.1-0.9-14.5-0.8-21.8-0.7c-4.3,0-7.5-2.1-10.5-4c-3.9-2.5-7.8-4.1-12.4-5.1c-6.6-1.5-12.8-4.8-19.2-7.8
		c7.8-1.6,14.9-5.6,23.1-5.1c5.3,0.3,9.3-3.1,13.8-5c1.5-0.6,2.7-1,4.2-0.9c20.8,1.9,41.6,4.4,62.5,5.4c0.9,0,1.7,0.1,2.6,0.1
		c0.9,0,1.8,0,2-1.2c0.1-1-0.5-1.5-1.4-1.8c-3.2-1.2-6.2-2.8-9.3-4.2c-4.3-1.9-3.4-4.5-2.6-7.5c0.3-1.1,0.4-2.3,1.3-3.1
		c4.7-0.5,8.3,3.6,13.1,2.6c-3.5-1.2-5.7-4.6-9.8-5c-2.8-0.3-4.6-2-3.4-5.3c0.7-1.9,1.4-3.7,1.9-5.6c1-3.8,3-3.4,5.7-1.6
		c3.6,2.4,8,2.9,12.1,4.2c1,0.3,1.6-0.3,1.8-1.9c-3.5-1.8-7.5-2.6-11.2-4.4c-1.9-0.9-3-1.6-2.3-3.6c0.7-2,2.3-2.2,4.2-1.4
		c2.9,1.2,5.8,2.4,8.8,3.3c1.3,0.4,2.8,0.7,4.5-0.5c-3.7-5.9-9.1-10.6-13.2-16.5c4.6-4,9.2-7.9,13.9-12c-0.7-1.2-1.2-2.3-1.8-3.2
		c1.4-2.8,4.7-3.3,5.7-6.4c1.3-4.4-1.6-6.6-3.8-9.2c-1.2-1.4-3.7-2.2-1.7-4.7c0.2-0.2-0.1-1-0.3-1.1c-4.6-2.3-2.7-7.5-4.9-10.9
		c-1.5-2.4-1.2-5.3-0.4-8c0.8-2.8,0.2-5.3-1.6-7.2c-1.7-1.8-2.2-3.6-2-5.8l-0.1,0.1c1.4,0.2,3.1-0.4,4,0.9c2.6,4,6.2,5.1,10.8,4.5
		c1.2-0.2,2.8,0.1,3.7,0.8c3.6,2.9,9,2.6,11.7,7.4c1,1.8,4.6,1.4,6,3.9c0.5,0.9,1.4,1.4,0.8,2.7c-1.8,0-2.2-2.5-4.4-2.5
		c1,3.1,3.2,4.7,4.9,6.6c2-0.7-0.2-1.9,1.1-2.7c5,1.5,9.2-0.1,12.1-4.3c1.8-0.2,2,1.6,3.4,1.7c0.2-0.1,0.7-0.1,1-0.4
		c3.2-2.7,6.6-5.2,9.5-8.1c2.8-2.8,5.2-2,7,0.6c2.2,3.4,5.1,6.1,7.8,9c4,4.4,9.3,4.1,12.3-1.1c3.5-5.9,6.8-12,10.1-18.1
		c0.5-0.9,0.9-1.9,1-2.8c0.2-2.9,0-5.2,3.3-7.3c2.4-1.5,3.2-5.9,4.1-9.2c0.8-2.8,1.3-5.7,2.7-8.4c1.1-2.1,1.2-4.4-0.9-6.7
		c2.7-1.2,3-3.6,3.3-5.9c1.5-13,3.8-25.8,4.1-39c0.2-6.4,1.5-12.8,1.5-19.2c0-3,0.3-6-0.9-8.9c-0.2-0.4-0.2-0.8-0.3-1.3
		c-0.3-3.1,2-6.6,4.2-6.5c2.1,0.1,4.7,3.8,4.2,6.6c-2.9,13.7,0.1,27.2,1.1,40.7c0.6,8,1.9,16,2.9,24c0.4,2.9,0.2,6.1,2.8,8.3
		c0.4,0.4,0.7,1.4,0.5,2c-2.3,8.9,3.5,15.8,5.9,23.5c6.1,2.5,2.9,9.4,6.3,13.5c3.4,4.1,5.3,9.4,8.2,14c1.7,2.6,3.9,3.1,6.2,0
		c3.3-4.5,6.8-8.9,10.3-13.5c1.4,0.7,2.6,1.3,4.1,2.1c4.1-6.4,10.1-11.3,11.6-19.4c0.9-5.1,5.1-7.7,10.3-8.5
		c4.3-0.7,8.6-0.1,12.8-0.1c2.8-5.7,9.7-7.1,12.3-12.8c2.4,0.5,3.8,1.7,2.3,3.5c-1.5,1.8-1.4,4.7-3.8,5.8c-0.6,0.3-0.9,0.6-0.6,1.3
		c1.2,3.3-0.4,5.4-3.4,6.9c1.7,5.6,4.3,10.8,3.6,16.8c-0.7,6.4-5.9,8.9-11.1,11.7c2.9,1.9,4.8,0.1,7-0.3c0.1,0.1,0.2,0.2,0.3,0.4
		c-0.3,2.4-0.3,4.7,1.4,7.5c6.7-10.7,16.1-19,21.1-30.5c1-2.3,2.9-3.5,5.1-3.2c4.6,0.6,7.6-1.9,10.5-4.9c0.2-0.2,0.7-0.2,1.2-0.3
		c0.6,1.4-0.4,2.3-0.8,3.2c-1.2,2.9-2.3,5.5-0.8,8.8c1,2.1,0.9,4.9-1.3,6.3c-5.1,3.3-8,8.6-11.4,13.3c-3.6,4.9-8.5,8.9-10.6,14.9
		c-0.2,0.2-0.5,0.4-0.4,0.5c0.3,0.4,0.6,0.3,0.9-0.1c3.1,1.6,4.7-1.5,7.6-3.1c-1.2,3.4-2.8,6.2,0.3,9.1c1.1-3.3,1.1-6.7,3.5-9.3
		c4.8-5.3,10.9-5.1,17.1-5c2.6,0.1,4.1-0.1,6.3-2.6c3-3.5,7.2-6.1,10.6-9.5c0.5-0.5,1.4-0.3,2,0.2c0.8,0.6,1.2,1.8,0.6,2.3
		c-2,1.7-3,4.7-3.4,6.5c-1.1,4.6-6.1,8.1-3.1,14.1c2.6,5.2,3.5,11.3-0.8,16.7c-0.5,0.6-0.8,1.4-1.6,1.8c-7.7,3.3-11.4,10.6-16,16.7
		c0.1,1.8,2.1,2.1,2.5,3.6c-3.5,6.1-8.7,11-12,17.8c4.1-0.8,6.1-4.5,9.5-6c2.1-0.9,3.8-0.3,3.4,1.1c-0.9,3.7,0,6.5,2.5,9.1
		c0.3,0.3,0.1,1.4,0.8,2.1c2.3-0.2,4.6-0.5,6-3.2c-3.1-2-0.2-7.7-5.5-8.2c0-1.9,0.7-3.2,1.9-4.3c2-1.8,3.7-2.6,4.4,1
		c1.2,5.7,3.7,10.9,4.9,16.6c0.6,3,2.2,5.8,3.3,8.7c1.9,5.1,2.3,5-3,5.7c-2.8-2.8-0.9-7.6-4.5-10c0.4-0.6,0.8-1.3,1.1-1.9
		c-0.5-1.6-1.9-0.6-2.6-1.3c-0.2-1.2,1.7-1.5,1.2-3.2c-2.6-0.9-4.7,0.5-7.2,1.7c1.1,3.6,3.8,6.5,2.9,10.4c-0.3,1.2,0.7,2.3,1.9,2.5
		c1.9,0.3,1.9,1.7,1.7,2.8c-0.2,1.3-1,2.2-2.7,2.1c-2.4-0.1-4.6,1.6-7.1,1.3c-1.4-0.2-2.3,0.9-3.2,2.3c0.5,2.1,1.7,3.1,4.1,2.9
		c7.9-0.6,15.6,1.9,23.4,2.3c4.4,0.2,11.2,9.6,10.8,14.3c-0.2,2.4,0.2,4,2,6c2.7,2.8,1.4,7.1,2.2,10.7c0.4,1.6,0,3.4,0.1,5.2
		c0.4,6.9-1,12.5-9,14.1c-2.4,0.5-4.5,4.4-6.9,0.6c-7.1,7.8-16.6,10.3-26.7,11.7c0,0.4,0.1,0.8,0.1,1.3c4.3,1.2,8.6,2.4,12.9,3.8
		c14.1,4.5,27.1,11,37.8,21.6c2.5,2.5,6.3,5.4,5,8.9c-1.4,3.6-6.2,2.9-9.7,3c-13.8,0.3-26.6-3.8-39.1-9.3c-4.8-2.1-9.4-4.8-13.9-7.5
		c-2.5,2.1-0.4,3.3,0.7,4.5c4.3,4.6,8.6,9.2,12.8,13.7c-4.3,6-4.3,6,0.3,11.6c3.7,4.5,6.2,9.3,5.6,15.3c-0.2,2.2,1.5,3.3,2.5,4.8
		c1.4,2,3.9,3.5,3.6,6.8c-6,0.3-6.8-9.3-13.6-6.9c0.7,5.4,4.8,9,7.1,13.5c2.7,5.4,4.9,10.8,4.5,16.8c-0.4,5.4,1.5,9.5,5.3,13.1
		c2.8,2.7,5.1,5.8,5.1,9.9c-4-0.5-6.9-2.8-9.4-5.7c-3.4-3.9-7.5-6.1-12.8-5.9c-9.7,0.4-17.1-4.9-24.3-10.2c-1.7-1.3-3.5-1.7-5.6-2.3
		c-2.3,6.3,6.4,8,5.8,13.7c-3.7,0.2-4.7-3.2-6.9-4.6c-1.3-0.8-2.2-2.2-4-2c-6,0.6-10.8-2.2-15.1-6c-5.3-4.7-5.4-4.6-11.6-0.6
		c-4-4.2-8-8.6-12.1-13c-3.5,3.6-3.4,6.6-1.9,10.4c2.7,6.8,5.9,13.3,8.6,20.1c1.4,3.4,4,2,5.8,1.5c2.9-0.9,5-1.7,7.8,0.7
		c1.8,1.6,4.5-1.4,7-0.1c-0.4,1.6-1.6,2.4-3.1,2.5c-5.2,0.3-9.4,3.3-13.8,5.5c-2.4,1.2-3.9,2.6-2.9,5.7c0.3,1,0.7,2.7-0.8,3.4
		c-1.7,0.7-2.1-0.9-2.8-1.9c-1.4-1.9-3.1-2.8-5.8-2.4c-4.5,0.7-9,1.2-12.9,3.8c-0.7,0.5-1.5,0.9-2.7,0c2.8-1.6,1.3-5.4,3.7-7
		c2.4-1.6,5.3-2.2,7.6-4.5c-1.9-6-5.8-11.4-7.2-17.7c-0.3-1.4-1-2.7-1.2-4.1c-0.9-5.5-6.1-6.3-9.6-8.6c-1.9-1.2-4.3,1.2-4.7,3.7
		c-0.6,3.7-2.5,6.4-5.3,8.5c-1.6,1.2-1.5,2.6-1.4,4.2c0.1,8.3,0.2,16.7,0.4,25c0.1,3.1,0.2,6,2.9,8.3c1.3,1.2,1.8,3.3,0.7,4.8
		c-2.7,3.3-2,7-2,10.6c-0.1,7,0,14,0,19.3c-1.8-6.9-1.5-15.9-3.4-24.5c-0.1-0.6,0.1-1.4-0.2-1.7c-5.2-4-2.3-8.5-0.7-12.8
		c0.4-1.1,0.2-2,0.1-2.9c-1-8.4-1.9-16.8-2.9-25.3c-0.3-2.3-1-4-3.2-5.2c-1.4-0.7-2.5-1.9-3.5-3.1c-4-5-3.9-5.1-10.6-4.4
		c-3.6,20.5-3.1,41.8-10.9,61.8c-2-2.7-4.5-3.1-7-3.1c-4.2-0.1-5.3-2.7-5.2-6.2c0.1-2.6,0.5-5.1,0.7-7.7c0.6-5.9,0.4-6.2-5.4-6.3
		c-1.6,0-3.1,0-4.9,0c-0.4,3.7-0.7,7.5-1.1,11.3c-0.7,6-2,7.1-7.9,6.3c-2.1-0.3-4.3-0.8-5.4,2.4c-1.9-4.5-3.2-8.2-2.7-12.5
		c1-8,2.5-16.1,1.9-24c-0.7-10,1.9-19.6,1.6-29.8c-2.2,0-4.1-1.3-6.5-2.5c-7,12.7-16.6,23.7-21.8,36.9c-3.4,8.5-9.5,15.7-11.4,24.9
		c-0.3,1.5-2.4,5.5-6.4,3.8c1.7-6.5,8.2-10.7,8-18.3c-1.8,1-3.1-1.5-5.1-0.4c-1-1.9-2.9-3.6-1.3-6.2c3.1-4.9,3.9-9.4,2.7-15.1
		c2.9-2,2.9-2,4.2-5.7c-3-0.3-4.2,4.5-7.7,2.4c2.1-3.3,5.8-4.4,9.1-5.8c1.2-0.5,2.2-1,3-2.1c4.3-6.6,7.8-13.6,12.8-19.8
		c0.2-0.3,0.2-0.8,0.4-1.4c-3.8-2.5-7.7-4.9-11.6-7.4c-1.7,0.5-2.4,1.9-3.5,3.3c2.5,3.4,1.4,8.1,4.1,11.8
		c-6.9-0.1-12.9-2.3-18.6-5.2c-1.9-1-3.4-1.6-4.5,1.2c1.6,2,3.2,4.2,3.1,7.1c-2.4,1.2-4.7,0.5-6.5-0.8c-2.4-1.6-3.9-1.3-5.3,1.5
		c0.6,1.7,2.5,3.2,2.1,5.6c-1.8,1-3.5,0.3-5.2-0.4c-1-0.4-1.9-1.5-3-0.1c-0.9,1.1,0.1,1.8,0.5,2.7c0.4,0.9,0.6,1.9,1,2.8
		c-1.6,1.4-3.1,0.6-4.5,0.1c-1-0.4-2-1.4-3.1-0.2c-1.1,1.3,0.3,2,0.6,3c0.3,0.9,1.1,1.7,0.5,2.9c-1.3,0.7-2.5,0-3.7-0.3
		c-1.1-0.3-2-1.9-3.4-0.4c-1.3,1.5,0.4,2.3,0.6,3.4c0.1,0.5,0.3,1.1,0.5,1.9c-1.9,1.3-9.1-4.5-5.8,3.9L157.9,448.8z M368.7,163.5
		c-1.3-0.4-1.7,0.4-2.1,1.4c-0.4,0.2-0.8,0.4-1.1,0.6c-0.6,1.1-1.2,2.1-1.8,3.2c1.1-0.9,2.6-1.6,1.7-3.3c0.7,0.4,1.1,0.2,1.1-0.6
		c1.2,0.2,1.4-1,2-1.4c0.1-0.4,0.2-0.7,0.2-1.1c-0.1,0-0.2,0.1-0.4,0.1C368.5,162.7,368.6,163.1,368.7,163.5z M378,167.7
		c-4.3,1.5-5.2,5.8-7.9,8.6c0.3,0.2,0.6,0.5,0.8,0.7c2.4-3.1,4.7-6.3,7.1-9.4c0-0.1,0-0.1,0-0.2C378.1,167.5,378.1,167.6,378,167.7z
		 M399.5,182.4c-5.3,1.2-5.9,6.3-8.8,9.6c0.4,0.3,0.7,0.6,1.1,0.9C394.4,189.3,397,185.8,399.5,182.4l0-0.3L399.5,182.4z
		 M440.8,359.1c6.3,3.6,6.3,3.6,10,2c-4.7-6.1-5.2-6.3-10.6-4.2c0,0.8,1.3,1.3,0.7,2.3c-2.9-2.5-6.1-3.5-9.9-1.6c3,3,5.7,4.1,11,4.6
		C441.6,361,441.2,360,440.8,359.1z M428.8,338.4c-3.2-0.4-5.9-4-9.7-1.1c1.7,1.3,3.3,2.7,5,4c0.3,0.3,0.6,0.6,1,0.8
		c1.8,1.2,3.6,0.7,5.3,0.1c1.2-0.4-0.2-1.4,0-2.2c2.8,0.2,5.3,3.6,8.5,0.8c-2.2-2.7-5.3-3.4-8.3-4.4
		C428.9,336,428.1,336.6,428.8,338.4z M440.1,347.9c-1.4,1.3-1.9-0.2-2.6-0.8c-1.2-1.2-2.6-1.9-4.2-1.2c-2.9,1.3-6,1.3-9,1.3
		c-0.9,0-2-0.1-2.6,1.4c2.4,1.8,3.6,5.6,7.5,5.4c4-0.2,8-1,11.9-1.5c0.3,0,0.6-0.5,0.7-0.6c0.1-1.8-3.1-1.9-1.8-4.1
		c5.3,4.8,5.3,4.8,9.5,2.8c-3.4-4.9-5.4-6.1-8.7-5.5C438.3,345.4,439.1,346.6,440.1,347.9z M92.3,268.3c-4.5,3.6-5.2,9.2-1.8,13.6
		c3.5,4.4,9.9,5,14.2,1.4c4.1-3.5,4.6-9.8,1.1-13.9C102.2,265.1,96.7,264.7,92.3,268.3L92.3,268.3z M139.5,324.6
		c-6.8,1.4-12.7,3.8-18.4,7.6c4.7,12.1,9.3,24,14,36.1c6.7-1.4,12.4-4.2,18.6-6.5C148.8,349.1,144.2,337,139.5,324.6z M167.6,353
		c-4.8-10.3-8-21-10.6-32.2c-2.3,0.9-4.1,1.8-6,2.3c-3.3,0.8-4,2.6-3.6,5.9c0.9,7.7,2.3,15,7.5,21.4c4.8,6,4.4,6.3,11.4,3.5
		C166.6,353.7,166.8,353.5,167.6,353z M303.5,162.5c-3-7.7-10.9-12.5-19-12.2c-8.3,0.3-15.6,5.5-17.9,13.1
		C278.9,161.5,291.1,161.3,303.5,162.5z M277.7,137.2c5.2,0,9.8,0,14.7,0c-1-4.7-2-9-2.8-13.3c-0.6-3-2.8-2.3-4.7-2.3
		c-1.8,0-3.8-0.5-4.3,2.2C279.9,128.2,278.8,132.5,277.7,137.2z M387,412.1c1.1,1.7,2,1.2,2.8,1.1c4-0.7,7.9-2.4,11.2,2
		c1.2,1.6,4.2,0.5,5.5-0.7c1.4-1.3,2.6-4.3,0.9-5.8c-3.9-3.3-2.4-6.9-1.6-10.6c0.2-1,0.7-2-0.4-2.9c-0.4,4.5-4.5,9.1,0.6,13.6
		c1.4,1.2,1,3.5-0.3,4.7c-1.4,1.2-3.7,1.6-5.1-0.1C396.3,408.4,391.9,412.5,387,412.1z M263.6,454.9c3.2-0.3,5.2-2.2,5.1-5.3
		c-0.1-3.1-2.2-5-5.4-4.9c-3.1,0.1-4.8,2.1-4.8,5C258.4,452.8,260.4,454.6,263.6,454.9z M448.7,355.8c1.3,2.3,2.8,4.6,4.9,5.4
		c2.8,1,5.8-1.5,9-0.8c0.7,0.2,0.8-0.7,1-1.5c0.3-1.6,1.4-3.5-1.1-4c-2.2-0.4-5.1-1.7-6.5,2.1C454,354.3,451.6,354.4,448.7,355.8z
		 M391.6,380.1c-1.5,1.8-2.6,3-3.9,4.5c1.9,2.1,3.6,3.9,5.4,5.7c1.3,1.3,2.8,2.2,4.4,0.6c1.5-1.5,1.2-3.1-0.1-4.5
		C395.6,384.4,393.8,382.5,391.6,380.1z M393,400.6c-0.7-6.3-5.7-8.4-8.4-12.2c-1.5,0.9-2.7,1.7-3.1,3.5
		C385.1,394.4,386.8,399.5,393,400.6z M373,399.6c2.1,1.7,4.1,3.3,6,4.9c1.4,1.1,2.8,1.5,4.2,0.1c1.4-1.4,1-2.9-0.2-4.1
		c-1.8-1.8-3.3-3.9-5.6-5.1C375.9,396.1,374.7,397.1,373,399.6z M434,288.2c5-2.1-0.9-5,2.7-7.1c-2.5-0.6-4.1-0.7-6,0.1
		c0.3,3.5,0.7,7.1,1,10.7c2.2,0.4,4.2,0.8,6.1-1.6C436.6,289.6,435.6,289.1,434,288.2z M404.7,209.1c-4.2,1.5-5.9,4.7-7.5,7.7
		c-0.6,1.1,0.5,2.3,2.2,2.7C401.3,216.4,405.1,214.2,404.7,209.1z M159.2,373.6c-0.2-2.1-0.4-3.7-2.8-2.8c-4.1,1.6-8.2,3.2-13,5
		C150,379.3,154.3,374.9,159.2,373.6z M122.2,320.9c5.5-2.1,10.2-3.9,14.7-5.6c0-1.7-0.4-2.6-1.6-3.5
		C131,314.4,124.7,313.7,122.2,320.9z M152.5,239.9c-1.7,2.2-2.4,3.7,1.1,4.4c1.9,0.4,3.6,1.4,5.4,2.1c1.7,0.7,3.4,1,5.5-0.8
		C160.6,243,156.4,241.8,152.5,239.9z M135.1,309.9c-0.5-2-0.9-3.9-2.2-5.2c-5.7,0.3-5.4,4.5-6.1,8.4
		C129.9,312.4,132.4,311.4,135.1,309.9z M151.3,378.6c4.1,2,6.7,6,10.9,1.7c-0.7-1.6-1.3-3.2-2.1-5
		C157.4,376.4,154.9,377.3,151.3,378.6z M334.9,169.7c1.9,1.5,3.5,2,4.7,0c1.4-2.1,3.9-3.9,2.6-7.3
		C338.2,163.8,336.9,167,334.9,169.7z M423.6,343.3c-2.7-2.8-5.2-4.7-8.5-6c-0.5,1.9-1.9,3.3-0.1,5.2
		C417.5,345.3,420.2,343.9,423.6,343.3z M184.8,206.6c0-0.9-6-8-6.6-7.9c-1.2,0.2-2.4,1-1.4,2.4c1.7,2.3,3.6,4.5,5.6,6.5
		C183.5,208.7,184.4,207.8,184.8,206.6z M394.3,201.8c-3-0.2-4.2,1.9-5.3,3.8c-1,1.7,0.5,2.4,1.8,3.4
		C392.6,206.9,394.8,205.2,394.3,201.8z M211.5,185.3c-4-7.4-6.5-9.2-10.1-7C205.2,179.9,205.3,186,211.5,185.3z M411.7,349.1
		c3.9,2.8,7.3,5.4,12.3,4.8C421.4,348.4,417.1,348.1,411.7,349.1z M447.7,345.3c2.9,4.8,6.5,6.5,11.3,5.9
		C455.8,348.7,452.9,345.3,447.7,345.3z M373.2,191.7c3.5-2.5,1.5-4.3-0.7-5.8c-2.3-1.6-3.3,0.3-4.3,2
		C369.7,189.5,371.2,190.9,373.2,191.7z M189.1,188.8c2.1,2.3,4.1,4.4,6.2,6.6c0.7,0.7,1.3,1.6,2.5,0.7c1.1-0.9,0.6-1.7-0.1-2.5
		c-1.5-1.7-3.1-3.4-4.5-5.2C191.8,186.7,190.6,187.4,189.1,188.8z M184.7,192.3c2,2.3,4.1,4.6,6.1,7c0.7,0.8,1.4,1.5,2.5,0.7
		c1.1-0.9,0.6-1.7-0.1-2.5c-1.4-1.6-2.9-3.2-4.2-4.9C187.6,190.5,186.2,191,184.7,192.3z M204.5,189.9c1.1-0.7,2-1.2,2.4-2.5
		c-3.6-1.1-3.7-7.3-9.9-6.4C199.7,184.2,202,186.9,204.5,189.9z M187.8,205c0.6-0.9,0.9-1.3,1-1.7c0.3-1.5-4.7-8.3-6.2-8.3
		c-0.5,0-1.1,0.3-1.4,0.7c-0.5,0.6-0.3,1.3,0.2,1.9C183.5,199.9,185.4,202.1,187.8,205z M247.4,466.9c-0.4-0.1-0.8-0.1-1.3-0.2
		c-1.1,3.8-1.3,7.7-1.4,11.6c0.5,0.1,0.9,0.1,1.4,0.2C246.6,474.6,247,470.7,247.4,466.9z M250,478.6c1-3.7,1.8-7.5,1-11.3
		C249.7,471,249,474.7,250,478.6z M213.7,168.5c-1.8,0.8-2.8,1.5-1.3,3.2c1.5,1.7,3,3.4,4.5,5.2c0.7,0.8,1.4,1.6,2.5,0.7
		c1-0.9,0.5-1.7-0.2-2.5C217.5,173,215.8,170.9,213.7,168.5z M446.4,290.8c-2.3-0.8-3.8-0.9-5.9,0.2c1.4,1.6,1.3,3.8,1.7,5.7
		c1.5,0.3,2.8,0.5,4.2-0.6C445.2,294.5,444.7,292.8,446.4,290.8z M215.5,180.6c0-1.2-5.9-8-6.6-7.9c-1.1,0.1-2.2,0.8-1.4,1.9
		c1.7,2.4,3.8,4.6,5.7,6.9c0.4,0.4,1,0.6,1.5,0.1C215,181.3,215.3,180.8,215.5,180.6z M438.1,314c-2.3-1.8-4-1.6-5.8-1
		c-0.5,2.2,0.3,4.1,0.4,6.4C435.4,318.2,435.5,315.5,438.1,314z M347.1,174.9c1.3,1.2,2.3,2.4,3.8,1c1.6-1.4,2.8-3.1,1.6-5.5
		C349.7,170.9,348.5,172.7,347.1,174.9z M272.5,480.7c0.9-3.7,2-7.3,0.9-11.1C272.2,473.3,271.4,476.9,272.5,480.7z M200.2,193.4
		c4-1.5,1.8-3.2,0.6-4.5c-0.8-0.9-2.1-3.1-3.3-1.3C195.7,190.3,199.3,191.2,200.2,193.4z M276.7,481.1c1.3-3.6,2.1-7.2,1-11
		C276.9,473.8,275.8,477.3,276.7,481.1z M382.1,199.5c1.3-1.9,2.7-3.3,1.6-5.5c-2.1-0.1-3.4,1-4,2.6
		C379.1,198.1,380.6,198.7,382.1,199.5z M392.2,362.2c-2.9,2.5-4.2,4.6-4.9,7.1C389.6,367.8,391.2,365.9,392.2,362.2z M401.7,344.4
		c1.9-1.9,3.3-4.1,2.8-7.8C402.7,339.5,401.8,341.8,401.7,344.4z M382.7,185.7c0.3,0.2,0.6,0.4,0.8,0.6c2.3-3.1,4.6-6.3,6.9-9.4
		c-0.3-0.2-0.5-0.4-0.8-0.6C387.4,179.4,385.1,182.6,382.7,185.7z M174.5,344.3c0.1,2.8,1.1,5.1,3.2,6.9
		C177.6,348.4,176.7,346,174.5,344.3z M362.9,178.2c-1.9,0.4-3.7,1-3.9,3.1c-0.1,1.2,1.5,2,2.4,1.6
		C363.4,182.1,363.7,180.4,362.9,178.2z M398.7,239.7c0.4,2.4,1,4.7,3.3,7.3C401.8,243.4,400.5,241.4,398.7,239.7z M214.5,394.7
		c-1.4-2.2-3.2-4-5.9-4.6C210,392.4,211.9,393.9,214.5,394.7z M186.4,168.9c1.9,2.2,2.4,6,6.5,5.8
		C191.1,172.4,190.3,168.9,186.4,168.9z M168.1,325.3c0.4-3.7,0.2-6.3-2.1-9.3C165.6,319.6,166.1,322.1,168.1,325.3z M374.5,424.8
		c-1.5-2-2-4.7-5.4-2.4C370.6,424,371.4,425.8,374.5,424.8z M203.6,385.9c-1.4-3.6-3.1-5.1-6.1-5.6
		C199.2,382.6,200.8,384.6,203.6,385.9z M373.1,385.3c-2.3,1.2-4.6,2.3-5.8,5.6C370.2,389.2,372,387.6,373.1,385.3z M422.9,196.3
		c-0.3-0.9-0.9-2-2.3-1.7c-1.1,0.2-1.8,1-1.7,2.2c0.1,1.4,1,2.1,2.4,1.9C422.4,198.5,422.9,197.7,422.9,196.3z M373,205.1
		c1.2,2.3,2.7,4.3,5.8,5.9C377.3,207.8,375.2,206.4,373,205.1z M186.1,180.8c-1.5-2.8-2.6-6-7.5-6.8
		C181.3,177.2,182.5,180.3,186.1,180.8z M361.9,394.6c-2.1,1.1-4.5,1.7-6.3,4.7C358.7,398.1,360.5,396.6,361.9,394.6z M406.6,259.5
		c0-2.5-0.3-4.9-2.7-7.5C404.2,255.4,405.1,257.5,406.6,259.5z M250.6,450.9c1.2-2.1,2-3.7,0.2-5.9
		C249.2,447,248.8,448.6,250.6,450.9z M303.1,418.2c2.2,0.2,4.4,0.4,6.3-1C307.2,417,305,417,303.1,418.2z M387.3,221.3
		c-0.7-2.5-1.9-4.5-5.4-6.2C383.7,218.1,385.1,220,387.3,221.3z M432.1,306.2c3.6,0.2,3.6,0.2,5.3-1.6
		C433.7,302.6,433,302.8,432.1,306.2z M437.8,299.5c-2.6-0.7-4.5-1.9-6.6,1.5C433.7,301.5,435.7,302.5,437.8,299.5z M287.6,419
		c3.2,0.6,5.2,0.7,7.2-0.2C292.7,418,290.7,418.4,287.6,419z M437.8,309.6c-2.1-1.6-3.8-1.9-5.6-0.4c-0.5,0.4-0.5,1.6,0.3,1.8
		C434.2,311.6,436,311.5,437.8,309.6z M317.1,415c2.4,1,4.4,0.1,6.4-0.4c-0.1-0.4-0.2-0.7-0.3-1.1C321.1,414,319.1,414.5,317.1,415z
		 M337.2,409.4c-0.1-0.4-0.3-0.7-0.4-1.1c-2.1,0.9-4.1,1.8-6.2,2.7C333.2,411.5,335.2,410.5,337.2,409.4z M232.7,406.2
		c2.1,1.1,3.8,2.8,7.6,3C237.3,407.3,235.3,406,232.7,406.2z M391.3,227.3c0.9,2.2,1.7,4.5,4,5.7
		C394.4,230.8,393.8,228.4,391.3,227.3z M395,358.3c2.4-2.6,3.5-4.8,3.8-7.4C396.8,352.6,395.2,354.6,395,358.3z M181,356.4
		c0.3,3.9,1.5,5.5,4.5,7.1C184.4,360.8,183.3,358.6,181,356.4z M181.5,232.1c-2.6,3.1-4.3,5.2-4.4,9.1
		C179.6,238.5,181.1,236.3,181.5,232.1z M248,428.4c1.8-2,2.3-3.6,0-5.6C247,424.8,246.4,426.4,248,428.4z M343.7,405.3
		c2.6,0,4.8-0.7,6-3.3C347.7,403.1,345.7,404.2,343.7,405.3z M343.7,184.5c-2-1.6-4-3.2-6.7-2.8C338.9,183.4,341,184.8,343.7,184.5z
		 M226,188.5c2.6-0.5,4.9-1.6,7.6-4C229.7,184.7,227.6,186.1,226,188.5z M411.1,308.4c-1.5,3.4-1.7,5.9-1.1,9.4
		C411.6,314.5,411.9,312.1,411.1,308.4z M367.1,201c0.3-0.3,0.5-0.7,0.8-1c-1.7-1.6-3.4-3.4-6.3-3.4
		C363.4,198,365.3,199.5,367.1,201z M383.1,375c-3.8,2.5-4.1,2.8-4.6,5.7C380.5,379,382.1,377.3,383.1,375z M164.4,302.6
		c-0.4,2.6-0.8,5.1,1.2,7.2C165.7,307.3,166.5,304.7,164.4,302.6z M415.2,190.5c-1.1,0.2-1.9,0.7-1.9,2c0,1.4,0.9,2.1,2.1,2.1
		c1.1,0,1.9-0.7,1.9-1.9C417.4,191.2,416.5,190.6,415.2,190.5z M437.5,295c-2-1.9-4-1.5-5.8-0.2c-0.5,0.3-0.4,1.6,0.3,1.8
		C433.9,297,436.2,297.7,437.5,295z M419,381c-0.5-1.4-1.4-2.6-2.9-2.9c-0.9-0.2-1.8,0.6-1.6,1.5c0.3,1.5,1.4,2.5,2.9,2.9
		C418.3,382.7,418.9,382,419,381z M412.1,387.5c1.1-0.1,1.8-0.6,1.6-1.6c-0.3-1.4-1.3-2.6-2.7-3c-0.8-0.2-1.8,0.6-1.7,1.5
		C409.5,386,410.7,386.9,412.1,387.5z M405.7,427.4c1.6,2.2,3,3.8,5.3,0.7C409.7,426,408.4,424.3,405.7,427.4z M323.5,176.6
		c1.9,1.8,4.1,2.7,7.7,2.6C328.5,177.1,326.1,176.7,323.5,176.6z M411.9,187.9c-0.2-1.4-1.3-1.6-2.4-1.5c-1.1,0.1-1.7,0.9-1.7,2.1
		c0.1,1.3,0.9,2.1,2.2,2C411.3,190.2,411.9,189.3,411.9,187.9z M189.1,369.1c0.3,2.9,2.3,4.5,4.4,6
		C192.9,372.4,191.2,370.6,189.1,369.1z M427.5,299.4c-1.9-1.9-3.6-1.9-5.3-0.8c-0.5,0.3-0.6,1.6,0,1.9
		C424,301.5,425.7,301.3,427.5,299.4z M184,228.6c3-2.3,4.5-4.5,5.6-8.1C186.4,222.7,184.9,224.9,184,228.6z M355.6,149.7
		c1.3-0.1,2.2-0.7,2.2-2.1c0-1.3-0.9-2.1-2.2-2c-1.1,0.1-1.9,0.7-1.9,1.9C353.6,148.8,354.2,149.6,355.6,149.7z M246.2,411.6
		c1.8,1.6,4,2.3,7.6,2.7C250.8,412.2,248.5,411.9,246.2,411.6z M379.1,419.8c-0.2-1.9-1.1-3.2-3-3.4c-0.8-0.1-1.7,0.7-1.1,1.7
		C375.8,419.6,376.8,421.1,379.1,419.8z M350,188.1c1.6,1.9,3.6,3.3,6,3.7C354.4,189.8,352.5,188.5,350,188.1z M273.6,172.4
		c-2.6-0.6-5.1-0.7-8,1.6C269,174.2,271.4,173.9,273.6,172.4z M420.6,279c1.9,3.6,2.1,3.6,5.4,1.4C424.7,278.3,422.8,279,420.6,279z
		 M198.2,210.2c-2.5,1.4-4.8,3-4.9,6.3C195.3,214.7,197.7,213.3,198.2,210.2z M281.2,453.6c0.7-1.7,1.6-3.4,0.1-5.5
		C279.6,450,279.2,451.7,281.2,453.6z M172.2,338.9c0.3-3.7-0.7-6-2.7-9C169.1,333.6,170.1,335.9,172.2,338.9z M427.5,294.6
		c-1.9-2-3.7-1.5-5.3-0.7c-0.5,0.2-0.6,1.5,0,1.8C424,296.5,425.8,296.3,427.5,294.6z M427.3,304.8c-1.7-2.2-3.4-2-5-1.1
		c-0.3,0.2-0.5,1.6-0.2,1.9C423.8,306.9,425.3,306,427.3,304.8z M428.1,313.4c-2.2-1.3-4.1-1-6-0.5
		C423.1,316.9,423.9,317,428.1,313.4z M170,259.7c-2.6,2.6-3.1,4.5-1.7,8.5C169.1,264.9,170.4,262.7,170,259.7z M245.8,450.4
		c2.2-1.9,2.1-3.7,0.8-6C244.6,446.4,244.8,448.1,245.8,450.4z M226,402.9c0.2-0.3,0.5-0.7,0.7-1c-2-1.2-4-2.3-6.1-3.5
		C221.9,400.8,223.9,402,226,402.9z M252.1,429c1.9-1.8,2.2-3.1,0.6-4.8C251.2,425.5,251,426.8,252.1,429z M179,186.6
		c-0.7-3-2.5-5.2-6-7.1C174.4,183.2,176.5,185.1,179,186.6z M295.2,172c3.7,1.2,4.6,1.3,7.2,0.2C298.9,170.8,298.1,170.8,295.2,172z
		 M174.4,246.2c-1.4,2.3-3.5,4.3-2.6,8.2C173.8,251.5,174.9,249.1,174.4,246.2z M252.6,176.8c2.6,0.4,4.9,0.1,7.5-2.2
		C256.8,174.5,254.6,175.2,252.6,176.8z M361,149.7c-1.2,0.3-2,1.1-1.8,2.4c0.2,1.3,1.1,1.9,2.5,1.7c1.1-0.2,1.8-0.9,1.7-2.1
		C363.2,150.5,362.4,149.7,361,149.7z M408.6,266.7c-0.6,2.4-0.2,4.7,1.6,7.3C410.6,270.9,410,268.7,408.6,266.7z M366.7,158.1
		c1.3-0.1,2.3-0.8,2.3-2.1c0-1.3-0.9-2.1-2.2-2.1c-1.1,0-1.9,0.8-2,1.9C364.6,157.1,365.4,157.9,366.7,158.1z M406.3,184
		c-0.1-1-0.7-1.8-1.9-1.9c-1.4-0.1-2.2,0.7-2.3,2c0,1.1,0.7,1.9,1.8,2C405.3,186.2,406.2,185.5,406.3,184z M266.4,417.2
		c-1.8-1.4-3.9-1.6-6-1.5C262.2,417.1,264.2,417.5,266.4,417.2z M440.4,280.6c-0.3,4.4,0.1,4.6,4.1,2.7
		C443.7,281.7,442.3,281.2,440.4,280.6z M416.6,422.9c-0.7-1-1.3-2.3-2.7-2.3c-0.9,0-1.9,1-1.5,2.1c0.4,1.1,1.2,2.4,2.8,2.1
		C415.9,424.7,416.6,424,416.6,422.9z M177.1,217.5c0.7-0.7,2.1-0.9,1.5-2.1c-0.5-1.1-1.2-2.4-2.6-2.3c-0.9,0.1-2,0.8-1.6,2
		C175,216.1,175.8,217.1,177.1,217.5z M221.1,191.5c-3.8,0.7-5.8,2.3-7,5C216.6,195.5,219,194.4,221.1,191.5z M171.9,212.2
		c2.7-1.3,2.4-2.6,0.9-4.1c-0.9-0.9-1.7-1.2-2.5-0.1C168.7,210.1,171.2,210.8,171.9,212.2z M309.4,173.4c2.1,1.4,4.3,2.1,7.7,1.5
		C314.2,173.3,311.9,172.7,309.4,173.4z M209,200.4c-3.8,1.3-5.6,3-5.9,6.7C205.1,204.3,208,203.4,209,200.4z M422,408.4
		c-1.5,3.4,0.3,4.3,2.1,5.5C426.5,410.9,424.1,410.1,422,408.4z M166.7,272.7c-2.4,4.6-2.5,5.5-1.1,8.9
		C166.8,279,167.2,276.5,166.7,272.7z M420.1,419.7c3.2-2.6,1.4-4-0.7-5.4C416.2,416.5,417.6,418.1,420.1,419.7z M280.6,418.7
		c-2-1-4.1-1-6.2-0.5C276.4,419.4,278.5,419.4,280.6,418.7z M196.3,172.7c-1.1-3.9-2.6-5.6-6-6.8
		C191.8,168.7,193.4,170.9,196.3,172.7z M183.8,171.8c1.7,2.1,2.1,5.5,6.7,6.3C188.2,175.1,186.6,172.9,183.8,171.8z M349.7,141.5
		c-1,0.2-1.8,0.7-1.8,1.9c0,1.3,0.8,2.2,2.1,2.2c1.3,0.1,2.1-0.8,2.1-2.1C352.1,142,351,141.6,349.7,141.5z M164.7,295.6
		c0.6-2.5,1.6-5.1-0.2-8.5C163.4,290.6,163.2,293.1,164.7,295.6z M426.1,284.8c-1.5-1.6-2.8-2-4.3-0.8c-0.3,0.2-0.3,1.3,0,1.5
		C423.3,286.8,424.6,286.3,426.1,284.8z M408.3,324.1c-1.1,2.1-2.2,4.3-1.6,6.7C408.4,328.8,409.2,326.6,408.3,324.1z M182.5,183.7
		c-1.3-2.5-2.3-5.3-5.5-6.1C178.1,180.1,179.8,182.3,182.5,183.7z M410.4,280.9c0.8,2.2-0.5,4.9,2,7.4
		C412,285.2,413.1,282.6,410.4,280.9z M228,173.8c0.9-0.1,1.8-0.6,1.8-1.5c0-1.4-1-2.4-2.2-2.8c-0.9-0.3-1.7,0.5-1.8,1.4
		C225.7,172.4,226.9,173.1,228,173.8z M412.2,295.3c-0.3,0-0.7,0-1,0.1c0.4,2.3-1.2,4.8,1,7.7C412.2,300,412.2,297.6,412.2,295.3z
		 M447.8,300.7c-2.3-2.1-3.8-2.1-5.3-1.2c-0.3,0.2-0.4,1.3-0.1,1.5C443.9,302.2,445.2,301,447.8,300.7z M399.9,430.3
		c1.4,1.7,2.4,4,5.1,1.7C403.8,430.3,403,428.2,399.9,430.3z M245.6,179.1c-2.7-0.2-4.8,0.7-6.5,2.6
		C241.7,181.7,244,181.1,245.6,179.1z M427.9,309.2c-2.2-1.5-4-1.8-5.8-0.4c-0.2,0.2-0.1,1.3,0.1,1.5
		C424.1,311.5,425.9,311.2,427.9,309.2z M276.2,453.4c2.1-1.8,1.7-3.4,1-5.6C275,449.6,275.2,451.2,276.2,453.4z M428.1,317.7
		c-2.6-1-4.3-1.6-5.9,0.8C424.3,319.9,425.9,319.2,428.1,317.7z M159.2,259.3c-1.8-1.6-3.6-2.9-7.1-2.4
		C154.8,258.7,156.7,259.8,159.2,259.3z M280.9,172.1c2.4,0.1,4.9,1.2,7-0.6C285.4,170.8,283,170.5,280.9,172.1z M427.1,289.7
		c-1.5-1.8-3.2-1.7-4.9-0.7c-0.2,0.2-0.2,1.4,0,1.5C423.9,291.5,425.5,291.3,427.1,289.7z M173.4,220.1c-0.6-1.1-1.1-2.4-2.5-2.5
		c-1-0.1-2.1,0.8-1.7,1.9c0.4,1.1,1.1,2.5,2.7,2.4C172.7,221.9,173.4,221.2,173.4,220.1z M235.4,167.4c-0.7-0.8-1.1-2.2-2.5-2.4
		c-0.9-0.1-1.8,0.6-1.7,1.5c0.2,1.3,1,2.4,2.3,2.7C234.4,169.3,235.1,168.6,235.4,167.4z M441.6,310c2.3,0.9,3.8,0.9,5.6-1.5
		C444.9,308.4,443.2,307.3,441.6,310z M226.1,161.1c1.2,0.8,1.2,3.4,3.6,2.1c1.2-0.6,0.8-1.6,0-2.5
		C228.5,159,227.3,158.8,226.1,161.1z M447.2,305.3c-2.1-1.8-3.5-1.8-5.2-0.3C443.4,307.2,444.9,306.2,447.2,305.3z M222.7,164
		c-1,0.1-1.9,0.6-1.7,1.6c0.2,1.3,1.1,2.4,2.4,2.6c0.9,0.2,1.7-0.6,1.6-1.5C224.9,165.3,223.9,164.5,222.7,164z M445.6,287
		c-1.9-1.7-3.4-1.4-5.3,0.5C442.7,288.5,444.2,288.8,445.6,287z M168.6,214.2c-0.7-0.7-1.2-2.1-2.6-2.2c-0.7,0-1.7,0.7-1.5,1.7
		c0.3,1.4,1.1,2.7,2.7,2.6C168,216.2,168.6,215.4,168.6,214.2z M363,170.6c-0.1-0.2-0.2-0.4-0.3-0.6c0,0-0.3,0.1-0.3,0.1
		c0,0.2,0,0.4,0,0.6C362.6,170.7,362.8,170.7,363,170.6z"/>
	<path class="st1" d="M482.3,325.4c1.4-17.3,2.8-33.8,4.1-50.3c0.2-2.6,0.9-4.8,3.6-5.9c0.6-0.2,1.4-0.3,2.1-0.2
		c3.7,0.7,3.7,5.1,7,6.8c3.4,1.8,2.1,5.7,0.6,9.2c-1.4,3.4-1.6,7.3-2.1,11c-0.2,1.1,0.5,1.9,1.9,2.4c5.9,2.2,7.9,8.3,4.2,13.5
		c-1.5,2.1-1.9,3.8-1.6,6.3c0.5,4.1-0.7,7.7-4.9,9.4c-1.2,0.5-1.9,1.1-2.3,2.2c-1.3,3.4-3.6,5.8-7.5,4.8c-4-1-4.9-4.4-5-8.1
		C482.3,326,482.3,325.3,482.3,325.4z"/>
	<path class="st1" d="M94.8,225.1c0.4-1.1,0.4-2.6,1.1-3.2c3.5-2.5,4.2-6.9,7-9.9c1.6-1.7,2.4-3.4,0.1-5.4c-4.3-3.9-4-10.2,0.8-13.6
		c2.1-1.5,3.7-2.9,3.9-5.6c0.1-1.1,0.8-2.1,1.4-3.1c1.2-1.8,13.1-7.7,15.2-7.6c3.8,0.2,6.1,3.8,5,8.3c-1,4.1-3.3,7.7-5,11.4
		c-5.3,11.3-10.7,22.6-16.1,33.8c-0.8,1.7-1.7,3.3-2.8,4.8c-1.2,1.6-3.1,2.3-5,1.6c-1.9-0.7-3.7-2-3.2-4.4
		C98.1,229.3,94.4,228,94.8,225.1z"/>
	<path d="M478,207.2c0.3-0.6,0.6-1.2,0.9-1.8c-0.7-0.1-1.4-0.2-2.6-0.3c1.7-1.4,3.1-2.5,4.7-3.9c1.7,4.1,4.6,4.1,8,2.8
		c3.6-1.3,7.3-2.2,11.1-4.3c2.7,8,5.3,16,8.1,24.3c-5.1-0.1-8.7,3-13.2,3.9c-3,0.6-5.4,2.6-3.8,6.3c-5.1,1-5.4,0.8-4.1-3
		c0.6-1.8-0.5-3.5-0.9-4.4c-1.6-3.6-2.5-7.4-3.3-11.2c-0.4-1.9-2.4-0.2-3.2-1.4c2-1.9,3.4-3.7-1.3-3.7c0.5-1.2,3.8-2.7-0.1-3.2
		L478,207.2z M494.3,208.7c-0.7-1.6-1.8-2.8-3.8-2.4c-2.4,0.6-5.6,0.3-5.8,4.1c-0.1,1.7,0.7,3.1,2.6,3.3
		C489.7,213.9,494.3,210.5,494.3,208.7z M490.3,226.5c3.6,0.3,6-0.9,7.4-3.9c0.4-0.8,0.1-1.9-0.8-2.2c-2.7-0.9-5.1,0.5-7.1,1.8
		C488,223.3,489.6,225,490.3,226.5z"/>
	<path class="st2" d="M451.8,214.3c1.4,8.4,4.3,15.9,7,23.6c0.5,1.5,0.1,3.4,2.4,4.5c1.3,0.6,0.4,3.2-1.6,3.9
		c-1.3,0.4-2.8,0.5-4.2,0.7c-0.9-1.3,0.9-1.2,0.8-2c-1.4-0.7-3.8-8.5-3.2-10.8c-0.8-0.2-1.6-0.4-2.4-0.6c-0.7-1.4,1.4-1.3,1.2-2.4
		c-0.3-1.2-2-0.2-2.3-1.4c1.2-2.8,1.2-2.8-1.7-4c4.1-2.3-2.2-3.9-0.2-6.1c-4.2,0.1,0.8-3.4-1.6-4
		C447.5,213.9,449.5,213.9,451.8,214.3z"/>
	<path class="st1" d="M508.2,251.2c-0.9,3.9-0.4,8.4-4.1,11.6c-1.1,0.9-1.9,1.8-3.3,1.4c-1.4-0.4-2.1-1.5-2.2-2.9
		c-0.1-4.7-0.2-9.5-0.2-14.2c0-1.5,0.8-2.8,2.4-3.3c1.5-0.5,2.6,0.3,3.2,1.5C505,247.5,509.2,247.4,508.2,251.2z"/>
	<path class="st2" d="M462.7,226.6c-1.3-0.2-2.2-0.3-3.2-0.5c-0.2-1.6,1.8-1.4,1.9-2.6c-1.6-2-2.7-4.1-2.8-6.7
		c0-0.2-0.1-0.5-0.2-0.7c-3.2-4.7-3.1-4.9,2.7-6.1c3.4,9.8,6.6,19.7,10.2,29.5c0.4,1.1,1.2,1.9,0,2.5c-1.6,0.8-3.3,1.5-5.2,0.8
		c-1.5-0.6-1.3-1.8-1.1-2.8c0.6-2.4,0.2-4.7-1.5-6.2c-1.5-1.3,1.3-2.5-0.4-3.7C462,229.3,462.1,228.3,462.7,226.6z"/>
	<path class="st2" d="M477.7,237.9c-1.5-1.9-2.7-3.9-2.1-6.4c0.5-2.3-1.6-1.5-2.4-2.2c0.4-0.7,0.8-1.3,1.2-2c-3-0.7-0.1-4.8-3.4-5.6
		c-1.4-0.4,1.3-1.1,0.5-2.5c-2.1-3.6-3.6-7.5-4.5-11.8c1.8,0.3,2.7-2.1,5-1.2c1.4,4.7,2.1,9.9,4.9,14.2c2.8,4.4,1.6,10,4.9,14.4
		c2.3,3.1-0.6,4-3.4,4C478.1,238.5,477.9,238.2,477.7,237.9z"/>
	<path class="st2" d="M435.8,222.3c1.5-1.6-1.3-1.3-1-2.5c1.1-1.6,2.9-2,5.1-2.1c2.8,10.9,7.9,21,10.3,32.3c-1.9,0.4-3.7,0.8-6,1.3
		c0.2-10.3-5.4-18.8-7.5-28.3C436.4,222.7,436.1,222.5,435.8,222.3z"/>
	<path class="st1" d="M128,156.8c0,1.9-1,3-1.8,4.1c-1.1,1.6-2.2,3.3-3.5,4.9c-1.2,1.5-1.9,3.7-4.4,3.6c-1.1,0-2.1-0.7-1.9-1.9
		c0.3-2.6-2.6-5.3,0.7-7.8c2.4-1.8,4.3-4.4,7.6-4.9C126.8,154.6,127.7,155.2,128,156.8z"/>
	<path class="st1" d="M330,121.6c-0.7,0-1.4,0.1-2.1,0c-1.9-0.2-5,0.4-4.4-2.3c0.5-1.9,2.1-5.4,5.7-4.2c2,0.7,4.6,0,6.1,2.4
		c0.6,0.9,2,1.2,1.4,2.6c-0.5,1.2-1.7,1.5-2.9,1.5C332.6,121.6,331.3,121.6,330,121.6C330,121.6,330,121.6,330,121.6z"/>
	<path class="st1" d="M213.7,58.5c-7.9-1.4-9.8,5.1-13.8,9.4c0.4-7-1.2-13.2-5.1-19.1c5.6,2.3,10.5,6.3,16.5,1.5
		c-0.9-4.7-7.2-7.8-6.1-14.7c4.9,3.4,9.1,5.8,12.8,8.9c3.5,3,6.9,3.7,11,2c1.2-0.5,2.5-0.7,3.7-1.1c2.2-0.7,4.2-0.3,4.9,2.1
		c0.8,2.6-0.7,4.3-3.2,4.5c-8.6,0.5-12.2,6.1-14.3,13.5c-0.6,1.9-1.6,3.7-2.3,5.6c-0.7,2-1.9,2.7-4.3,2.3
		C212.5,68.4,214.3,63.3,213.7,58.5z"/>
	<path class="st1" d="M244.2,127.5c-2.1,0-4.3,0.1-6.4,0c-1.3-0.1-2.5-0.8-2.8-2.2c-0.3-1.3,0.5-2,1.4-2.9c5.2-4.9,10.3-4.9,15.9,0
		c1,0.8,1.6,1.7,1.3,2.9c-0.3,1.3-1.4,1.9-2.5,2c-2.3,0.2-4.6,0.1-6.8,0.1C244.2,127.5,244.2,127.5,244.2,127.5z"/>
	<path class="st1" d="M231.6,116.9c-3.8,1.8-7.1,1.4-10.6,0.5C223.3,111.7,227.1,111.4,231.6,116.9z"/>
	<path d="M171.7,67.2c1.5-2.4,4.1-2.8,6.7-3.2C176.8,66.2,174.4,66.9,171.7,67.2z"/>
	<path d="M185.4,61.6c2.8-2.7,5.3-3.1,9-3.5C191.5,60.7,189,61.3,185.4,61.6z"/>
	<path d="M157.3,74.2c1.7-2.2,4-3.4,7.5-4.3C162.5,73.2,160,73.9,157.3,74.2z"/>
	<path d="M111.8,106c-0.9,3-2.8,4.8-6.7,6.5C106.6,108.5,108.9,107,111.8,106z"/>
	<path d="M68.6,162.2c-0.1-2.8,1.6-4.8,3.5-6.7C71.9,158.2,70.8,160.4,68.6,162.2z"/>
	<path d="M65,169.6c0,2.8-1,5.2-3,7.1C61.8,173.8,62.9,171.5,65,169.6z"/>
	<path d="M150.1,78.3c-1.6,2.3-3.8,3.7-6.6,4.1C144.8,79.6,147.2,78.5,150.1,78.3z"/>
	<path d="M125,95.4c-2.3,3.1-4.2,4.9-7.2,5.8C118.9,98.2,120.3,97,125,95.4z"/>
	<path d="M84.8,136.2c0.7-3.8,2.8-5.5,5.1-7.1C89.6,132.1,87.7,134,84.8,136.2z"/>
	<path d="M130.5,91.2c1.2-2.8,3.3-4.4,6.4-4.6C135.5,89.2,133.2,90.4,130.5,91.2z"/>
	<path d="M95.2,123c0.7-2.9,2.7-4.6,5.1-6C100.1,120.1,97.7,121.6,95.2,123z"/>
	<path d="M76.3,148.4c0.5-2.8,1.5-5.2,4.5-7.1C80.5,144.9,78.6,146.8,76.3,148.4z"/>
	<path d="M160.3,144.3c-1.2-1.3-2.4-2.6-3.5-3.9C158.4,141.4,160.6,142,160.3,144.3L160.3,144.3z"/>
	<path class="st1" d="M263.6,447.3c1.6,0.2,2.4,1.1,2.3,2.6c-0.1,1.3-0.9,2.1-2.2,2.1c-1.5,0-2.4-0.8-2.4-2.4
		C261.2,448.1,262.2,447.5,263.6,447.3z"/>
</g>
</svg>
