<?xml version="1.0" encoding="utf-8"?>
<!-- Generator: Adobe Illustrator 17.0.0, SVG Export Plug-In . SVG Version: 6.00 Build 0)  -->
<!DOCTYPE svg PUBLIC "-//W3C//DTD SVG 1.1//EN" "http://www.w3.org/Graphics/SVG/1.1/DTD/svg11.dtd">
<svg version="1.1" id="Capa_1" xmlns="http://www.w3.org/2000/svg" xmlns:xlink="http://www.w3.org/1999/xlink" x="0px" y="0px"
	 width="560px" height="560px" viewBox="0 0 560 560" style="enable-background:new 0 0 560 560;" xml:space="preserve">
<style type="text/css">
	.st0{fill:#64A253;}
	.st1{fill:#222328;}
	.st2{fill:#F6BC18;}
	.st3{fill:#E74B25;}
	.st4{fill:#1A4C93;}
	.st5{fill:#61A645;}
	.st6{fill:#90BC41;}
	.st7{fill:#8D2D8C;}
	.st8{fill:#0FAEDB;}
	.st9{fill:#BA65A8;}
	.st10{fill:#6587B8;}
	.st11{fill:#FDFEFD;}
	.st12{fill:#F9C98A;}
	.st13{fill:#A58A80;}
	.st14{fill:#9C3A17;}
	.st15{fill:#5EC9E7;}
</style>
<circle class="st0" cx="279.6" cy="280" r="280"/>
<path class="st1" d="M387.7,376.6c0.2,1.7,0.5,3.3,0.7,5c-16.2-31.5-43.9-12.6-69.7-6.8c9.2-10.4,30.9-12.9,42.4-21.3
	c14.7-9.3,28.7-20.8,40.4-34c4.5-5.1,9.2-10.9,13-16.3c10.1-14.5,8.3-15.2-4.6-26.1c-10.1-8.5-23-13.2-34-20.6
	c-8.3-5.6-21.7-4.6-29.3-10.4c28.7,102.3-120.3,164.8-166.6,65.9c5.7-1.8,14.6,15.7,19.7,20.5c12.9,12.2,29.3,20.5,46.8,23.4
	c33.1,5.5,66.2-9,85.9-35.8c10.3-17.8,17.6-35.2,16.1-56.5c-0.9-13.2-1.5-22.3-16.7-21.4c-12.7,0.8-23.6-6.7-36.1-8.3
	c3.9,3.7,7.2,7.9,9.8,12.5c-15.7,8.6-7.3,8.9-6,25.3c1.2,14.8-7.1,17.8,8.1,23.3c-17.4,31.6-59.2,41.7-86.4,15.1
	c-6.4-6.3-11.5-9.4-4.8-16.1c2.4-2.4,2.7-5.5-2.2-6.2c-17.7-2.3-6.4-35.2,1-46c-6.2-4.1-23.3,12.1-29.8,11
	c-21.9-3.8-7.4,41.6-11.9,41.5c-2.9-9.9-4.1-22.9-2-33.2c-28.4,6-47.3,42.4-72.1,55.8c-1.1-1.1,17.1-21.2,19-23.5
	c-1.8,0.2-17.5,1.6-17-2.2c9.1,3,17.9,1.8,24.4-5.7c-8.7,1.2-17.8,2.1-25.5-3.3c11,4.5,25.6,3.9,34-5.4c-7.5,0.8-19.6,1.8-25.6-4
	c9.6,3.4,23,4.4,31.9-1.9c-1.3-0.1-23.7-7.6-21.7-9.6c3.2-3.1,20.6,13.8,28.3,4.1c-6.7-2.3-19.6-9.7-19.6-18.2
	c6.8,8.9,18.1,19.7,28.8,11.5c-5-3-21-17.1-16.7-24.9c4.6,12.1,13.9,26.8,27.2,18c-11.4-9.3-7.7-20.3-11.1-32.4
	c-9.4,4.3-18.4,9.7-27.3,14.9c2.3-8.2,32.9-19.3,40.2-22.7c17.6-8.1,36.8-15.6,56.1-18.2c-0.1-0.7-1.8-4-0.7-5
	c5,6.4-0.9,5.2,12.2,3.1c-0.8-1.5-1-3.1-0.5-4.7c7.9,1-5,4.7,13,3.4c12.7-0.9,13.3,0.9,12-12.8c5.2,12.3-2.8,11.7,12.6,12.4
	c13.6,0.6,10.6-1.8,14-13.2c0.5,4.3-2.1,9.7-1.2,13.8c1.8,0.9,10.2,1.3,8.6-2.3c-0.8,6.9,12.1,5.2,17.5,6.4c7.6,1.6,12-22,12.6-26.6
	c0.1,0,0.2,0,0.4,0c0.2,10.2-2.5,18.7-4.2,28.5c18.4,4.1,20,6.6,30.2-10.4c-0.7,6.6-5.2,10.8-6.8,16.7c10.2,5.9,11.8-17.5,17.6-19.4
	c3.3,5.2-8.5,17.7-9.6,22.4c11.9,4.2,14.8,9.2,24.1,1.6c-1.3,2.1-2.5,4.3-3.7,6.5c11,3.8,12.7-0.6,21.5-8.8
	c-2.4,5.2-5.4,10-9.1,14.4c6,1.8,12.6,5.7,17.9,8.6c6,3.3,12.8-11.2,17-13.1c1.3,13.1-27.3,26.3-35.5,29.5
	c19,0.9,37.2-4.7,48.9-20.5c-7.2,15-21.3,23.4-36.8,27.7c20.4,3,40.5-0.9,54.5-17.1c-6.4,14.7-22,21-36.3,25.1
	c23,3.3,45.1-2.5,60.2-20.9c8.4,11.3-43.4,29-49.2,29.7c21.9,7.4,47.2-5.1,61.2-21.2c-10.2,16.9-26.8,27.6-46.2,31.2
	c19.1,5.8,38.7,2.8,55-8.7c-7.9,8.3-18.2,13.7-29.3,16.6c-11.6,3-20-2.3-27,7.9c16.7,1.6,34.2,5.2,41.8,22.5
	c-11.8-10.1-35.1-20-50.4-10.3c8.3,2.3,33.5,12,30.7,25.2c-8.8-14.3-29.7-26.6-42.2-12.1c11.4,5.4,26.1,16.1,26.1,30.4
	c-2.7-7.7-10.1-17-17.9-20.3c-14.3-5.9-13.1-4-24.5,5.9c6.7,2.8,26.5,17.8,22.5,27.2c-12.8-30.1-37-22.2-56.5-4.4
	C376.3,364.1,381.5,371.3,387.7,376.6C387.2,378.3,386.2,375.2,387.7,376.6z M335.9,213.6c3.7-1.9,7.2-4.3,10.2-7.2
	C342.5,203.9,336.7,212.8,335.9,213.6C337.8,213.3,335.8,213.7,335.9,213.6z M375,216.3c-5.1-1.8-19.6,13.2-25.6,15.6
	c9.7-0.4,24.1-5.9,30.6-13.7C378.4,217.6,376.7,217,375,216.3C373.5,215.8,376.6,216.9,375,216.3z M283,200.6
	c-3,6.3-6.5,11.7-11.1,16.9c8.8-2.1,18-14.3,20.4-22.5C286.2,192.2,283.1,194.1,283,200.6C280.9,204.9,283.7,198.6,283,200.6z
	 M170.9,215c1.1-5.8-15.2,3.6-14.1,7.1c-2.3,10.3,5.7,21.7,13.4,27.4c3.2,2.4,8-4,6.1-7.2C171.3,233.8,169.9,224.6,170.9,215
	C171,214.4,170.7,216.9,170.9,215z M184.9,215c-4.1-15.8-15.2,1.7-11.1,13.3C184.1,258.2,191.6,232,184.9,215
	C184.4,213.1,186.7,219.5,184.9,215z M231.6,218.8c3.8-7.2,5.8-15.4,5.3-23.6c-13.5,2.4-6.9,4.5-6.7,16.2
	C230.3,212.7,228.1,226.4,231.6,218.8C234.3,213.8,231.2,219.8,231.6,218.8z M216.9,222.1c-0.3,2.3-0.6,4.6-1,6.9
	c7.2-8.5,7.7-21.6,9.3-32c-4.7,0.8-9.4,1.8-14,3.1C215.9,206.5,217.6,214.3,216.9,222.1C216.7,224.4,217.4,216.8,216.9,222.1z
	 M195.2,229.6c1.6-7,1.4-17.7-0.6-24.7c-3.8,1.1-7.5,2.4-11.2,3.8c5.2,9.2,9,18,10.4,28.5C194.3,234.7,194.7,232.1,195.2,229.6
	C195.9,226.4,195.3,232.2,195.2,229.6z M369,216.1c6.5-5.2-19.3-6.4-18.2-7.9c-6.6,7.7-13.9,13.4-22.7,18.4
	C342.3,231.4,358.6,226.5,369,216.1C369.6,215.7,367.7,217.4,369,216.1z M310.9,213.7c-2.7,2.7-5.6,5.3-8.5,7.8
	c12.5,0.8,28.2-8.3,36.5-17.4C319.5,198.8,322.5,200.9,310.9,213.7C308.2,216.4,313.3,211,310.9,213.7z M294.3,213.6
	c6.9-3.3,14-9.1,18.4-15.5c-9.5-1.9-17.3-7-21,3.4c-3.3,7.2-7.5,12.2-13,17.7C284.2,218.4,289.4,216.5,294.3,213.6
	C299.5,211.1,289.6,216.7,294.3,213.6z M212.5,223.8c1.7-5.5,1.8-11,0.2-16.6c-2.7-11.2-8.1-5.4-16.2-3c4.9,10.3,5.9,19.4,5.1,30.7
	C208.2,233.9,211.1,230.6,212.5,223.8C214.1,218.3,212,226.6,212.5,223.8z M278,201c1.3-2.3,2.6-4.5,4-6.8
	c-9.6-0.5-18.4-5.5-18.8,6.4c-1.5,7.9-4.5,14-8.9,20.6C263.9,217.7,272.7,209.6,278,201C279.6,199,274.9,206,278,201z M258.5,200.6
	c0.6-2.4,1.3-4.7,1.9-7.1c-6.9,0.1-13.8,0.6-20.7,1.4c1.5,11.1,0,19.5-4.4,29.8C247,225.3,255.8,209.9,258.5,200.6
	C259.5,198.5,256.9,206.2,258.5,200.6z M379.7,225.8c-5.2,4.4-10.9,8.1-17,11c12.8,6.1,30.7-0.2,41.8-7.3
	C394,224.5,388.3,217.6,379.7,225.8C374.6,230.1,380.7,224.9,379.7,225.8z M243.8,256.6c0-18.1-14-3.2-17.9-0.6
	c-11.3,7.7-10.4,23-4.5,33.6c4.2,7.6,29,30,30.9,8.1C253.1,289,240.9,261.1,243.8,256.6C243.8,251.7,242.3,259,243.8,256.6z"/>
<path class="st1" d="M59,164.2c-1,3.9-2.8,7.3-1.2,11.5C68.5,162,82.9,152.1,98.1,144c-0.7,0.7-14,14.3-13.5,15.1
	c0.2,0.4,62-39,70.9-35.2c-0.3,0.2-16.7,8.8-16.1,9.6c0.9,1.2,65.2-19.8,72.2-21.2c25.3-4.9,55-9.9,80.8-8.9
	c-1.3,0.2-11.8,1.3-11.7,2.7c60.8-4.7,122-1.8,182.2,7.8c-15.3-1.3-30.5-2.7-45.8-3.2c6.5,1.5,12.9,3.1,19.4,4.7
	c-16.2-2.3-32.5-4-48.9-4.9c0.9,0.2,12.2,1.6,12.1,2.6c-91.6-9.3-201,3.7-282.4,49.7c5.5-1.8,11-3.3,16.6-4.6
	c-20.3,9.7-40.5,20.1-56.6,36.1c-14.2,14.1-23.5,23.4-43.3,10.5c5.1,0.8,10.2,0.9,15.3,0.1c-13.8-2.1-20.8-14.9-20.4-27.9
	c3.4,7.8,8.5,14.1,17.4,15.3c-5.8-6.9-7.5-15.3-5.8-24c1.6,5.8,4.7,10.4,9.6,14C49.5,174.8,52.2,167.9,59,164.2z M230.1,111.7
	c7.3,1.9,10.4,1,9.5-2.5C236.5,110,233.3,110.8,230.1,111.7C233.3,111,233.2,110.3,230.1,111.7z M138,133.8
	C138.7,134.2,139.6,133.6,138,133.8C138.5,134.1,138.5,133.7,138,133.8z"/>
<path class="st2" d="M487.5,247.5c-7.6,3.1-19.8,24.4-30.6,20.1c0.1-1.8-1-6.5-3.9-3.7c-1.5,2.1-1.1,3.6,1.3,4.6
	c-8.4,2.6-19.5,3.1-28,0.2c5.8-0.7,57.5-18.4,49.2-29.7c-15.1,18.4-37.3,24.2-60.2,20.9c14.3-4.1,29.9-10.5,36.3-25.1
	c-13.9,16.2-34.1,20.1-54.5,17.1c15.6-4.2,29.6-12.7,36.8-27.7C422.1,240,404,245.6,385,244.7c10.8-4.2,18.9-14.8,29.7-10.2
	c-8.4-4.6-6.1-2.6,0.1-10.3c8.9-11.2,8.4,0.4,13-4.5c1.6-1.8-11.3-22-15.6-17.5c-1.6,1.7-7.7,0.7-7.8,2.2
	c-0.8,7.6,7.3,11.5,13.7,13.2c-13.1,16.6-16.5,6.9-32.6,2.2c3.7-4.4,6.7-9.2,9.1-14.4c-2.7,2.6-13.7,17.1-18.5,9.9
	c2.6-2.8,9-7.4,10.3-8.5c1.6-1.4,16.1-7.4,16.9-9.1c7.6-15.7,14.2-12,29.2-1.4c34.4,24.2,60.1,63.7,107.2,42.8
	c-8.6,40.9-63.9,58.9-99.8,55.5c7.1-10.2,15.4-4.9,27-7.9c11.1-2.8,21.3-8.3,29.3-16.6c-16.4,11.5-35.9,14.5-55,8.7
	C459.2,275.3,481.9,261.3,487.5,247.5C486.1,248.1,487.6,247.2,487.5,247.5z M452,234C452.6,233.7,451.8,234.5,452,234
	C452.3,233.8,451.9,234.2,452,234z M415.9,235.3C415.5,234.9,418.3,236,415.9,235.3C415.9,235.3,416.2,235.4,415.9,235.3z
	 M499.1,262.7c5.4,0,5.3-8.2-0.2-8.1C493.6,254.7,493.7,262.7,499.1,262.7z M452.1,230.4c5.5-0.1,5.1-8.3-0.3-8.1
	C446.4,222.5,446.6,230.4,452.1,230.4z M483.5,274.1c1.9-0.1,2.9-1.1,3.2-2.8C485.2,264,477.3,274.3,483.5,274.1
	C485.3,274,482.2,274.1,483.5,274.1z M513.3,254.6c0.6,7.2,9.6-2.4,2.5-2.6C514.9,252.8,514.1,253.7,513.3,254.6
	C513.4,256.2,513.4,253,513.3,254.6z M434.2,235.9c-0.9,0.9-1.9,1.7-2.8,2.6C431.7,245.3,440.8,236.8,434.2,235.9
	C432.5,236.1,435.5,236.1,434.2,235.9z M456.9,245.6c0.9-0.9,1.7-1.7,2.6-2.6C459.4,235.3,449.7,246,456.9,245.6
	C458.9,245.6,455.3,245.7,456.9,245.6z M471.6,254.5c-0.8-0.9-1.7-1.7-2.5-2.6c-3.4,1.7-3.4,3.4,0,5.1
	C469.9,256.2,470.7,255.4,471.6,254.5C471.4,253,471.4,256.1,471.6,254.5z M404.2,220.8c1,6.5,9.2-2.6,2.7-3
	C406,218.8,405.1,219.8,404.2,220.8C404.4,221.9,404.3,218.7,404.2,220.8z M449.7,247.5c-0.3-7.3-9.7,2.2-2.8,2.6
	C447.9,249.2,448.8,248.4,449.7,247.5C449.7,245.9,449.5,249.2,449.7,247.5z M486.4,256.1c-0.9,0.8-1.8,1.7-2.8,2.5
	C483.5,265.5,493.5,257.1,486.4,256.1C484.6,256.2,487.7,256.3,486.4,256.1z M505.8,271.3c3.2-1.9,3.1-3.5-0.3-5
	C502.3,268.1,502.4,269.8,505.8,271.3C507.2,271,504.3,271.1,505.8,271.3z M464,276.3c0,7.5,10-3,2.4-2.6
	C465.7,274.6,464.8,275.5,464,276.3C464,278.1,464,274.7,464,276.3z M438,225.5c3.4-1.6,3.5-3.3,0.2-5.1
	C434.8,222.2,434.8,223.9,438,225.5C439.7,225.4,436.7,225.3,438,225.5z M400.3,213.7c-0.8-0.9-1.6-1.8-2.4-2.6
	C390.7,210.8,399.7,220.8,400.3,213.7C400.2,212,400.1,215.2,400.3,213.7z"/>
<path class="st3" d="M413.8,184.3c-13.2,5.2-2.9,8.5-16.7,1.1c-9.3-4.9-18.9-9.2-28.8-12.7c-17.7-6.3-36.6-9.9-55.4-11.1
	c-47.9-3.2-113.6,8.9-151,41.5c7.8,11.6,61.8-21.5,63-9.4c-16.1,2.2-32.1,8.1-47,14.3c-8.8,3.6-46.5,16.7-49.3,26.6
	c9-5.2,17.9-10.6,27.3-14.9c1.5,5.3-9.4,9-12.5,12.2c4.1-1.4,8.2-3.1,12.1-5c0.3,5.6,1.6,11,4,16.1c-3.3-1.1-6.9,3.7-2.4,4.3
	c2.2-0.6,3.2-1.7,3-3.4c2,3,4.3,5.7,7,8.1c-8.2,5.3-12.9,4.2-19.6-4.2c7.5-9.8-5.8-8.8-7.6-13.8c-0.3,0.6-28,21.2-17.6,24.3
	c3.3,1,2-2.8,4-3.6c6.5-2.6,13.6,8.4,21,10.9c-7.7,9.8-25.1-7.2-28.3-4.1c-0.5,0.5-2.6,5.5,1.2,5.5c5.4,0.1,13,3.2,20.5,4.1
	c-8.8,6.3-22.2,5.3-31.9,1.9c6,5.8,18.1,4.7,25.6,4c-8.4,9.3-23.1,9.9-34,5.4c7.7,5.3,16.8,4.4,25.5,3.3c-6.5,7.5-15.4,8.6-24.4,5.7
	c-0.6,3.8,15.2,2.3,17,2.2c-3.1,3.7-30.9,29.1-13.8,19.1c-7.4,14.2-11.1,19.7-2.2,35.5c-4.6-0.8-35.1,5.4-27.1-6.6
	c11.6-17.2,10.3-45.2,14.6-64.9c8-37.2,51.2-66,81.6-84.8c37.9-23.4,81.1-38.3,125.9-39c20.4-0.3,40.7,2.2,60.4,7.5
	C371.3,164,405.5,171.9,413.8,184.3C411.1,185.4,413.4,183.6,413.8,184.3z M96,305.4c0.9,0.9,1.8,1.8,2.6,2.6
	C105.3,307.7,96.4,298.6,96,305.4C96.2,307.2,96.1,304.1,96,305.4z M160.4,210.1c0.8-0.9,1.5-1.8,2.3-2.7
	C162.2,200.8,152.8,209.8,160.4,210.1C161.8,209.8,158.7,210,160.4,210.1z M101,286.8c-1.6-3.7-3.2-3.7-4.9-0.2
	C97.6,289.7,99.3,289.7,101,286.8C100.9,285,100.8,288,101,286.8z M112,277.9c-3.1,1.6-3,3.2,0.1,4.9
	C115.5,281,115.5,279.4,112,277.9C110.8,278,113.7,277.9,112,277.9z M112.1,266.2c-0.8-0.9-1.6-1.9-2.4-2.8
	C102.9,263.3,111.2,272.8,112.1,266.2C112.1,264.4,111.9,267.5,112.1,266.2z M103.5,261.4c-0.8-0.9-1.7-1.8-2.5-2.7
	C94.4,258.6,102.7,268.3,103.5,261.4C103.5,259.7,103.4,262.8,103.5,261.4z M93.5,342.1c-1.3-0.5-10.6,1.8-7.3,3.4
	C89.3,345.8,91.7,344.7,93.5,342.1C91.2,341.1,92.7,344.2,93.5,342.1z M115,256.6c0.7,1.7,1.2,2.3,2.5,3.1
	C116.9,258.1,116.3,257.4,115,256.6z M126.1,235.4c0.5,0.2,1,0.4,1-0.5C126.8,235.1,126.5,235.3,126.1,235.4z M114.2,255.7
	C114.3,256.1,114.6,255.5,114.2,255.7C114.2,255.7,114.2,255.7,114.2,255.7z M128,234.7C128.3,234.5,127.7,234.4,128,234.7
	C128,234.7,128,234.7,128,234.7z"/>
<path class="st4" d="M349.1,408.1c-1.4,1-15.4,13.6-16.4,6.9c-0.8-5.6,6-1.7,5.3-1.2c-4.1-5.4-6.9-0.8-4.8,4
	c-18.1,9.9-17.4,19.6-13.3,35.3c1.2,4.4,6.3,24.4-7.2,17c-11-6.1,4.4-17.6,3.5-22.9c-1,0.7-2,1.3-3.1,2c0.4-4.3,2.8-21.3-1.3-23.6
	c-6.6-3.8-14,28.9-11.7,32.8c4.7,7.9-0.7,27.8,0.4,37.3c1.2,10,13.8,37-2.9,41.3c-24.2,6.2-6.1-54.1-6.4-64.2
	c-0.3-8.2,2.1-32.7-3.9-38.8c-10.5-10.7-27.9-10.2-41.6-9.8c2.9-16.9,3.4-11.2,20.3-11.3c13.7-0.1,27.8-1.5,41.2-4.5
	c16.3-3.6,32.1-9.8,46.7-17.7c5-2.5,9.9-5.3,14.5-8.4c3.1-0.1,2.5,5.4,7,2.8c-9.7,13.7-9.3,26-9,43.4c0.1,11.7,11.3,32.3,7.2,42.5
	c-6.1,15.3-28.2,4.6-22.9-10.1c7.4-20.6,8.9-37.2,7.7-59.3C356,402.5,348.9,405.1,349.1,408.1C344.4,411.5,348.9,405,349.1,408.1z
	 M336.3,413.3c1,0.7-4.6-1.7-2.3,1.8C333.7,413.3,334.5,412.7,336.3,413.3C336.4,413.4,335.6,413.4,336.3,413.3z M356.3,468.2
	c3,5,7.5-0.4,4.8-4C357.2,459,346.4,468,356.3,468.2C357,469.4,355.3,468.2,356.3,468.2z M288.9,527.1c2.4-3.9,2.6-7.9,0.6-12
	C283.4,515.8,288.4,524.1,288.9,527.1C291.3,524.1,288.6,525.3,288.9,527.1z M315.7,464.6c-0.2-1.9-3.8-3.3-5.1-1.6
	C309.6,464.2,315.2,469,315.7,464.6C315.6,463.8,315.6,465.3,315.7,464.6z M356.1,456.6c-1.8,1-1.8,2,0,2.9
	C358,458.5,358,457.5,356.1,456.6C355.3,456.8,356.9,456.7,356.1,456.6z"/>
<path class="st5" d="M247.9,412.1c-2.8,14.1-79-18.5-89.6-24.4c-8.6-4.8-16.9-9.5-25.3-14.4c-8.3-4.8-16.7-9.3-25.5-13.3
	c-5-2.3-26.2-6.9-28.7-11c26.9-6.2,56.3,8.5,81.9,15.4c30.8,8.3,61.3,12.7,93,15.6c-2.2,14.3-4.2,10.3-17.8,7.3
	c-9.7-2.2-20-4.9-29.9-6.1c2.7-5.4-11.5-2.9-17.2-4.4c-4.9-1.2-52.7-12.8-44.2,0.2c8.2,12.6,39.5,21.3,53.1,25.5
	C214,407.6,231.1,410.9,247.9,412.1z"/>
<path class="st6" d="M141.9,378.8c9.4-1.2,34.1,18.3,44,22.2c18.9,7.4,40.9,13.9,61.4,14.2C241,451.8,155,392.4,141.9,378.8
	C143,378.6,142.5,379.4,141.9,378.8z"/>
<path class="st7" d="M420.8,349.5c-10.3-1.4-3.4-10.4-2-14.3c-3.4,0.6-6.4,1.9-9.3,3.9c-7.2-0.7,4-12.6,4.6-13.3
	c3.6-3.9,19.2,7.6,21.1,9.7C433,340,425,346.5,420.8,349.5C419.5,349.4,424.1,347.2,420.8,349.5z"/>
<path class="st7" d="M438.4,332.8c-6.1-5.3-11.2-9.6-18.5-13.1c6.4-7.4,5.1-8.1,14-6.5c4.1,0.8,7.5,6.9,10.2,6.6
	c-1.3-1.3-2.2-2.9-2.9-4.6c3.8,1.3,7.3,3,10.6,5.3C448.6,320.4,440.5,330.8,438.4,332.8C435.8,330.6,442.1,329.2,438.4,332.8z
	 M435.4,319c-3.3,1.5,0.1,7.2,3.5,5.9c5.3-2.1-1.9-9.1-4.3-9.4c-1.1,2.4,6.3,4.6,4.4,7.4C436.4,326.7,436,319.3,435.4,319
	C434.6,319.4,436.4,319.6,435.4,319z"/>
<path class="st7" d="M411.7,346.3c2.3,1.8,4.6,3.6,7,5.4c-8.1,7.7-20,21.3-30.9,24.9C381.9,371.6,405.2,351.4,411.7,346.3
	C414.6,347.3,409,348.4,411.7,346.3z"/>
<path class="st8" d="M255,494.5c0.3-2.4,1.4-16,5.6-15.9C279.6,479,254.8,517.2,255,494.5C255.5,490.1,254.9,498.7,255,494.5z
	 M260.5,495.9c-0.8-2.6-1.7-2.7-2.6-0.3C258.8,498.3,259.6,498.4,260.5,495.9C260.4,494.9,260.3,496.6,260.5,495.9z"/>
<path class="st6" d="M219,449.5c0.3-2.6,1.2-15.3,5.4-15.5C243.3,433,218.8,473.9,219,449.5C219.5,445.4,219,454.2,219,449.5z
	 M224.5,451.2c-0.8-2.5-1.7-2.5-2.6,0C222.8,453.8,223.7,453.8,224.5,451.2C224.4,450.3,224.4,452,224.5,451.2z"/>
<path class="st9" d="M403.7,385.9c0.3-2.4,1.4-15.9,5.6-15.7C428.7,370.9,403,409,403.7,385.9C404.2,381.8,403.6,390.1,403.7,385.9z
	 M409.2,387.5c-0.9-2.5-1.8-2.5-2.6,0.1C407.4,390,408.3,390,409.2,387.5C409.1,386.6,409.1,388.4,409.2,387.5z"/>
<path class="st7" d="M454.1,303.9c1.4-0.2,11.1,0.8,11,3.6c-8,7.5-10.1,12.9-14.2,4.9c-3.3-1.2-6.2-8.1-11.1-8.3
	c3.6-1,7.2-1.1,10.9-0.4c-2.9,3.8,1.7,9.8,4.4,5.3c-0.4-0.8-7.5-1.1-3.5-3.6c2.5-1.5,3,3.1,5.3,2.2
	C455.8,306.2,455,305.1,454.1,303.9C457.8,303.5,454.6,305.3,454.1,303.9z"/>
<path class="st7" d="M467.2,294.1c7.4-1.5,15.7-5.8,23-6.2c-5.7,5.6-13.5,10.1-19.9,14.9c-10-4.3-10.1-5.4-22-7.7
	c7.8,0,13.3-1.5,17.4,2.5C466.2,296.5,466.7,295.3,467.2,294.1C474.5,292.7,467.8,295.7,467.2,294.1z"/>
<path class="st7" d="M375.5,385.1c-2.7,0.1-4.9-0.9-6.7-2.8c2.5-1.6,11.7-6.2,13.5-9.9C391.4,379.8,381.5,381.3,375.5,385.1
	C373.7,386.1,379.2,382.7,375.5,385.1z"/>
<path class="st10" d="M318.9,445.7c-4.9-0.3-6-7.2,0-6.7c-0.1,4.2-1.9-0.7-2.7,2.7C316.1,442.2,318.8,444.5,318.9,445.7
	C317.4,445.6,318.8,445.2,318.9,445.7z"/>
<path class="st10" d="M336.8,411.9c-6.4,0.1-2.5,6-3.6,5.9C330.3,411,333.9,414.2,336.8,411.9z"/>
<path class="st10" d="M349.1,408.1c-0.2-3,1-3.8,4.5-3.2C352.2,406.1,350.9,407.4,349.1,408.1z"/>
<path class="st4" d="M318.8,444.3c-1.3-0.3-2.1-1.2-2.6-2.6c0.5-1.3,1.4-1.6,2.6-0.9C318.8,441.9,318.8,443.1,318.8,444.3
	C318.5,444.2,318.8,443.1,318.8,444.3z"/>
<path class="st10" d="M313.2,449.2c1-0.6,2.1-1.3,3.1-2C313.5,451.9,312.5,452.6,313.2,449.2C314.6,449.2,313.1,449.8,313.2,449.2z"
	/>
<path class="st10" d="M300.9,460.6c-0.4-2.2-2.9-4.9,0.4-6.4C301.2,456.3,301,458.5,300.9,460.6
	C300.8,459.8,301.4,458.5,300.9,460.6z"/>
<path class="st10" d="M301.3,452.9C298.5,450.9,303.1,446.8,301.3,452.9C300.7,452.5,301.6,451.8,301.3,452.9z"/>
<path class="st10" d="M313.4,446.1c0.1,0.6,0.2,1.2-0.1,1.8C313,447.3,313.2,446.7,313.4,446.1z"/>
<path class="st1" d="M156.5,123.5C155.7,123.9,155.1,123.3,156.5,123.5C156.1,123.7,156.1,123.5,156.5,123.5z"/>
<path class="st6" d="M141.3,378.2c0.2,0.1,0.3,0.3,0.5,0.4C141.6,378.5,141.4,378.4,141.3,378.2z"/>
<path class="st1" d="M59,164.2C59.1,164.2,59,164.2,59,164.2L59,164.2z"/>
<path class="st1" d="M509.9,564.4c0.4-0.3,0.9-0.8,1.3,0l0.1-0.1C510.8,564.3,510.3,564.3,509.9,564.4L509.9,564.4z"/>
<path class="st1" d="M499.6,564.4c0.3-0.7,0.6-0.5,0.8,0l0.1-0.1C500.2,564.3,499.9,564.3,499.6,564.4L499.6,564.4z"/>
<path class="st1" d="M511.2,564.4c0.4-0.1,0.4,0.2,0.5,0.5c0,0,0-0.1,0-0.1C511.4,564.8,511.3,564.6,511.2,564.4L511.2,564.4z"/>
<path class="st1" d="M500.4,564.4c0.3,0,0.4,0.2,0.5,0.5c0,0,0-0.1,0-0.1C500.6,564.8,500.5,564.6,500.4,564.4L500.4,564.4z"/>
<path class="st11" d="M253.8,380c-49.9-4.6-95.2-17.6-143.5-29.9c-43.1-10.9,47.9-68,60.3-74.9c0.2,6.4,1,13,2.8,19.2
	c2.9,0,49.8-11.7,44.3-2.1c-6.3,11.1-26.6,16.2-37.9,19.7c40.8,87,169.3,50.8,170.6-40.6c6.1-1.6,21,8.4,26.3,11.1
	c7,3.6,29.5,22.6,36.5,21.6c0.4,9.8-63.7,61.4-66.9,56.1c0.4,0.6,21.6-10,14.7-6.6C330.2,375.9,290.7,379.2,253.8,380
	C247.6,379.4,261.5,379.9,253.8,380z M345.3,360.9C344.6,360.4,344.5,361.4,345.3,360.9C345.2,360.8,345.2,361,345.3,360.9z"/>
<path class="st12" d="M179.2,203.1c-7.4,4.7-11.6,8.3-17.2,0c24.2-21,63.8-32.5,94.5-38c18.5-3.3,37.6-4.7,56.4-3.5
	c6.4,0.4,44.2,1.9,46.4,8.7c-1.4,1.1-1.7,2.6-1,4.5c3.4,3.8,4.7-2,3.6-3.9c11.1,2,38.4,20.8,41.9,20.7c-4.9-5.4-15.3-3.2-11.8,5.6
	c3.1,7.8-23.4,24.3-15.3,10.3c-8,6.6-13.2,0-22.9-3.7c3-4.7,5.3-20.1,12-17.5c2.7,1.1,17.9,9.4,20.6,7.5c-9.4-12-8.8-5.8-21.5-13.2
	c-2.4-1.4-38.3-16.2-39.8-12.5c-17.9-8.6-47.5-4.7-66.1-1.9c-8.1,1.2-72.2,14.4-69.9,27.8c11,1.2,23.9-11,34.8-12.7
	c0,6.8,9.9-3.1,15.4-4.2c12.2-2.6,25.4-0.8,36.8-1.5c12.5-0.8,34.6-9.5,47.7-0.7c-6.5,30.5-17,7.8-37,13.1c0.7-3.6,1-7.3,0.8-11
	c-4.7,15.4-20.9,14.4-26.7,0.8c1.5,16-27.6,8.8-37.4,10.3c-3.2,7.1-8.6-2.5-10.2,0.3c-1.6,3-24.9,16.1-32.7,14
	c0.6-2.1-0.2-3.6-2.3-4.5C173.7,198,177.3,202.7,179.2,203.1C175.6,205.4,177.7,202.8,179.2,203.1z M362.9,200.5
	c0,5.5,8.2,5.2,8.1-0.3C370.9,194.9,362.9,195.2,362.9,200.5z M389,200.5c0.1-5.4-8-5.5-8.1-0.1C380.8,205.9,388.9,205.7,389,200.5z
	 M304.1,181.8c7-2.2-2.7-7.8-2.6-2.4C302.4,180.2,303.2,181,304.1,181.8C305.2,181.4,302.4,181.7,304.1,181.8z M256.2,181.8
	c3.3-1.8,3.1-3.5-0.4-4.9C252.8,178.7,252.9,180.3,256.2,181.8C257.5,181.6,254.5,181.8,256.2,181.8z M223.3,187.5
	C223.3,187.3,223.3,187.3,223.3,187.5L223.3,187.5z M377.1,206.6C376.7,206.9,377.3,206.9,377.1,206.6
	C377,206.6,377.1,206.6,377.1,206.6z"/>
<path class="st13" d="M413.3,304.1c-8.3,1.1-35.1-21.1-43.9-25.2c-3.9-1.8-14.3-8.7-18.9-7.5c-0.2-8.7-1.7-16.9-4-25.3
	c4.7,3.5,18.1,6.3,23.9,7.8c9.5,2.5,15,13.4,25.3,14.4c9.3,0.9,19.3,13.2,26.1,18.8C425.1,289.9,414.9,304.4,413.3,304.1
	C411.6,304.3,414,304.2,413.3,304.1z"/>
<path class="st11" d="M243.8,256.6c-2.7,4.3,8.3,25.8,8.6,32.1c1.3,21-14.4,22.2-26.4,7.8c-8.4-10.1-12.4-24-4.9-35.6
	C225.1,254.7,243.7,237,243.8,256.6C242.3,259,243.8,251.7,243.8,256.6z"/>
<path class="st3" d="M207.4,287.3c-10.7,1.1-20.8,3.6-31.2,6.3c-2.3-7.3-10.1-44,9.1-40.7c6.5,1.1,23.6-15,29.8-11
	C205.5,255.8,204.4,271.1,207.4,287.3C201.6,287.9,206.8,284.1,207.4,287.3z"/>
<path class="st6" d="M233.5,319.6c13.5,6.1,28,8.4,42.3,3.3c14.4-5.1,14.7-1.2,21.9,13.8c-11.1,20.1-59.2,5.2-73.7-1.6
	C227.2,329.9,230.4,324.8,233.5,319.6C238.2,321.7,230.4,324.8,233.5,319.6z"/>
<path class="st4" d="M253.8,380c25.5-0.5,48.8-3.5,73.6-9.7c-2.9,1.5-5.8,3-8.7,4.5c10.4-2.3,27.7-12.3,35.8-3
	c-6.5,9-33.5,14.3-43.8,16.7c-19.1,4.5-39,4.1-58.4,1.3C252.8,386.6,253.3,383.3,253.8,380C261.5,379.9,253.3,383.3,253.8,380z"/>
<path class="st11" d="M307.5,295.1c-15.2-5.5-6.9-8.5-8.1-23.3c-0.6-6.7-2.4-13-5.5-19c6.8-3.8,13.7-7.4,20.7-11
	c8.8,15.5,10.1,33.8,6.5,50.9C315.1,297.7,316.9,298,307.5,295.1C304,293.9,308.4,295.4,307.5,295.1z"/>
<path class="st11" d="M323.8,175c-8.4-5.7-31.3-3.5-41.3-3.2c-3.6,0.1-6.3,7.5-10,2.1c-2.4-3.6-14.3-0.1-17.4,0.4
	c-7,1.1-14.5,2.5-21.3,4.3c-2.2,0.6-9.8,11.3-9.8,2.9c-11,1.8-23.9,13.9-34.8,12.7c-2.2-13.4,61.8-26.6,69.9-27.8
	C269.6,164.8,329,158.7,323.8,175C323.3,174.6,324.5,172.8,323.8,175z"/>
<path class="st5" d="M224,335.1c15.9,7.5,31.2,11.9,49.1,9.6c18.2-2.4,19.3-12.4,30.5,0.9c-24.8,15-61.4,16.1-86.1,0
	C219.7,342.1,221.9,338.6,224,335.1C227.8,336.9,221.9,338.6,224,335.1z"/>
<path class="st2" d="M224,335.1c-4.6,7.5-3.7,13.2-13,6.7c-8-5.5-15.3-12.3-20.9-20.2c9-8.5,22.1-20.2,31-11.4
	C233.5,322.4,234,318.9,224,335.1C221.9,338.6,227.2,329.9,224,335.1z"/>
<path class="st13" d="M170.5,275.2c-29.1,16.3-48.2,38.2-73.4,58.6c-7.1-18.4,26.7-38.3,37.9-47.7c10.2-8.5,23.4-22.2,36.3-24.9
	C170.9,265.9,170.6,270.5,170.5,275.2C164.5,278.6,171.1,273.5,170.5,275.2z"/>
<path class="st9" d="M322.9,280c0.3-13.2-1.8-26.5-8.4-38.1c-13.6,6.9-9.8,1.4-18.9-7.9c5.5,0.7,41,8.6,41.5,10
	c3.1,9.9,4.3,20.3,3.4,30.6C339.4,286.1,333.2,280.7,322.9,280C323.1,272.3,328.4,280.4,322.9,280z"/>
<path class="st11" d="M298.1,336.9c-8.4-8.1-13.2-16.8-5-23.6c4.1-3.4,7.6-7.2,10.7-11.5c3.9,2.5,18.8,8.8,20.7,13.3
	C317.4,324.2,308.4,331.6,298.1,336.9C298,336.8,308.5,331.5,298.1,336.9z"/>
<path class="st12" d="M361.2,185.2c-2.6,7.1-7.2,18.4-15.2,15.9c2.7-4.6,4.6-9.5,5.6-14.7c-12.8,21.5-12.1,2.1-29.1,7.9
	c1.7-6.2,2.8-12.5,3.3-18.9C333.1,175,356.1,180.3,361.2,185.2C358.7,191.9,359.6,183.7,361.2,185.2z M336.4,190.1
	c0.7,7.1,9.7-2.8,2.5-2.8C338,188.3,337.2,189.2,336.4,190.1C336.5,191.5,336.4,188.3,336.4,190.1z"/>
<path class="st9" d="M411.7,346.3c-6.1,4.8-9.8,11.8-16.4,16.5c-12.8,9-8.8,8.3-20.9-1C381.4,356.5,404.8,336.9,411.7,346.3
	C409,348.4,410.1,344.1,411.7,346.3z"/>
<path class="st11" d="M361.2,185.2c-9.8-9.5-35.3-1.5-35.6-16.9c21.8,0.7,50.9,12.7,61,25.7C381.5,197.5,363.9,183.4,361.2,185.2
	C359.6,183.7,361.7,184.8,361.2,185.2z"/>
<path class="st8" d="M298.1,336.9c6.1-3.2,29.5-17.4,24-23.8c9.1,0.1,10.2,7.6,4.8,13.7C317.3,337.8,307.4,351.3,298.1,336.9
	C308.5,331.5,300,339.8,298.1,336.9z"/>
<path class="st2" d="M382.5,223.2c5.1-5.7,16.3,3.5,22.1,6.2c-11.1,7.1-29,13.4-41.8,7.3c16-7.4,13.8-10.7,31.1-4.6
	C393.9,228.9,384.5,224.8,382.5,223.2C385.6,219.7,385.7,225.7,382.5,223.2z"/>
<path class="st3" d="M170.3,220.5c0.1,11,12.3,23.4,1.3,29c-3.2,1.6-9.6-8.3-10.7-10.1C153.4,226.8,158.6,224.7,170.3,220.5
	C170.4,228,165.7,222.2,170.3,220.5z M165.1,228.2c-1.6-3.5-3.2-3.6-4.9-0.3C161.7,231.1,163.3,231.2,165.1,228.2
	C165.2,226.3,165,229.6,165.1,228.2z"/>
<path class="st3" d="M215.9,304.3c-12.2,8-24.9,25.3-32.5,6.6C194.6,306.5,208.6,293.1,215.9,304.3
	C209.6,308.4,214.5,302.2,215.9,304.3z"/>
<path class="st7" d="M339.9,281.1c1-13.8-0.6-25.1-3.1-38.6C350.8,240.6,356.8,282.6,339.9,281.1
	C340.2,276.7,342.3,281.3,339.9,281.1z"/>
<path class="st9" d="M382.3,372.4c-7.5,16-18.2,6.5-27.1-0.4C367.4,365.3,371.2,361.2,382.3,372.4
	C381.1,375,378.6,368.6,382.3,372.4z M370.7,371.4c-6.7,1.4,2.9,8.8,2.9,2.5C372.6,373.1,371.7,372.3,370.7,371.4
	C369.5,371.7,372.5,371.6,370.7,371.4z"/>
<path class="st11" d="M418.1,217.4c-4.3-1.1-12.9-4.4-13.8-9.8c-1.4-8.8,4-2.1,6.4-2.6c4.1-13.3,18.1,13.4,17.1,14.5
	C424.3,223.4,421.1,214.9,418.1,217.4C413.5,216.3,418.9,216.8,418.1,217.4z M420.7,215C421.1,214.6,420,214.6,420.7,215
	C420.8,214.9,420.6,214.9,420.7,215z"/>
<path class="st3" d="M188.5,228.9c2.2,10.2-3.1,20.3-11,7.3c-6.1-9.9-1.9-24.5-1.4-13.2C176.1,221.8,187.4,227.9,188.5,228.9
	C189.3,232.7,186.5,227.1,188.5,228.9z"/>
<path class="st11" d="M129.9,253.2c-19.9,8.8-0.8-10.4,10-15.7c1.2,4.1,3.1,8,5.4,11.6c-3.1,0.8-5.6,0-7.7-2.4
	c-4.1,7-7.5,7.3-10,0.9C128.4,249.4,129.1,251.3,129.9,253.2C128.7,253.7,129,251.4,129.9,253.2z M126.8,247.1
	C127.2,248.5,124.6,243.6,126.8,247.1C126.8,247.3,126.5,246.6,126.8,247.1z"/>
<path class="st12" d="M238.6,217.2c1.5-5,2.2-10.1,2.1-15.3c4.8-0.5,1.7,3.4,5.7,3.1c9.5-0.8-8.5-5.5,12.2-4.4
	C254.7,213.5,250.3,215,238.6,217.2C240.2,212.2,242.5,216.5,238.6,217.2z"/>
<path class="st3" d="M131,252c14.7-5.3,10.9-1.8,25.4,7C147.8,265.6,137.7,259.7,131,252C133.8,251,135.9,257.7,131,252z"/>
<path class="st3" d="M359.8,222.8c-9.8,5.6-20.8,7.5-31.7,3.8C342,218.8,343.8,216.2,359.8,222.8
	C349.9,228.4,354.6,220.6,359.8,222.8z"/>
<path class="st7" d="M405.1,342.3c-8.1,5.4-26.9,23.3-35.6,16.4C376.3,352.5,396.4,337.7,405.1,342.3
	C395.7,348.5,404.6,342,405.1,342.3z"/>
<path class="st11" d="M258.5,200.6c-10.5-0.6-16.7,9.9-18.8-5.7c6.9-0.8,13.8-1.3,20.7-1.4C259.8,195.9,259.2,198.3,258.5,200.6
	C255.5,200.5,259.5,198.5,258.5,200.6z"/>
<path class="st12" d="M258.6,214.5c4.3-9.6,5.1-20.2,19.4-13.5C272.2,210.5,268.6,212.3,258.6,214.5
	C260.6,210,261.2,213.9,258.6,214.5z"/>
<path class="st12" d="M202.1,226.8c0-13.5-7.4-18.7,10.6-19.5C216.4,219.2,214.5,225.2,202.1,226.8
	C202.1,221.3,205.5,226.3,202.1,226.8z M208.6,209.6c-5.3,0-5.3,8.2-0.1,8.1C213.7,217.6,214.2,209.6,208.6,209.6z"/>
<path class="st12" d="M284.6,213.2c2.7-3.7,5.1-7.6,7-11.7c3.1-0.2,11.9,1.4,16.3,1.8C300.4,211.5,295.6,213.7,284.6,213.2
	C287.3,209.5,287.9,213.3,284.6,213.2z"/>
<path class="st12" d="M332.9,209.2c-5.3,4.9-14.8,8.6-22,4.4C318.5,205.3,321,203.3,332.9,209.2
	C330.1,211.8,329.1,207.4,332.9,209.2z"/>
<path class="st11" d="M308,203.4c-1.8-0.2-12.8,1.5-13.3-0.1c-4.3-12.2,7.2-7.3,18-5.2C311.1,199.8,309.5,201.6,308,203.4
	C305.8,203.1,309.8,201.8,308,203.4z"/>
<path class="st11" d="M278,201c-4.9-0.5-9.9-0.6-14.8-0.4c0.4-11.9,9.2-6.9,18.8-6.4C280.6,196.5,279.3,198.7,278,201
	C276.3,200.2,279.6,199,278,201z"/>
<path class="st4" d="M332.3,320.2c-0.6-2.4-8.5-3.9-6.6-7c15.8-6.5,6.2-11.5,11.5-21.9C346.7,298.3,336.2,313.3,332.3,320.2
	C331.9,318.5,334.2,316.8,332.3,320.2z"/>
<path class="st11" d="M332.9,209.2c-4.2-2.1-10.8-3.8-15.5-4.1c4.8-9.5,12.5-3.5,21.5-1.1C336.8,205.8,334.9,207.5,332.9,209.2
	C329.1,207.4,335.1,207.9,332.9,209.2z"/>
<path class="st11" d="M346.6,213.1c7.1-8.3,13.7-1.4,22.4,3C362.5,222.6,354.4,215.4,346.6,213.1C348,211.5,352.8,215,346.6,213.1z"
	/>
<path class="st12" d="M195.6,212.2c1.3,4.5,2.1,16.3-2.7,18.3C192.6,229.2,183,202.8,195.6,212.2
	C196.3,214.8,194.7,211.5,195.6,212.2z"/>
<path class="st7" d="M369.2,363.9c-5.6,7.1-14.3,10.9-20.4,3.1C356.1,364.1,361.8,359.9,369.2,363.9
	C367.9,365.5,367.1,362.7,369.2,363.9z"/>
<path class="st11" d="M212.7,207.2c-1.8,0.1-12.1,1.9-13.1,3.6C194.2,199.4,210.2,196.9,212.7,207.2
	C208.3,207.4,212.1,204.9,212.7,207.2z"/>
<path class="st12" d="M346.6,213.1c6.2,1.8,12.2,3.9,18.1,6.5c-6.2,6-16,0-23.2-1.8C343.2,216.2,344.9,214.7,346.6,213.1
	C352.8,215,344.9,214.7,346.6,213.1z"/>
<path class="st12" d="M224.3,204.6c-0.4,3.1-1.4,19.3-7.5,17.5c0.4-5.3-0.2-10.5-2-15.6C218.1,205.9,221.2,205.3,224.3,204.6
	C223.6,210.6,221.1,204.8,224.3,204.6z"/>
<path class="st11" d="M224.3,204.6c-7.1,4.6-11.5,3.1-13.1-4.5c4.6-1.3,9.3-2.3,14-3.1C224.9,199.6,224.6,202.1,224.3,204.6
	C221.1,204.8,225.1,202.2,224.3,204.6z"/>
<path class="st3" d="M237,188.2c2.5-0.3,28.1-3.6,24,1.4C257.8,193.5,239.7,192.1,237,188.2C245.1,187.2,237.8,189.3,237,188.2z"/>
<path class="st11" d="M195.6,212.2c-7.9-5.8-4.2,10.7-12.2-3.5c3.6-1.5,7.4-2.8,11.2-3.8C194.9,207.3,195.3,209.8,195.6,212.2
	C194.7,211.5,195.8,209.7,195.6,212.2z"/>
<path class="st4" d="M339.9,281.1c2.5,0.2,4.9,0.5,7.4,0.7c-0.2,5-1.3,9.7-3.2,14.3C342.3,294.7,335.3,283.8,339.9,281.1
	C342.3,281.3,339.7,281.1,339.9,281.1z"/>
<path class="st3" d="M310.9,213.7c2.9,1.7,9.2,1.1,12.5,1.7c-5.8,3.3-14.2,6.5-21,6.1C305.3,219,308.2,216.4,310.9,213.7
	C313.5,215.2,308.2,216.4,310.9,213.7z"/>
<path class="st3" d="M238.6,217.2c3.9-0.9,7.8-1.4,11.7-1.8c-3.1,5.1-8.6,9.6-14.9,9.3C236.5,222.3,237.5,219.7,238.6,217.2
	C242.5,216.5,237.6,219.7,238.6,217.2z"/>
<path class="st12" d="M230.2,219c0.1-6.6-4.8-18.4,6.4-16.2C236.4,206.4,234.6,218.2,230.2,219C230.3,213.9,230.7,218.9,230.2,219z"
	/>
<path class="st3" d="M263.3,186.7c7.2-0.2,14.3,0.1,21.5,0.8C284,193.3,262.5,192.2,263.3,186.7
	C270.4,186.6,263.1,187.7,263.3,186.7z"/>
<path class="st3" d="M202.1,226.8c3.3-1.5,6.8-2.5,10.4-2.9c-1.4,6.8-4.3,10.1-11,11.1C201.7,232.2,201.9,229.5,202.1,226.8
	C205.5,226.3,201.9,229.4,202.1,226.8z"/>
<path class="st11" d="M175.9,218.1c-1.3,0.5-2.6,1-3.9,1.4c-0.6-7.9,4.7-7.3,11-10C187.2,215.5,184.8,218.4,175.9,218.1
	C174.6,218.7,178.9,217.1,175.9,218.1z"/>
<path class="st11" d="M170.3,220.5c-4.6,1.7-9,3.6-13.5,5.7c-1.3-6.7,8.9-9,14-11.2C170.7,216.9,170.5,218.7,170.3,220.5
	C165.7,222.2,170.5,218.7,170.3,220.5z"/>
<path class="st12" d="M175.9,218.1c3-1,6-2.1,9-3.1c1.9,4.5,3.1,9.1,3.6,13.9C187.4,227.9,178.3,218.4,175.9,218.1
	C178.9,217.1,177.3,218.3,175.9,218.1z"/>
<path class="st12" d="M275.9,213c4.2-5.8,4.3-14.9,13.2-11.4C287.5,204.3,280.9,216.4,275.9,213C278.6,209.1,276.8,213.6,275.9,213z
	"/>
<path class="st3" d="M295.1,188.5c5.4,1.1,16.5,1.3,21.2,4.2C315.4,197,294.4,194.7,295.1,188.5
	C297.8,189.1,294.9,189.6,295.1,188.5z"/>
<path class="st3" d="M322.4,194.3c4.6-1.6,16.1,3.9,20.2,5.6C340.8,203.7,319,198.9,322.4,194.3C323.9,193.8,321.9,195,322.4,194.3z
	"/>
<path class="st11" d="M236.6,202.9c-8.6-1.7-14.2-5.1,0.3-7.7C236.8,197.8,236.7,200.3,236.6,202.9
	C234.3,202.4,237.2,200.4,236.6,202.9z"/>
<path class="st11" d="M140.8,236.9c7.1-1.6,10.8,5.5,6.6,11C144.3,244.8,142.1,241.1,140.8,236.9C144,236.2,142.1,241.1,140.8,236.9
	z"/>
<path class="st4" d="M338.5,286.6c6.3,4.4,7.6,19.8-0.3,23.5c-1.1-6.4,4.8-9.8,0.7-17C337.2,289.9,335.8,291.1,338.5,286.6
	C341.2,288.5,337.8,287.7,338.5,286.6z"/>
<path class="st8" d="M313,307.6c-3.3-2.1-15.7-15.6-2.7-11.6C310.5,296,313.1,308.3,313,307.6C309.9,305.6,312.7,305.2,313,307.6z"
	/>
<path class="st3" d="M353.9,203.9c6.4,2.4,12.7,5.1,18.9,8.1C372.1,213.5,350,208.7,353.9,203.9
	C360.3,206.4,353.4,204.5,353.9,203.9z"/>
<path class="st11" d="M289.1,201.5c-2-0.3-4.1-0.6-6.1-0.9c0.2-6.5,3.3-8.4,9.3-5.5C291.2,197.2,290.1,199.4,289.1,201.5
	C287.1,200.8,290.5,199.6,289.1,201.5z"/>
<path class="st3" d="M284.6,213.2c3.2,0.1,6.4,0.2,9.6,0.3c-4.8,3-10,4.9-15.7,5.7C280.6,217.2,282.6,215.2,284.6,213.2
	C287.9,213.3,282.6,215.2,284.6,213.2z"/>
<path class="st11" d="M439.7,304c5.9,0.3,4.6,3.4,4.1,7.2C442.3,310.5,430.6,306.7,439.7,304C443.7,304.1,439.4,304.1,439.7,304z"/>
<path class="st2" d="M373.1,223.3c-4.5,3.2-9.4,5.5-14.7,7C361.6,226.8,367.7,217.9,373.1,223.3
	C368.6,226.5,371.9,222.1,373.1,223.3z"/>
<path class="st3" d="M225.4,190.1c7.3-4.6,11-4.1,11.1,1.7C230.3,196,226.6,195.4,225.4,190.1C228.7,189.1,225.9,191.2,225.4,190.1z
	"/>
<path class="st11" d="M382.5,223.2c2.1,1.6,11.4,5.6,11.4,9c-4.8-1.9-9.5-4-14.1-6.4C380.7,224.9,381.6,224.1,382.5,223.2
	C385.7,225.7,381.6,224.1,382.5,223.2z"/>
<path class="st11" d="M155.5,227c-3.9,1.9-8,3.5-12.1,5c3.6-3.5,7.7-6.5,12.2-8.8C155.6,224.4,155.6,225.7,155.5,227
	C151.4,228.5,155.6,225.7,155.5,227z"/>
<path class="st3" d="M258.6,214.5c2.6-0.3,5.3-0.5,7.9-0.8c-3.5,3.3-7.6,5.8-12.2,7.4C255.7,219,257.2,216.8,258.6,214.5
	C261.2,213.9,257.2,216.8,258.6,214.5z"/>
<path class="st3" d="M170.9,215c-4.9,2.1-9.3,4.9-14.1,7.1C155.7,218.6,172,209.2,170.9,215C166.8,216.8,171,214.4,170.9,215z"/>
<path class="st11" d="M373.1,223.3c-1.9-1.1-4-1.9-6.1-2.5c5.2-5.4,4.3-3.9,10.3-0.3C375.8,221.4,374.4,222.3,373.1,223.3
	C371.9,222.1,374.6,222.6,373.1,223.3z"/>
<path class="st9" d="M409.6,339.1c2.8-2,5.9-3.3,9.3-3.9C416.9,343.8,413.9,345.1,409.6,339.1C411.4,338.2,410.8,340.7,409.6,339.1z
	"/>
<path class="st3" d="M364.7,224.1c-3.4,5.8-9,7.5-15.3,7.8C351.9,230.9,362.7,223.2,364.7,224.1
	C363.4,226.2,364.3,223.9,364.7,224.1z"/>
<path class="st11" d="M410.1,330.2c1.2,8.5-0.9,10.3-6.5,5.6C405.7,333.9,407.9,332,410.1,330.2C411.2,333.1,408,332,410.1,330.2z"
	/>
<path class="st3" d="M369,216.1c-5.9-3-12-5.6-18.2-7.9C349.8,209.7,375.5,210.9,369,216.1C363.1,213.1,369.6,215.7,369,216.1z"/>
<path class="st3" d="M286.9,188.1c2.5,0.2,5,0.3,7.6,0.5C293.6,193.3,284.6,192.6,286.9,188.1C289.4,187.4,286.4,188.9,286.9,188.1z
	"/>
<path class="st9" d="M454.1,303.9c0.9,1.2,1.8,2.4,2.6,3.6c-2.3,0.9-2.8-3.7-5.3-2.2c-4,2.5,3.1,2.8,3.5,3.6
	C451,315.5,445.1,299.7,454.1,303.9C454.6,305.3,453,303.4,454.1,303.9z"/>
<path class="st11" d="M454.2,268.5c-2.4-1-2.9-2.6-1.3-4.6C454.9,262,459.7,267.2,454.2,268.5C453.3,268.1,454.9,268.4,454.2,268.5z
	"/>
<path class="st11" d="M160.1,244c0.2,1.7-0.8,2.8-3,3.4C152.2,246.7,157.8,240.1,160.1,244C160.1,244.3,159.9,243.7,160.1,244z"/>
<path class="st13" d="M361.1,353.5c6.8-3.3-11.2,6.6-12.3,5.2c4.2-2.2,14-10,19-9.7C369.6,346.8,362.1,352.9,361.1,353.5z"/>
<path class="st11" d="M122.9,264.9c-0.9,0.8-1.8,1.5-2.7,2.3c-2.8-0.9-3.1-2.6-0.9-5C120.5,263,121.7,264,122.9,264.9
	C122.4,266.2,121.7,264,122.9,264.9z"/>
<path class="st11" d="M339.5,210.1c1.7-2.2,3.2-6,6.6-3.6C343.7,211.5,341.5,212.7,339.5,210.1C340.2,209.2,339.7,210.5,339.5,210.1
	z"/>
<path class="st3" d="M182.9,209.5c-3.6,1.6-7.3,3.2-10.9,4.8C171.5,210.3,182.7,206.7,182.9,209.5
	C179.2,211.1,182.8,208.2,182.9,209.5z"/>
<path class="st7" d="M438.7,304.3c-0.9,4.5-3.3,5.3-7.3,2.4C433.8,305.8,436.3,305.1,438.7,304.3C437.7,305.4,436,303.9,438.7,304.3
	z"/>
<path class="st2" d="M377.2,220.5c-1.4-0.8-2.8-1.7-4.2-2.5c1.9-2.6,4.2-2.5,7,0.3C379.1,219,378.2,219.7,377.2,220.5
	C375.8,219.6,378.3,220,377.2,220.5z"/>
<path class="st3" d="M216.9,222.1c4.9-1.1,4.6,1.2-1,6.9C216.2,226.7,216.6,224.4,216.9,222.1C217.8,222.4,216.7,224.4,216.9,222.1z
	"/>
<path class="st3" d="M275.9,213c5.7,0,4.3,1.6-4,4.6C273.2,216,274.5,214.5,275.9,213C276.8,213.6,274.5,214.5,275.9,213z"/>
<path class="st3" d="M345.9,201.1c1.3,0.5,2.7,1.1,4,1.6C348,205.2,342.5,204.4,345.9,201.1C347.3,201.5,345.3,201.7,345.9,201.1z"
	/>
<path class="st9" d="M457.6,297c3.3-1.6,5.7-0.7,7,2.6C462,299.6,459.7,298.7,457.6,297C459,295.1,459.7,297.5,457.6,297z"/>
<path class="st3" d="M193,230.5c4-2.4,4.3-0.2,0.9,6.7C193.5,235,193.2,232.7,193,230.5C193.7,230.2,193.2,232.7,193,230.5z"/>
<path class="st9" d="M441.3,315.2c0.6,1.7,1.6,3.3,2.9,4.6C438.9,320.5,440.4,311.7,441.3,315.2
	C440.9,316.4,441.2,314.9,441.3,315.2z"/>
<path class="st9" d="M443.8,311.1c0.5-4.1,3.6-1.2,3.6,2C448.4,313.1,443.7,310.8,443.8,311.1C443.9,310.5,444.3,312.4,443.8,311.1z
	"/>
<path class="st12" d="M364.7,224.1c-3.5-1.7,2.8-4.7,4.1-2.8C367.4,222.2,366,223.2,364.7,224.1
	C364.3,223.9,366.5,223.9,364.7,224.1z"/>
<path class="st3" d="M374,212.4c1.1,0.5,2.1,1.1,3.2,1.6C375.6,215.7,371.1,214.7,374,212.4C375.1,212.9,373.5,212.8,374,212.4z"/>
<path class="st3" d="M375,216.3c-1.2,2.1-2.6,2.2-4.1,0.4C372.1,214.9,373.4,214.8,375,216.3C374.3,216.8,373.5,215.8,375,216.3z"/>
<path class="st12" d="M339.5,210.1c0.6,1.9,7.2,1.9-3.6,3.6C337.1,212.5,338.3,211.3,339.5,210.1
	C339.7,210.5,338.3,211.3,339.5,210.1z"/>
<path class="st9" d="M448.1,313.5C454,312.9,448.2,314.4,448.1,313.5C449.1,313.4,448.2,314.5,448.1,313.5z"/>
<path class="st3" d="M230.2,219C234.7,218.2,227.8,225.5,230.2,219C230.7,218.9,229.9,219.9,230.2,219z"/>
<path class="st13" d="M170.8,279c-0.7-1.2-0.4-2.5-0.3-3.7C171.3,276.4,170.9,277.7,170.8,279z"/>
<path class="st4" d="M327.8,370.1c0.3-0.5,0.5-1.1,1.3-0.8C329.2,370.4,328.8,370.7,327.8,370.1z"/>
<path class="st11" d="M361.1,353.5c0.4-0.3,0.8-0.6,1.2-0.9C362.1,353.3,361.7,353.6,361.1,353.5z"/>
<path class="st13" d="M367.8,349c0-0.8,0.4-0.9,1.1-0.7C368.8,348.9,368.4,349.1,367.8,349z"/>
<path class="st12" d="M335.9,213.6C335.7,213.9,335.6,214.2,335.9,213.6C335.8,213.7,335.9,213.6,335.9,213.6z"/>
<path class="st2" d="M456.1,268.1c0.2-0.3,0.3-0.5,0.7-0.4C456.8,268,456.5,268.1,456.1,268.1z"/>
<path class="st3" d="M376.3,215.3c0.1,0,0.2,0.1,0.3,0.1C376.5,215.5,376.4,215.4,376.3,215.3z"/>
<path class="st11" d="M138,133.8C139.6,133.6,138.7,134.2,138,133.8C138.5,133.7,138.5,134.1,138,133.8z"/>
<path class="st11" d="M85,158.8C85.1,156.3,86.8,160.6,85,158.8C85,158.4,85.1,158.9,85,158.8z"/>
<path class="st11" d="M140.1,133.5C139,133.9,139.4,132.7,140.1,133.5C139.9,133.6,140,133.4,140.1,133.5z"/>
<path class="st11" d="M85.3,159.1C84.3,159.7,84.7,158.4,85.3,159.1C85.1,159.2,85.2,159,85.3,159.1z"/>
<path class="st11" d="M393.9,200C389.7,170.9,415.7,206.1,393.9,200C393.8,198.8,394.6,200.2,393.9,200z"/>
<path class="st11" d="M499.1,262.7c-5.3,0-5.4-8.1-0.2-8.1C504.3,254.5,504.4,262.7,499.1,262.7z"/>
<path class="st11" d="M452.1,230.4c-5.5,0.1-5.6-7.9-0.3-8.1C457.1,222.1,457.5,230.3,452.1,230.4z"/>
<path class="st11" d="M483.5,274.1c-6.2,0.3,1.7-10.1,3.2-2.8C486.5,273,485.4,273.9,483.5,274.1C482.2,274.1,485.3,274,483.5,274.1
	z"/>
<path class="st11" d="M513.3,254.6c0.8-0.9,1.7-1.7,2.5-2.6C522.8,252.2,513.8,261.8,513.3,254.6C513.4,253,513.4,256.2,513.3,254.6
	z"/>
<path class="st11" d="M434.2,235.9c6.7,0.9-2.4,9.4-2.8,2.6C432.3,237.6,433.2,236.8,434.2,235.9
	C435.5,236.1,432.5,236.1,434.2,235.9z"/>
<path class="st11" d="M456.9,245.6c-7.2,0.4,2.5-10.3,2.6-2.6C458.6,243.8,457.7,244.7,456.9,245.6
	C455.3,245.7,458.9,245.6,456.9,245.6z"/>
<path class="st11" d="M471.6,254.5c-0.9,0.8-1.7,1.7-2.6,2.5c-3.4-1.7-3.3-3.4,0-5.1C469.9,252.8,470.8,253.7,471.6,254.5
	C471.4,256.1,471.4,253,471.6,254.5z"/>
<path class="st11" d="M404.2,220.8c0.9-1,1.8-2,2.7-3C413.4,218.1,405.2,227.2,404.2,220.8C404.3,218.7,404.4,221.9,404.2,220.8z"/>
<path class="st11" d="M449.7,247.5c-0.9,0.9-1.8,1.7-2.8,2.6C440,249.7,449.4,240.2,449.7,247.5
	C449.5,249.2,449.7,245.9,449.7,247.5z"/>
<path class="st11" d="M486.4,256.1c7.1,1-2.9,9.4-2.8,2.5C484.6,257.8,485.5,256.9,486.4,256.1C487.7,256.3,484.6,256.2,486.4,256.1
	z"/>
<path class="st11" d="M505.8,271.3c-3.4-1.5-3.5-3.1-0.3-5C508.9,267.8,509,269.4,505.8,271.3C504.3,271.1,507.2,271,505.8,271.3z"
	/>
<path class="st11" d="M464,276.3c0.8-0.9,1.6-1.7,2.4-2.6C474,273.3,464,283.9,464,276.3C464,274.7,464,278.1,464,276.3z"/>
<path class="st11" d="M438,225.5c-3.3-1.6-3.2-3.3,0.2-5.1C441.5,222.2,441.5,223.9,438,225.5C436.7,225.3,439.7,225.4,438,225.5z"
	/>
<path class="st11" d="M400.3,213.7c-0.6,7.2-9.5-2.9-2.4-2.6C398.6,211.9,399.5,212.8,400.3,213.7
	C400.1,215.2,400.2,212,400.3,213.7z"/>
<path class="st9" d="M467.2,294.1c-0.5,1.2-0.9,2.4-1.4,3.5C464.1,296,465.1,294.2,467.2,294.1C467.8,295.7,466.4,294.2,467.2,294.1
	z"/>
<path class="st1" d="M409.1,231.7c1.8,0.9,3.7,1.8,5.5,2.7C412.3,231.1,410.5,230.1,409.1,231.7z"/>
<path class="st1" d="M415.9,235.3C418,235.9,416.2,235.4,415.9,235.3C416.2,235.4,415.9,235.3,415.9,235.3z"/>
<path class="st1" d="M487.9,246.5C487.3,247.7,487.3,247.9,487.9,246.5C487.7,246.8,487.9,246.5,487.9,246.5z"/>
<path class="st1" d="M451.7,233.7C452.5,232.5,452.4,234.4,451.7,233.7C451.9,233.5,451.8,233.8,451.7,233.7z"/>
<path class="st1" d="M487.9,246.5C488,246.4,487.9,246.5,487.9,246.5L487.9,246.5z"/>
<path class="st1" d="M416,235.3C415.5,235,416,235.3,416,235.3C415.9,235.2,416,235.3,416,235.3z"/>
<path class="st1" d="M452,234C451.5,235.2,451.2,233.3,452,234C451.9,234.2,451.9,233.9,452,234z"/>
<path class="st11" d="M96,305.4c0.3-6.8,9.3,2.4,2.6,2.6C97.8,307.1,96.9,306.2,96,305.4C96.1,304.1,96.2,307.2,96,305.4z"/>
<path class="st11" d="M160.4,210.1c-7.6-0.3,1.9-9.3,2.3-2.7C161.9,208.3,161.2,209.2,160.4,210.1
	C158.7,210,161.8,209.8,160.4,210.1z"/>
<path class="st11" d="M101,286.8c-1.7,3-3.3,2.9-4.9-0.2C97.7,283,99.4,283.1,101,286.8C100.8,288,100.9,285,101,286.8z"/>
<path class="st11" d="M112,277.9c3.4,1.5,3.5,3.1,0.1,4.9C109,281.1,108.9,279.5,112,277.9C113.7,277.9,110.8,278,112,277.9z"/>
<path class="st11" d="M112.1,266.2c-0.9,6.6-9.1-2.9-2.4-2.8C110.5,264.3,111.3,265.2,112.1,266.2
	C111.9,267.5,112.1,264.4,112.1,266.2z"/>
<path class="st11" d="M362,171c1.1,1.9-0.2,7.7-3.6,3.9C355.7,171.8,359.7,169.6,362,171C362.8,172.4,361.2,170.4,362,171z"/>
<path class="st11" d="M103.5,261.4c-0.8,6.9-9.1-2.8-2.5-2.7C101.9,259.6,102.7,260.5,103.5,261.4
	C103.4,262.8,103.5,259.7,103.5,261.4z"/>
<path class="st11" d="M214.2,192.3c-0.3-1.3-0.5-2.5-0.8-3.8C216.4,183.1,221.7,196,214.2,192.3C213,191.2,215.8,193,214.2,192.3z"
	/>
<path class="st11" d="M179.2,203.1c-1.8-0.4-5.5-5.1-0.7-5.2C182.2,197.9,181.2,202.3,179.2,203.1
	C177.7,202.8,179.7,202.9,179.2,203.1z"/>
<path class="st11" d="M93.5,342.1c-1.8,2.6-4.2,3.7-7.3,3.4C82.9,343.9,92.2,341.5,93.5,342.1C92.7,344.2,91.2,341.1,93.5,342.1z"/>
<path class="st14" d="M115,256.6c1.3,0.7,1.9,1.5,2.5,3.1C116.1,259,115.7,258.4,115,256.6z"/>
<path class="st1" d="M126.1,235.4c0.3-0.2,0.6-0.3,1-0.5C127.2,235.9,126.6,235.6,126.1,235.4z"/>
<path class="st14" d="M114.2,255.7C114.6,255.5,114.3,256.1,114.2,255.7C114.2,255.7,114.2,255.7,114.2,255.7z"/>
<path class="st1" d="M128,234.7C127.7,234.4,128.3,234.5,128,234.7C128,234.7,128,234.7,128,234.7z"/>
<path class="st8" d="M354.5,371.8c2.4,0.4,12,8.9,14,10.4C339,404,285.1,421.1,248.2,412c0-2.2,2.5-20.8,4.1-22.1
	c13.7,1.9,27.8,2.8,41.6,1.5C308.1,389.9,345.5,384.3,354.5,371.8C354.7,371.8,353.9,372.6,354.5,371.8z M275.9,405.3
	c8.4,0,8.2-12.8,0-12.7C267.6,392.6,267.5,405.3,275.9,405.3C279.4,405.3,272.2,405.3,275.9,405.3z M312.3,390.8
	c-5.4,0-5.3,8.2,0,8.2C317.7,398.9,317.7,390.8,312.3,390.8z"/>
<path class="st11" d="M356.3,468.2c-9.9-0.1,0.9-9.2,4.8-4C363.8,467.8,359.2,473.1,356.3,468.2C355.3,468.2,357,469.4,356.3,468.2z
	"/>
<path class="st11" d="M288.9,527.1c-0.5-3-5.5-11.3,0.6-12C291.5,519.2,291.3,523.2,288.9,527.1
	C288.6,525.3,291.3,524.1,288.9,527.1z"/>
<path class="st11" d="M315.7,464.6c-0.5,4.5-6.1-0.4-5.1-1.6C311.9,461.3,315.4,462.7,315.7,464.6
	C315.6,465.3,315.6,463.8,315.7,464.6z"/>
<path class="st11" d="M356.1,456.6c1.8,0.9,1.9,1.9,0,2.9C354.3,458.6,354.3,457.6,356.1,456.6C356.9,456.7,355.3,456.8,356.1,456.6
	z"/>
<path class="st10" d="M334,413.2C337,410.7,337.1,415.8,334,413.2C334.8,412.6,334.1,413.3,334,413.2z"/>
<path class="st10" d="M334.3,413.4C333.7,417.7,333.8,413.1,334.3,413.4C334.2,414,334.2,413.4,334.3,413.4z"/>
<path class="st10" d="M337.7,413.3C337.7,413.3,335.3,409.7,337.7,413.3C337.1,413,337.7,413.3,337.7,413.3z"/>
<path class="st5" d="M248.2,410.7C248.2,413.8,247.5,411.2,248.2,410.7C248.2,411.1,247.7,411,248.2,410.7z"/>
<path class="st10" d="M337.7,413.3C338.1,413.9,338.1,414.1,337.7,413.3C337.8,413.5,337.7,413.3,337.7,413.3z"/>
<path class="st10" d="M336.4,413.3C336.9,413.9,336.4,413.3,336.4,413.3C336.5,413.4,336.4,413.3,336.4,413.3z"/>
<path class="st6" d="M248.2,410.7c-12.2,9.2-109.9-24.7-104.3-38c4.1-9.8,96,14.5,108.1,17.3C250.7,396.9,249.4,403.8,248.2,410.7
	C247.7,411,249.4,403.8,248.2,410.7z M162.7,379c0.8-0.8,1.7-1.7,2.5-2.5C165.2,369.6,155.2,378.2,162.7,379
	C164.2,378.9,161,378.8,162.7,379z"/>
<path class="st11" d="M206.1,381.2C195.1,383.5,211.1,371.1,206.1,381.2C204.4,381.6,206.7,380,206.1,381.2z"/>
<path class="st9" d="M435.4,319c0.6,0.3,1,7.7,3.6,3.9c2-2.8-5.5-5-4.4-7.4c2.4,0.3,9.6,7.3,4.3,9.4
	C435.4,326.3,432,320.5,435.4,319C436.4,319.6,434.6,319.4,435.4,319z"/>
<path class="st11" d="M260.5,495.9c-0.8,2.5-1.7,2.4-2.6-0.3C258.8,493.2,259.7,493.3,260.5,495.9
	C260.3,496.6,260.4,494.9,260.5,495.9z"/>
<path class="st11" d="M224.5,451.2c-0.8,2.6-1.7,2.6-2.6,0C222.8,448.7,223.7,448.6,224.5,451.2C224.4,452,224.4,450.3,224.5,451.2z
	"/>
<path class="st11" d="M409.2,387.5c-0.9,2.5-1.8,2.5-2.6,0.1C407.4,384.9,408.3,384.9,409.2,387.5
	C409.1,388.4,409.1,386.6,409.2,387.5z"/>
<path class="st11" d="M381.3,561.1c1.7-1.3,3.3-1.3,4.8-1.2c1,0.1,2,0.6,1.9,1.7c-0.2,1.2-1.3,1.3-2.3,1
	C384.3,562.2,382.9,561.6,381.3,561.1z"/>
<path class="st13" d="M348.2,359.5C347,361.5,346.7,357.8,348.2,359.5C348,359.9,348.1,359.4,348.2,359.5z"/>
<path class="st13" d="M347.3,359.9C346.2,361.3,346.3,358.9,347.3,359.9C347,360.2,347.2,359.8,347.3,359.9z"/>
<path class="st13" d="M349.1,359.1C346.9,360.1,348.4,358.3,349.1,359.1C348.8,359.2,349,359,349.1,359.1z"/>
<path class="st13" d="M345.3,360.9C344.5,361.4,344.6,360.4,345.3,360.9C345.2,361,345.2,360.8,345.3,360.9z"/>
<path class="st11" d="M362.9,200.5c0-5.3,8-5.6,8.1-0.3C371.1,205.7,362.9,206,362.9,200.5z"/>
<path class="st11" d="M389,200.5c-0.1,5.2-8.2,5.4-8.1-0.1C380.9,195,389.1,195.1,389,200.5z"/>
<path class="st11" d="M304.1,181.8c-0.9-0.8-1.7-1.6-2.6-2.4C301.4,173.9,311.1,179.6,304.1,181.8
	C302.4,181.7,305.2,181.4,304.1,181.8z"/>
<path class="st11" d="M256.2,181.8c-3.2-1.4-3.4-3.1-0.4-4.9C259.3,178.3,259.4,179.9,256.2,181.8
	C254.5,181.8,257.5,181.6,256.2,181.8z"/>
<path class="st1" d="M223.9,189C222.4,187.9,225,188.1,223.9,189C223.6,188.8,224,188.9,223.9,189z"/>
<path class="st1" d="M223.3,187.5C223.3,187.3,223.3,187.3,223.3,187.5L223.3,187.5z"/>
<path class="st1" d="M377.1,206.6C377.3,206.9,376.7,206.9,377.1,206.6C377.1,206.6,377,206.6,377.1,206.6z"/>
<path class="st8" d="M316.2,298c3.5,1.2,2.7,3.1,4.9,5.6c6,6.9,11.5-5,7.8-4.9c-1.1,1.3-1.8,2.8-2.2,4.5c-10.8,7.2,8.7-24.1,7.2-4
	C328.4,310.3,310.9,309.4,316.2,298C317,298.2,315.2,300.3,316.2,298z"/>
<path class="st8" d="M334.1,298.7c-8.2-15.8-12.5,8-7.3,4.5c0.4-1.7,1.1-3.2,2.2-4.5c3.7-0.1-1.8,11.8-7.8,4.9
	c-3-3.5-2.6-5.6-0.6-9.2C324.9,286.1,341.8,293.2,334.1,298.7C331.9,294.5,335.3,297.8,334.1,298.7z"/>
<path class="st8" d="M316.2,298c-3.4,7.3,7.2,11.8,12.5,10.6c-2.7,13.4-19.2-2.5-17.8-12.3C312.7,296.8,314.5,297.4,316.2,298
	C315.2,300.3,314.5,297.3,316.2,298z"/>
<path class="st8" d="M338.5,286.6c-0.4,1.2-0.9,2.5-1.3,3.7c-9.6-4.4-15.6,2.1-14.4-9.6C324.5,285.5,337.6,279.9,338.5,286.6
	C337.8,287.7,338.5,286.4,338.5,286.6z"/>
<path class="st8" d="M322,287.9c4.8-1.7,17.7-1.5,13.9,5.8c-8.1-5.6-7.7-0.2-15-0.9C321.4,291.2,321.7,289.5,322,287.9
	C327,286.2,321.7,289.5,322,287.9z"/>
<path class="st8" d="M338.2,285.7c-4.8-2.9-9.4-3.5-14.9-2.9c-0.5-0.9-0.6-1.9-0.4-2.9c5.5,0.2,11,0.7,16.5,1.3
	C340.3,284.2,339.9,285.7,338.2,285.7C334.6,283.6,338.3,285.7,338.2,285.7z"/>
<path class="st15" d="M310.8,296.2c-0.2-0.1-0.4-0.2-0.6-0.3C310.5,296.1,310.7,296.1,310.8,296.2z"/>
<path class="st11" d="M336.4,190.1c0.8-0.9,1.7-1.9,2.5-2.8C346.1,187.3,337,197.3,336.4,190.1C336.4,188.3,336.5,191.5,336.4,190.1
	z"/>
<path class="st11" d="M165.1,228.2c-1.8,3-3.5,3-4.9-0.3C161.9,224.6,163.5,224.7,165.1,228.2C165,229.6,165.2,226.3,165.1,228.2z"
	/>
<path class="st11" d="M370.7,371.4c1,0.8,1.9,1.6,2.9,2.5C373.6,380.3,363.9,372.8,370.7,371.4C372.5,371.6,369.5,371.7,370.7,371.4
	z"/>
<path class="st1" d="M420.7,215C420,214.6,421.1,214.6,420.7,215C420.6,214.9,420.8,214.9,420.7,215z"/>
<path class="st11" d="M178.6,220.4c3.2,0.2,3.3,5.6-0.5,5C175.3,223.6,175.5,222,178.6,220.4C180.6,220.6,177.1,220.7,178.6,220.4z"
	/>
<path class="st1" d="M126.8,247.1C124.8,244,127.6,246.6,126.8,247.1C126.5,246.6,126.9,247,126.8,247.1z"/>
<path class="st1" d="M127.3,246.8C127.8,247.8,126.1,247.4,127.3,246.8C127.4,247,127.1,246.9,127.3,246.8z"/>
<path class="st11" d="M208.6,209.6c5.5,0,5.1,8-0.1,8.1C203.4,217.8,203.3,209.6,208.6,209.6z"/>
<path class="st4" d="M326.4,312.9c0.9-3.6,6.9-15.7,9.6-17.9C343.4,302,333.5,312.2,326.4,312.9
	C326.8,311.3,330.6,312.5,326.4,312.9z"/>
<path class="st10" d="M338.2,285.7C338.8,285.5,338.5,286.5,338.2,285.7C338.3,285.7,338.2,285.9,338.2,285.7z"/>
<path class="st11" d="M275.9,405.3c-8.4,0-8.3-12.6,0-12.7C284.1,392.5,284.2,405.3,275.9,405.3
	C272.2,405.3,279.4,405.3,275.9,405.3z"/>
<path class="st11" d="M312.3,390.8c5.4,0,5.4,8.1,0,8.2C307,399,306.9,390.8,312.3,390.8z"/>
<path class="st11" d="M162.7,379c-7.4-0.8,2.6-9.3,2.5-2.5C164.3,377.3,163.5,378.2,162.7,379C161,378.8,164.2,378.9,162.7,379z"/>
<path class="st4" d="M334.1,299.2c0.4,5-0.9,7.4-4.5,8.9C331.1,305.1,332.6,302.2,334.1,299.2z"/>
</svg>
