<?xml version="1.0" encoding="utf-8"?>
<!-- Generator: Adobe Illustrator 17.0.0, SVG Export Plug-In . SVG Version: 6.00 Build 0)  -->
<!DOCTYPE svg PUBLIC "-//W3C//DTD SVG 1.1//EN" "http://www.w3.org/Graphics/SVG/1.1/DTD/svg11.dtd">
<svg version="1.1" id="Capa_1" xmlns="http://www.w3.org/2000/svg" xmlns:xlink="http://www.w3.org/1999/xlink" x="0px" y="0px"
	 width="560px" height="560px" viewBox="0 0 560 560" style="enable-background:new 0 0 560 560;" xml:space="preserve">
<style type="text/css">
	.st0{fill:#64A253;}
	.st1{fill:#FFFFFF;}
</style>
<g>
	<circle class="st0" cx="280.1" cy="280" r="280"/>
	<g>
		<path class="st1" d="M336.8,97.4c3.9,4.5,1.6,9.4,0.8,14.1c-4.6,27.1-9.3,54.2-14.2,81.3c-0.4,2.3-0.2,3.9,1,6
			c4.9,9.1-0.9,19.2-11.3,19.8c-3.3,0.2-5.5,1.3-7.7,3.6c-11,10.8-21.9,21.7-33.4,32c-4.6,4.1-5.8,8-3.4,13.4c0.9,2,1.4,4.1,2.2,6.9
			c9.3-2.3,18.9-3.6,27.7-6.9c13.5-5,24.7-3.2,36,6.1c10.9,9,23.2,16.2,34.9,24.3c9,6.3,11.2,15.7,5.6,23.8
			c-5.4,7.8-15.4,9-24.3,2.9c-11.5-7.9-23.1-15.8-34.5-23.9c-3-2.1-5.6-2.5-9.3-1.6c-19.8,5.2-39.7,10.3-59.7,14.7
			c-12,2.7-18.1-1-23.9-12.7c-4.7,4.5-11.4,8.2-13.3,13.5c-3.3,9.2-8.9,12.3-17.2,16.6c-12.7,6.6-22.6,18.5-20.1,35.1
			c0.9,5.7,3.8,11,6,16.5c5.1,13.2,10.8,26.1,12.4,40.4c1.2,10.7-0.1,21.1-3,31.4c-0.9,3.1-2.9,5.1-6.1,4.2c-3.2-0.9-5-3.2-3.9-6.9
			c6.7-22.5,0.5-43.1-8.8-63.6c-6-13.3-10.9-27.2-4.2-42c4.1-9,11.1-15.6,18.6-22.2c-6.4-17.2-12.7-34.5-19.5-51.7
			c-2.8-7.2-2.1-13.2,2.4-19.6c9.5-13.6,18.5-27.5,27.8-41.2c8.6-12.7,20.1-19.9,36.1-19.7c27.2,0.3,54.5,0.1,82.4,0.1
			c2-11,4.1-21.9,6-32.8c3.3-18.6,6.5-37.3,9.6-56c0.4-2.3,2-3.7,2.5-5.8C332.8,97.4,334.8,97.4,336.8,97.4z M203.1,246.5
			c-4.2,6.3-7.9,11.7-11.5,17.2c-0.6,1-1.5,1.8-0.9,3.2c4.7,12.3,9.3,24.6,14.7,38.8c4.5-5.2,8-9.3,11.7-13.2
			c1.4-1.6,2.4-2.6,1.4-5.1C213.2,274.1,208.3,260.7,203.1,246.5z M290.1,218.9c-10,0-22.4,0-35.1,0c2.7,9.7,5.3,19.1,8.4,30.1
			C273.1,238,282.1,227.9,290.1,218.9z"/>
		<path class="st1" d="M304.2,462.6c12.7-17.6,22.8-36.6,40.3-49.3c10-7.2,13.1-17.3,15.4-28.4c2.8-13.8,8.7-26.6,13.2-39.9
			c0.5-1.5,2.3-2.7,3.6-3.8c7.6-6.8,15.2-13.6,23.1-20.1c5.5-4.5,3.3-10.8,4.1-16.2c0.9-6.3,2.6-11.8,6-17.2
			c11.8-18.5,23.3-37.2,34.9-55.8c0.8-1.3,1.7-2.6,3.4-5.1c0,79.5,0,157.5,0,235.9C400.2,462.6,352.6,462.6,304.2,462.6z"/>
		<path class="st1" d="M196.2,148.4c0-18,14.7-32.8,32.6-32.9c18-0.1,32.9,14.5,33.1,32.5c0.2,18.1-14.7,33.2-32.9,33.3
			C211.3,181.3,196.2,166.3,196.2,148.4z"/>
		<path class="st1" d="M248.1,324.6c13.5-3.4,25.9-6.6,38.4-9.7c0.9-0.2,2.3-0.4,2.9,0.1c7.5,6.5,17.9,9.8,21.6,20.6
			c4.7,13.7,10.4,27,15.1,40.7c1.8,5.5,3.9,11.4,1.6,17.3c-2.4,6.1-8.6,9.9-15.2,9.6c-7.3-0.4-12.4-4.1-15-10.9
			c-4.7-12.2-9.2-24.4-13.6-36.7c-1.5-4.3-3.9-7.5-7.6-10.2C266.9,338.9,257.9,331.9,248.1,324.6z"/>
	</g>
</g>
</svg>
