<?xml version="1.0" encoding="utf-8"?>
<!-- Generator: Adobe Illustrator 17.0.0, SVG Export Plug-In . SVG Version: 6.00 Build 0)  -->
<!DOCTYPE svg PUBLIC "-//W3C//DTD SVG 1.1//EN" "http://www.w3.org/Graphics/SVG/1.1/DTD/svg11.dtd">
<svg version="1.1" id="Capa_1" xmlns="http://www.w3.org/2000/svg" xmlns:xlink="http://www.w3.org/1999/xlink" x="0px" y="0px"
	 width="756.3px" height="541.6px" viewBox="0 0 756.3 541.6" style="enable-background:new 0 0 756.3 541.6;" xml:space="preserve"
	>
<style type="text/css">
	.st0{fill:#34BA87;}
	.st1{fill:#FFFFFF;}
	.st2{fill:#FCFCFC;}
</style>
<path class="st0" d="M583.8,185.3c0,102.4-92.1,185.3-205.7,185.3c-113.6,0-205.7-83-205.7-185.3C172.4,83,264.5,0,378.1,0
	C491.8,0,583.8,83,583.8,185.3z"/>
<g>
	<path class="st1" d="M438.4,172.6L392.6,264c-2.6,5.2-8.4,8.4-14.5,8.4s-11.8-3.2-14.3-8.4l-45.9-91.5c-3.3-6.5-4.2-13.9-4.2-21.2
		c0-33.4,28.8-60.5,64.4-60.5s64.4,27.1,64.4,60.5C442.5,158.6,441.7,166.1,438.4,172.6z M378.1,121.2c-17.7,0-32.2,13.6-32.2,30.3
		s14.5,30.3,32.2,30.3s32.2-13.6,32.2-30.3S395.9,121.2,378.1,121.2z"/>
</g>
<g>
	<path class="st0" d="M756.3,471.9c0,38.5-28.4,69.7-63.5,69.7H63.5C28.4,541.6,0,510.4,0,471.9l0,0c0-38.5,28.4-69.7,63.5-69.7
		h629.2C727.8,402.2,756.3,433.4,756.3,471.9L756.3,471.9z"/>
	<g>
		<path class="st2" d="M124.5,505.7c-4.1,2-12.2,4.1-22.6,4.1c-24.1,0-42.3-15.2-42.3-43.3c0-26.8,18.2-45,44.7-45
			c10.7,0,17.4,2.3,20.3,3.8l-2.7,9c-4.2-2-10.2-3.6-17.3-3.6c-20.1,0-33.4,12.8-33.4,35.3c0,21,12.1,34.4,32.9,34.4
			c6.7,0,13.6-1.4,18-3.6L124.5,505.7z"/>
		<path class="st2" d="M193.7,477.2c0,22.7-15.8,32.7-30.6,32.7c-16.6,0-29.5-12.2-29.5-31.6c0-20.6,13.5-32.7,30.5-32.7
			C181.7,445.6,193.7,458.4,193.7,477.2z M144.9,477.9c0,13.5,7.8,23.6,18.7,23.6c10.7,0,18.7-10,18.7-23.9
			c0-10.4-5.2-23.6-18.4-23.6C150.6,454,144.9,466.2,144.9,477.9z"/>
		<path class="st2" d="M207.8,463.7c0-6.4-0.1-11.6-0.5-16.6h9.8l0.5,9.9h0.4c3.4-5.8,9.1-11.3,19.3-11.3c8.4,0,14.7,5.1,17.4,12.3
			h0.3c1.9-3.4,4.3-6.1,6.9-8c3.7-2.8,7.8-4.3,13.6-4.3c8.1,0,20.2,5.3,20.2,26.7v36.2h-10.9v-34.8c0-11.8-4.3-18.9-13.3-18.9
			c-6.4,0-11.3,4.7-13.2,10.2c-0.5,1.5-0.9,3.6-0.9,5.6v38h-10.9v-36.8c0-9.8-4.3-16.9-12.8-16.9c-7,0-12.1,5.6-13.8,11.2
			c-0.6,1.7-0.9,3.6-0.9,5.5v37.1h-10.9V463.7z"/>
		<path class="st2" d="M369.4,477.2c0,22.7-15.8,32.7-30.6,32.7c-16.6,0-29.5-12.2-29.5-31.6c0-20.6,13.5-32.7,30.5-32.7
			C357.4,445.6,369.4,458.4,369.4,477.2z M320.6,477.9c0,13.5,7.8,23.6,18.7,23.6c10.7,0,18.7-10,18.7-23.9
			c0-10.4-5.2-23.6-18.4-23.6C326.3,454,320.6,466.2,320.6,477.9z"/>
		<path class="st2" d="M410.4,418.3h11.2v90.2h-11.2V418.3z"/>
		<path class="st2" d="M440.4,418.3h11.2v90.2h-11.2V418.3z"/>
		<path class="st2" d="M476.6,479.8c0.3,15.1,9.9,21.3,21.1,21.3c8,0,12.8-1.4,17-3.2l1.9,8c-3.9,1.8-10.7,3.8-20.5,3.8
			c-18.9,0-30.2-12.5-30.2-31s10.9-33.2,28.8-33.2c20.1,0,25.4,17.7,25.4,29c0,2.3-0.3,4.1-0.4,5.2H476.6z M509.4,471.8
			c0.1-7.1-2.9-18.2-15.5-18.2c-11.3,0-16.3,10.4-17.2,18.2H509.4z"/>
		<path class="st2" d="M587,447c-0.3,4.4-0.5,9.4-0.5,16.9v35.7c0,14.1-2.8,22.7-8.8,28.1c-6,5.6-14.6,7.4-22.4,7.4
			c-7.4,0-15.5-1.8-20.5-5.1l2.8-8.5c4.1,2.5,10.4,4.8,18,4.8c11.4,0,19.8-6,19.8-21.5V498h-0.3c-3.4,5.7-10,10.3-19.6,10.3
			c-15.2,0-26.2-13-26.2-30c0-20.8,13.6-32.7,27.7-32.7c10.7,0,16.5,5.6,19.2,10.7h0.3l0.5-9.3H587z M575.5,471.3
			c0-1.9-0.1-3.6-0.6-5.1c-2-6.5-7.5-11.8-15.6-11.8c-10.7,0-18.3,9-18.3,23.3c0,12.1,6.1,22.1,18.2,22.1c6.9,0,13.1-4.3,15.5-11.4
			c0.6-1.9,0.9-4.1,0.9-6V471.3z"/>
		<path class="st2" d="M639.1,508.5l-0.9-7.8h-0.4c-3.4,4.8-10,9.1-18.8,9.1c-12.5,0-18.8-8.8-18.8-17.7c0-14.9,13.2-23,37-22.9
			v-1.3c0-5.1-1.4-14.2-14-14.2c-5.7,0-11.7,1.8-16,4.6l-2.5-7.4c5.1-3.3,12.5-5.5,20.2-5.5c18.8,0,23.4,12.8,23.4,25.2v23
			c0,5.3,0.3,10.5,1,14.7H639.1z M637.5,477.1c-12.2-0.3-26,1.9-26,13.8c0,7.2,4.8,10.7,10.5,10.7c8,0,13.1-5.1,14.9-10.3
			c0.4-1.1,0.6-2.4,0.6-3.6V477.1z"/>
		<path class="st2" d="M666.3,466.2c0-7.2-0.1-13.5-0.5-19.2h9.8l0.4,12.1h0.5c2.8-8.3,9.5-13.5,17-13.5c1.3,0,2.2,0.1,3.2,0.4v10.5
			c-1.1-0.3-2.3-0.4-3.8-0.4c-7.9,0-13.5,6-15,14.4c-0.3,1.5-0.5,3.3-0.5,5.2v32.8h-11.1V466.2z"/>
	</g>
</g>
</svg>
