<?xml version="1.0" encoding="utf-8"?>
<!-- Generator: Adobe Illustrator 17.0.0, SVG Export Plug-In . SVG Version: 6.00 Build 0)  -->
<!DOCTYPE svg PUBLIC "-//W3C//DTD SVG 1.1//EN" "http://www.w3.org/Graphics/SVG/1.1/DTD/svg11.dtd">
<svg version="1.1" id="Capa_1" xmlns="http://www.w3.org/2000/svg" xmlns:xlink="http://www.w3.org/1999/xlink" x="0px" y="0px"
	 width="560px" height="560px" viewBox="0 0 560 560" style="enable-background:new 0 0 560 560;" xml:space="preserve">
<style type="text/css">
	.st0{fill:#64A253;}
	.st1{fill:#B2167E;}
	.st2{fill:#090A0D;}
	.st3{fill:#34BA87;}
</style>
<g>
	<circle class="st0" cx="280.8" cy="280" r="280"/>
	<g>
		<path class="st1" d="M546.5,279.5C546,417.9,428.8,525.7,284,527.6c-151.9,2-270.8-114-269-250.4
			C16.7,141.6,135.1,32.5,280.6,32.4C428.6,32.3,546.8,144.3,546.5,279.5z M209.5,75.6c-6.2,14.4-11.9,27.7-17.8,41.4
			c-15.7-3.7-30.9-7.2-46.5-10.8c-1.1,15.2-2.2,29.8-3.3,44.4c-16.6,1.1-31.9,2.1-47.6,3.2c4,15.1,7.7,29.1,11.4,43.3
			c-15.3,5.7-29.7,11.1-44.3,16.5c8.9,12.7,15.7,26,25.7,37.8c-12.6,10-26.1,17.7-36.4,29.2c12,9.6,23.6,18.9,35.2,28.2
			c-6.6,13.4-16.6,24.6-24.1,37.9c14.7,5.5,29.1,10.9,44,16.4c-3.9,14.6-7.7,28.7-11.5,43.3c16.5,1.1,31.9,2.1,47.7,3.2
			c1.1,15,2.2,29.3,3.3,44.3c15.9-3.6,31.2-7.1,46.5-10.6c6.1,14.2,11.9,27.5,17.8,41.2c14-8.2,27.3-15.9,40.6-23.7
			c10.4,11.6,20.4,22.6,30.7,34.1c10.5-11.8,20.5-22.8,30.6-34.2c13.6,7.9,26.8,15.6,40.6,23.7c6-13.8,11.9-27.4,18-41.3
			c15.9,3.7,31.1,7.2,46.6,10.8c1.1-15.4,2-29.7,3.1-44.4c16.4-1.1,32-2.1,47.9-3.2c-4-14.8-7.8-28.8-11.7-43.1
			c14.9-5.6,29.4-11.1,44.4-16.8c-8.9-13.1-17.2-25.3-25.6-37.7c12.5-9.7,24.5-19.1,36.8-28.7c-12.8-9.9-24.7-19.1-36.8-28.5
			c8.7-12.9,16.9-25,25.6-37.8c-15.3-5.8-29.8-11.2-44.4-16.7c3.9-14.7,7.6-28.6,11.5-43.2c-16.3-1.1-31.7-2.1-47.7-3.1
			c-1.1-14.8-2.1-29.1-3.2-44.3c-16.1,3.7-31.3,7.2-46.5,10.7c-6.1-14-11.9-27.4-17.9-41.3c-13.8,8.1-26.9,15.7-40.5,23.6
			c-10.4-11.5-20.5-22.7-30.9-34.1c-10.4,11.6-20.4,22.7-30.6,34.1C236.5,91.3,223.4,83.7,209.5,75.6z M502.2,381.1
			c-0.5-5.4-3.7-8.6-9-8.6c-5.4,0-9,3.4-8.7,8.3c0.2,4.5,2.8,8.4,8.8,8.2C498.8,388.8,501.5,385.7,502.2,381.1z M317.2,490.9
			c-4.6,1-8,3.7-7.9,8.4c0,5,3.3,8.4,8.9,8.3c5.5-0.1,8.7-3.4,8.7-8.5C326.8,493.7,322.6,491.7,317.2,490.9z M45.4,236.8
			c-5.5,0.4-8.6,3.7-8.8,8.5c-0.2,4.7,3.2,7.8,8.3,8.1c5.7,0.3,9-2.9,9.3-7.9C54.5,240.3,50.8,237.7,45.4,236.8z M67.5,187.2
			c6.3,0.3,9.4-2.9,9.8-7.8c0.4-4.7-2.7-7.8-7.8-8.3c-5.6-0.5-9.2,2.2-9.7,7.3C59.1,183.7,62.6,186.4,67.5,187.2z M525.1,245.7
			c-0.2-5.3-3.2-8.6-8.6-8.7c-5.4-0.1-8.8,3.1-8.9,8.2c-0.1,4.9,3.2,7.9,8.1,8.2C521,253.7,524.4,250.8,525.1,245.7z M112.5,428.6
			c-5.4,0.9-9.1,3.5-8.9,8.7c0.2,5,3.6,8.2,9.2,7.8c5.5-0.3,8.4-3.8,8.2-8.8C120.8,431.5,117.1,429.4,112.5,428.6z M77.4,381.3
			c-0.7-5.5-3.7-8.9-9.1-8.8c-5.5,0.1-8.9,3.6-8.6,8.5c0.3,5,3.9,8.2,9.4,7.9C74.1,388.7,76.7,385.4,77.4,381.3z M494,171
			c-5.7,0.2-9.4,2.8-9.5,7.9c-0.1,5,3.3,8.2,8.8,8.4c5.2,0.2,8.4-2.9,8.8-7.5C502.4,174.8,499.3,171.7,494,171z M181.5,478.1
			c-0.4-5.1-3.2-8.3-8.8-8.4c-5.6-0.1-8.9,3.3-9,8.2c0,4.5,3,7.8,8.3,8C177.6,486.2,180.7,483.2,181.5,478.1z M440.7,437.6
			c0.4,5,3.8,7.8,9.2,7.5c5-0.2,8.4-3.3,8.3-8.1c-0.1-5-3.6-8.4-9-8.3C443.8,428.8,440.6,431.8,440.7,437.6z M327.1,60.8
			c-0.7-4.9-3.5-8.2-9.1-8.2c-5.1,0-8.6,2.9-8.8,7.5c-0.2,4.9,2.9,8.4,8.5,8.7C323.4,69,326.1,65.7,327.1,60.8z M380.3,82.3
			c0.7,5.2,3.7,8.1,9.2,7.9c5.8-0.1,8.3-3.7,8.1-8.6c-0.2-4.9-3.6-7.7-8.6-7.6C383.8,74.1,380.6,77.1,380.3,82.3z M45.3,306.6
			c-5.5,0.3-8.7,3.4-8.6,8.3c0.1,4.5,3.2,7.8,8.4,7.9c5.5,0.1,8.9-2.9,9.1-8C54.4,309.6,51,307,45.3,306.6z M111.9,131.1
			c5.3,0.1,8.6-2.8,9.1-7.7c0.5-4.7-2.6-7.9-7.6-8.5c-5.6-0.7-9.2,2.4-9.9,7.2C102.9,127,105.9,130.3,111.9,131.1z M252.2,499.6
			c-0.2-5.6-3.5-8.5-8.9-8.4c-4.8,0.1-8.5,2.8-8.5,7.8c0,5,2.9,8.5,8.5,8.5C248.8,507.5,252,504.7,252.2,499.6z M380.3,477.4
			c0.3,5.2,2.9,8.5,8.5,8.6c5,0,8.5-2.6,8.9-7.4c0.4-5.1-2.5-8.5-8.1-8.8C384.3,469.5,381.1,472.4,380.3,477.4z M515.7,306.5
			c-4.7,0.6-8.2,3-8.2,8.3c0,4.8,3,7.8,8.1,8c5.5,0.3,9-2.6,9.3-7.7C525.1,309.9,522,307,515.7,306.5z M243.1,68.8
			c5.7-0.2,9.1-3,9.1-8.1c0-5-3-8.3-8.8-8.1c-5.1,0.1-8.3,2.8-8.5,7.6C234.7,65.4,237.6,68.3,243.1,68.8z M181.6,82.3
			c-0.5-5.2-3.5-8.1-9.1-8.3c-5.4-0.2-8.5,3.2-8.7,7.6c-0.2,4.8,2.8,8.5,8.5,8.7C177.8,90.4,180.9,87.4,181.6,82.3z M448.7,131
			c5.9-0.2,9.3-2.8,9.3-8.1c0-4.9-3-7.9-8.2-8c-5.6-0.2-9,2.9-9,8.1C440.7,127.7,443.7,130.5,448.7,131z"/>
		<path class="st2" d="M449.9,254.9c10.7,8.4,20.9,16.3,31.9,24.9c-10.7,8.5-21.2,16.8-31.8,25.3c7.4,10.9,14.5,21.4,22.2,32.7
			c-13,4.9-25.6,9.6-38.7,14.5c3.3,12.5,6.5,24.6,9.9,37.6c-14.2,0.9-27.4,1.8-41.5,2.7c-1,12.7-1.9,25.2-3,38.7
			c-13.5-3.1-26.5-6.1-40.4-9.2c-5.2,11.9-10.3,23.8-15.6,36c-12-7.1-23.5-13.8-35.3-20.7c-8.9,9.9-17.7,19.6-26.9,29.8
			c-9-10-17.7-19.7-26.8-29.7c-11.6,6.8-23.1,13.5-35.3,20.6c-5.2-11.9-10.2-23.6-15.6-36c-13.1,3-26.2,6.1-40.3,9.3
			c-1-12.8-2-25.4-3.1-38.7c-13.5-0.9-27-1.8-41.5-2.7c3.4-12.8,6.6-25,10-37.7c-12.7-4.8-25.2-9.6-38.1-14.4
			c5.7-12,15.8-21,21.7-32.9c-10.6-8.3-21-16.4-31.9-24.9c11.1-8.6,21.7-16.7,32.8-25.3c-7.9-10.6-15.6-20.7-21.7-32.5
			c12.1-4.9,24.2-9.7,37.1-14.9c-3.2-12.2-6.4-24.6-9.8-37.6c14.1-0.9,27.4-1.7,41.4-2.6c1-12.8,2-25.4,3.1-38.7
			c13.7,3.1,26.8,6.1,40.4,9.2c5.2-12.1,10.3-23.8,15.5-35.9c12,7,23.5,13.7,35.3,20.6c9.1-10.1,17.9-19.8,26.9-29.8
			c9,10,17.6,19.7,26.7,29.8c11.8-6.9,23.3-13.6,35.4-20.6c5.2,12,10.3,23.6,15.7,35.9c13.3-3.1,26.5-6.1,40.3-9.3
			c1,13.1,2,25.7,3,38.8c13.8,0.9,27,1.7,41.4,2.7c-3.3,12.8-6.5,25.2-9.8,37.7c12.8,4.8,25.1,9.4,38.6,14.4
			C464.8,233,457.6,243.6,449.9,254.9z M430.9,280.1c0-76.3-67.1-139.2-147.9-140c-81.7-0.8-153.1,60.9-152.4,140.5
			c0.7,77,67.2,139.1,152.1,139.3C362.7,420.1,430.9,356,430.9,280.1z"/>
		<path class="st3" d="M281.7,157.9c73.7,1.1,131.6,56.5,130.2,124.7c-1.3,66.5-61.4,120.3-132.4,119.5
			c-69.8-0.8-131.5-54.9-129.2-125.8C152.5,210.7,211.2,156.9,281.7,157.9z M281.1,333.4c31.3-0.1,57.4-24.5,57.2-53.6
			c-0.2-29.2-26.4-53.5-57.7-53.4c-31.3,0.1-57.3,24.5-57.2,53.8C223.5,309.4,249.5,333.5,281.1,333.4z M271.9,194.9
			c0.6,5.1,3.6,8.3,9,8.3c5,0,8.6-3.1,8.7-7.7c0.1-4.7-2.5-8.5-8.4-8.6C275.5,186.8,272.8,190,271.9,194.9z M246.2,210
			c4.8-1,8.6-3.4,8.6-8.6c-0.1-5.4-4-7.9-9.2-8c-5.3-0.1-8.3,3.3-8.4,7.9C237.1,206.1,240.4,209.3,246.2,210z M246.6,350.1
			c-5.8-0.1-9.1,2.9-9.4,7.8c-0.3,4.6,2.6,8,7.8,8.5c5.4,0.5,9.3-2.1,9.7-7.3C255.2,354,252,351.1,246.6,350.1z M315.7,210
			c5.5-0.9,9-3.9,8.8-8.8c-0.2-4.9-3.8-8.2-9.3-7.8c-4.9,0.4-8.3,3.3-8.2,8.2C307.1,206.7,310.6,209.3,315.7,210z M225.2,219.4
			c-0.6-4.6-3.6-7.8-9.1-7.6c-4.9,0.1-8.5,3-8.5,7.8c-0.1,5,3.5,8.4,8.7,8.6C221.5,228.3,224.8,225.1,225.2,219.4z M380.8,280.1
			c-0.4-5.1-3.5-8.2-8.9-8.3c-5.1-0.1-8.4,3-8.7,7.6c-0.3,5,2.9,8.4,8.4,8.7C377.2,288.4,380,285.1,380.8,280.1z M354.1,339.7
			c-0.6-5.1-3.7-8.1-9.2-8c-5,0.1-8.3,3.1-8.3,7.9c0,5.1,3.1,8.5,8.6,8.4C350.6,348.1,353.8,345.1,354.1,339.7z M205.5,313.1
			c-0.5-5.6-3.4-9-8.8-8.8c-5.3,0.1-8.8,3.1-8.6,8.4c0.2,4.7,3.2,7.8,8.3,7.9C201.8,320.6,205,317.8,205.5,313.1z M289.9,364.6
			c-1.1-4.8-3.8-8.2-9.5-8c-5.7,0.2-8.6,3.8-8.4,8.7c0.2,4.7,3.7,7.6,8.7,7.7C286.3,373,289,369.5,289.9,364.6z M374,312.3
			c-0.6-5-3.9-8.1-9.1-8.1c-5-0.1-8.5,3.2-8.6,7.8c-0.2,4.9,3,8.5,8.5,8.6C370.3,320.8,373.1,317.4,374,312.3z M365.2,239.4
			c-5.4,0.3-8.9,3-9,8c0,5,3.4,8.2,8.9,8.2c5.1,0,8.3-2.9,8.5-7.6C374,242.7,370.8,240,365.2,239.4z M216.3,348.3
			c5.5-0.9,9.1-3.4,8.8-8.7c-0.3-5.2-3.8-8-9.2-7.8c-5.1,0.2-8.1,3.3-8.1,8C207.8,344.8,211.2,347.6,216.3,348.3z M181.1,280.7
			c0.7,4.8,3.8,7.6,9.3,7.4c5.2-0.3,8.1-3.4,8.1-8c0-5.1-3.5-8.2-8.9-8.1C184.2,272,181.2,275.2,181.1,280.7z M354,219.9
			c-0.4-4.9-3.3-8.1-8.8-8.1c-5.1,0-8.3,2.8-8.6,7.7c-0.3,5.8,3.7,8.7,9.2,8.7C350.7,228.2,353.7,224.9,354,219.9z M315.3,366.4
			c5.8-0.2,9.1-3.1,9.1-8.1c0-5-3.3-8-8.9-8c-5.3,0-8.2,3.1-8.5,7.7C306.7,363,310,365.9,315.3,366.4z M197,239.4
			c-5.3,0.4-8.9,2.8-8.9,8c-0.1,5.2,3.3,8.2,8.7,8.2c5.6,0,8.6-3.3,8.5-8.3C205.3,242.5,202.4,239.8,197,239.4z"/>
		<path d="M281.3,244.2c21.6,0.3,38,16.3,37.7,36.7c-0.3,19.1-17.9,35.2-38.2,34.8c-21.4-0.4-38.4-16.2-38.3-35.6
			C242.6,260,259.9,244,281.3,244.2z"/>
	</g>
</g>
</svg>
