<?xml version="1.0" encoding="utf-8"?>
<!-- Generator: Adobe Illustrator 17.0.0, SVG Export Plug-In . SVG Version: 6.00 Build 0)  -->
<!DOCTYPE svg PUBLIC "-//W3C//DTD SVG 1.1//EN" "http://www.w3.org/Graphics/SVG/1.1/DTD/svg11.dtd">
<svg version="1.1" id="Capa_1" xmlns="http://www.w3.org/2000/svg" xmlns:xlink="http://www.w3.org/1999/xlink" x="0px" y="0px"
	 width="560px" height="560px" viewBox="0 0 560 560" style="enable-background:new 0 0 560 560;" xml:space="preserve">
<style type="text/css">
	.st0{fill:#64A253;}
	.st1{fill:#FFFFFF;}
</style>
<circle class="st0" cx="280.3" cy="280" r="280"/>
<g>
	<path class="st1" d="M447.9,403.2H347.7c0.7,13.9,2.4,28.4,2.4,42.5c0,7.2-5.9,13-13.2,13h-69.4c-7.4,0-13.2-5.9-13.2-13
		c0-14.1,1.7-28.6,2.4-42.5H156.4c-7.6,0-13.9-6.3-13.9-13.9c0-3.7,1.5-7.2,4.1-9.8l87.2-87.4h-49.7c-7.6,0-13.9-6.3-13.9-13.9
		c0-3.7,1.5-7.2,4.1-9.8l87.2-87.4h-42.7c-7.6,0-13.9-6.3-13.9-13.9c0-3.7,1.5-7.2,4.1-9.8l83.3-83.3c2.6-2.6,6.1-4.1,9.8-4.1
		s7.2,1.5,9.8,4.1l83.3,83.3c2.6,2.6,4.1,6.1,4.1,9.8c0,7.6-6.3,13.9-13.9,13.9h-42.7l87.2,87.4c2.6,2.6,4.1,6.1,4.1,9.8
		c0,7.6-6.3,13.9-13.9,13.9h-49.7l87.2,87.4c2.6,2.6,4.1,6.1,4.1,9.8C461.8,396.9,455.5,403.2,447.9,403.2z"/>
</g>
</svg>
