<?xml version="1.0" encoding="utf-8"?>
<!-- Generator: Adobe Illustrator 17.0.0, SVG Export Plug-In . SVG Version: 6.00 Build 0)  -->
<!DOCTYPE svg PUBLIC "-//W3C//DTD SVG 1.1//EN" "http://www.w3.org/Graphics/SVG/1.1/DTD/svg11.dtd">
<svg version="1.1" id="Capa_1" xmlns="http://www.w3.org/2000/svg" xmlns:xlink="http://www.w3.org/1999/xlink" x="0px" y="0px"
	 width="960px" height="319.1px" viewBox="0 0 960 319.1" style="enable-background:new 0 0 960 319.1;" xml:space="preserve">
<style type="text/css">
	.st0{fill-rule:evenodd;clip-rule:evenodd;fill:#5B95CB;}
	.st1{fill-rule:evenodd;clip-rule:evenodd;fill:#5B99C5;}
	.st2{fill-rule:evenodd;clip-rule:evenodd;fill:#64A253;}
	.st3{fill-rule:evenodd;clip-rule:evenodd;fill:#649B54;}
	.st4{fill:#0F609F;}
	.st5{fill:#FFFFFF;}
</style>
<g>
	<path class="st0" d="M0.7,106.3c6.6-8,8.3-16.6,22.4-16.8c10.9-0.1,18.2,5.7,21.7,14.3c8.1,19.7-6.3,37.7-13.4,52.9
		C-4.1,232,50.3,333.9,136.7,317.3c36.4-7,68.4-40.1,75.4-68.6c-20.8,17.2-47,56.6-96.7,46.2c-34.8-7.2-61.7-37.4-68-75.3
		C38,163,75.1,145.9,70.9,103.2C66.6,57.8,3.3,52.4,0.7,106.3L0.7,106.3z"/>
	<path class="st0" d="M73.3,84.7c9.9,49.9-10.3,53.3-18,91.2c-7,34.3,3.3,67.1,20.3,86.1c55.7,62.3,130.7,3,131.9-31.6
		c-2.8,16.2-33.6,38.6-58.9,40.6c-32.4,2.5-52.9-14.8-63.8-35.8c-14.3-27.7-12.7-51.2-0.7-79C94.5,132.1,104.3,95.2,73.3,84.7
		L73.3,84.7z"/>
	<path class="st1" d="M183.4,240.2c-19.3,14.1-70.6,16.8-83.2-37.9c-9-39,36.4-94-3.7-106.6c8.6,49.9-32.4,76.2-7.1,129.8
		c8.2,17.3,22.4,32.5,41.1,36.8C152.8,267.5,177.8,257.3,183.4,240.2L183.4,240.2z"/>
	<path class="st2" d="M67.2,52.8C66.5,15,48.7-2,10.4,0.2C11.6,36.7,29,54.1,67.2,52.8L67.2,52.8z"/>
	<path class="st3" d="M77.4,71.6c25.4-1.7,36.1-9.5,38.1-33.4C90,37.3,79.5,46.7,77.4,71.6L77.4,71.6z"/>
</g>
<path class="st4" d="M205.7,93.5c4.2-0.7,9.8-1.2,16.8-1.2c8.6,0,15,1.9,19,5.3c3.7,3,5.9,7.7,5.9,13.3c0,5.8-1.8,10.3-5.2,13.6
	c-4.6,4.6-12.2,7-20.7,7c-2.6,0-5-0.1-7-0.6v25.5h-8.7V93.5z M214.4,124.2c1.9,0.5,4.3,0.7,7.2,0.7c10.6,0,17-4.8,17-13.6
	c0-8.4-6.3-12.5-16-12.5c-3.8,0-6.7,0.3-8.2,0.7V124.2z"/>
<path class="st4" d="M265.2,136.4l-7,20h-9l23-63.7h10.6l23.1,63.7h-9.3l-7.2-20H265.2z M287.4,129.9l-6.6-18.3
	c-1.5-4.2-2.5-7.9-3.5-11.6H277c-1,3.8-2.1,7.7-3.4,11.5l-6.6,18.4H287.4z"/>
<path class="st4" d="M315.8,93.6c4.4-0.9,10.8-1.3,16.8-1.3c9.3,0,15.4,1.6,19.6,5.2c3.4,2.8,5.3,7.2,5.3,12.1
	c0,8.4-5.6,14-12.8,16.3v0.3c5.2,1.7,8.3,6.2,10,12.8c2.2,8.9,3.8,15,5.2,17.5h-9c-1.1-1.8-2.6-7.3-4.5-15.2
	c-2-8.8-5.6-12.1-13.6-12.4h-8.2v27.6h-8.7V93.6z M324.5,122.6h8.9c9.3,0,15.3-4.8,15.3-12.1c0-8.2-6.3-11.8-15.6-11.9
	c-4.2,0-7.2,0.4-8.6,0.8V122.6z"/>
<path class="st4" d="M425.7,165.7c-9.1-2.3-18.1-4.8-25.9-7.4c-1.4-0.5-2.8-0.9-4.1-0.9c-16.1-0.6-29.9-11.7-29.9-32.2
	c0-20.4,13.3-33.5,31.6-33.5c18.4,0,30.4,13.4,30.4,32.2c0,16.3-8,26.8-19.3,30.5v0.4c6.7,1.6,14.1,3.1,19.8,4.1L425.7,165.7z
	 M418.5,124.3c0-12.8-7-25.9-21.4-25.9c-14.8,0-22,12.9-21.9,26.6c-0.1,13.5,7.8,25.7,21.5,25.7
	C410.7,150.7,418.5,138.8,418.5,124.3z"/>
<path class="st4" d="M447.9,92.7v37.7c0,14.3,6.7,20.3,15.8,20.3c10.1,0,16.5-6.2,16.5-20.3V92.7h8.8v37.1c0,19.6-11,27.6-25.6,27.6
	c-13.9,0-24.3-7.5-24.3-27.2V92.7H447.9z"/>
<path class="st4" d="M539.2,126.5h-26.3v23h29.4v6.9h-38.1V92.7h36.6v6.9h-27.8v20.1h26.3V126.5z"/>
<path class="st4" d="M574.9,156.4V92.7h9.6l21.7,32.2c5,7.5,8.9,14.2,12.2,20.7l0.2-0.1c-0.8-8.5-1-16.3-1-26.2V92.7h8.2v63.7H617
	l-21.5-32.3c-4.7-7.1-9.2-14.4-12.7-21.3l-0.3,0.1c0.5,8,0.7,15.7,0.7,26.3v27.2H574.9z"/>
<path class="st4" d="M652,136.4l-7,20h-9l23-63.7h10.6l23.1,63.7h-9.3l-7.2-20H652z M674.3,129.9l-6.6-18.3
	c-1.5-4.2-2.5-7.9-3.5-11.6h-0.2c-1,3.8-2.1,7.7-3.4,11.5l-6.6,18.4H674.3z"/>
<path class="st4" d="M707.4,99.7h-20.6v-7H737v7h-20.7v56.7h-8.8V99.7z"/>
<path class="st4" d="M753.3,92.7v37.7c0,14.3,6.7,20.3,15.8,20.3c10.1,0,16.5-6.2,16.5-20.3V92.7h8.8v37.1c0,19.6-11,27.6-25.6,27.6
	c-13.9,0-24.3-7.5-24.3-27.2V92.7H753.3z"/>
<path class="st4" d="M809.6,93.6c4.4-0.9,10.8-1.3,16.8-1.3c9.3,0,15.4,1.6,19.6,5.2c3.4,2.8,5.3,7.2,5.3,12.1
	c0,8.4-5.6,14-12.8,16.3v0.3c5.2,1.7,8.3,6.2,10,12.8c2.2,8.9,3.8,15,5.2,17.5h-9c-1.1-1.8-2.6-7.3-4.5-15.2
	c-2-8.8-5.6-12.1-13.6-12.4h-8.2v27.6h-8.7V93.6z M818.3,122.6h8.9c9.3,0,15.3-4.8,15.3-12.1c0-8.2-6.3-11.8-15.6-11.9
	c-4.2,0-7.2,0.4-8.6,0.8V122.6z"/>
<path class="st4" d="M871.7,136.4l-7,20h-9l23-63.7h10.6l23.1,63.7H903l-7.2-20H871.7z M893.9,129.9l-6.6-18.3
	c-1.5-4.2-2.5-7.9-3.5-11.6h-0.2c-1,3.8-2.1,7.7-3.4,11.5l-6.6,18.4H893.9z"/>
<path class="st4" d="M922.3,92.7h8.7v56.8h29v6.9h-37.7V92.7z"/>
<path class="st5" d="M332.5,263.7v-27L311.1,200h10l9.6,17.6c2.6,4.8,4.6,8.7,6.7,13.1h0.2c1.9-4.2,4.2-8.3,6.8-13.1l9.8-17.6h10
	l-22.7,36.6v27.1H332.5z"/>
<path class="st5" d="M427.7,231.2c0,21.9-14.2,33.5-31.5,33.5c-17.9,0-30.5-13-30.5-32.3c0-20.2,13.4-33.4,31.5-33.4
	C415.7,199,427.7,212.3,427.7,231.2z M375.1,232.3c0,13.6,7.8,25.8,21.6,25.8c13.9,0,21.7-12,21.7-26.5c0-12.7-7-25.9-21.6-25.9
	C382.4,205.7,375.1,218.3,375.1,232.3z"/>
<path class="st5" d="M437.9,253.7c3.9,2.3,9.6,4.2,15.7,4.2c8.9,0,14.2-4.4,14.2-10.9c0-6-3.6-9.4-12.8-12.7
	c-11.1-3.7-17.9-9.1-17.9-18c0-9.9,8.7-17.3,21.9-17.3c6.9,0,12,1.5,15,3.1l-2.4,6.7c-2.2-1.1-6.7-3-12.9-3
	c-9.2,0-12.8,5.2-12.8,9.5c0,6,4.1,8.9,13.5,12.3c11.5,4.2,17.3,9.4,17.3,18.7c0,9.8-7.7,18.3-23.7,18.3c-6.5,0-13.7-1.8-17.3-4.1
	L437.9,253.7z"/>
<path class="st5" d="M546.5,231.2c0,21.9-14.2,33.5-31.5,33.5c-17.9,0-30.5-13-30.5-32.3c0-20.2,13.4-33.4,31.5-33.4
	C534.6,199,546.5,212.3,546.5,231.2z M494,232.3c0,13.6,7.8,25.8,21.6,25.8c13.9,0,21.7-12,21.7-26.5c0-12.7-7-25.9-21.6-25.9
	C501.2,205.7,494,218.3,494,232.3z"/>
<path class="st5" d="M557.9,263.7V200h9.6l21.7,32.2c5,7.5,8.9,14.2,12.2,20.7l0.2-0.1c-0.8-8.5-1-16.3-1-26.2V200h8.2v63.7h-8.8
	l-21.5-32.3c-4.7-7.1-9.2-14.4-12.7-21.3l-0.3,0.1c0.5,8,0.7,15.7,0.7,26.3v27.2H557.9z"/>
<path class="st5" d="M624.1,200.9c5.3-0.8,11.7-1.3,18.6-1.3c12.6,0,21.5,2.7,27.4,7.9c6,5.2,9.6,12.6,9.6,22.9
	c0,10.4-3.4,18.9-9.8,24.8c-6.3,6-16.8,9.2-30,9.2c-6.2,0-11.5-0.3-15.9-0.8V200.9z M632.8,257.2c2.2,0.4,5.4,0.5,8.8,0.5
	c18.7,0,28.9-9.8,28.9-27c0.1-15-8.9-24.6-27.4-24.6c-4.5,0-7.9,0.4-10.3,0.9V257.2z"/>
<path class="st5" d="M699.8,200v37.7c0,14.3,6.7,20.3,15.8,20.3c10.1,0,16.5-6.2,16.5-20.3V200h8.8v37.1c0,19.6-11,27.6-25.6,27.6
	c-13.9,0-24.3-7.5-24.3-27.2V200H699.8z"/>
<path class="st5" d="M764.1,243.7l-7,20h-9l23-63.7h10.6l23.1,63.7h-9.3l-7.2-20H764.1z M786.3,237.3l-6.6-18.3
	c-1.5-4.2-2.5-7.9-3.5-11.6H776c-1,3.8-2.1,7.7-3.4,11.5l-6.6,18.4H786.3z"/>
</svg>
