<?xml version="1.0" encoding="UTF-8"?>
<svg id="Capa_1" data-name="Capa 1" xmlns="http://www.w3.org/2000/svg" viewBox="0 0 317.03 475.81">
  <defs>
    <style>
      .cls-1 {
        fill: #639b52;
      }

      .cls-2 {
        fill: #5b95cb;
      }
    </style>
  </defs>
  <path class="cls-1" d="m115.55,102.32s1.72-50.31,50.61-49c3.62.74,4.34-.65,5.09,2.39s-.62,8.39-.57,9.85-2.56,9.1-2.56,9.1c0,0-8.85,29.22-52.58,27.67Z"/>
  <path class="cls-1" d="m102.91,76.59S100.23-2.01,23.86.04c-5.65,1.16-6.78-1.01-7.95,3.73s.97,13.11.88,15.39,3.99,14.21,3.99,14.21c0,0,13.82,45.64,82.13,43.22Z"/>
  <path class="cls-2" d="m0,155.71s26.51-48.24,62.51-9.72c2.88,3.96,20.52,20.16-9,73.08-1.44,3.83-78.48,190.32,92.88,254.16,12.43,4.33,111.88,16.66,170.64-102.24,0-5.04-95.76,123.84-187.2,51.12-12.96-11.52-76.32-69.12-60.48-149.76.72-8.64,23.04-56.88,23.76-59.76s19.44-31.68,10.8-75.6c-3.36-14.88-31.68-40.8-42.72-39.12-20.16-.08-54.24-1.2-61.19,57.84Z"/>
  <path class="cls-2" d="m109.31,124.39s9.36,47.88-3.96,75.24-18,43.2-21.24,53.64-9.36,49.32,0,78.84,10.44,49.32,64.08,86.76c6.84,3.24,46.44,23.76,88.2,3.96,9.72-4.32,71.28-32.4,73.8-79.2,0,0-6.12,36.36-74.88,57.96-86.04,14.04-111.12-55.56-111.12-55.56,0,0-22.8-44.52-4.08-104.64,3.72-10.56,26.4-49.44,18.72-86.76-4.44-15.12-13.2-24.6-29.52-30.24Z"/>
  <path class="cls-2" d="m143.51,140.59s8.17,21.6-2.15,60.48c-6.27,23.64-13.37,37.11-15.84,45.6s-8.31,39.68-1.17,63.68c7.14,24,20.13,55.6,48.89,70.55,5.22,2.63,27.88,19.86,71.08,6.42,7.42-3.51,27.89-17.23,29.28-29.28,0,0-13.2,10.8-38.64,12.48-60.48,3.84-80.03-48.84-80.03-48.84,0,0-15.61-32.83-1.33-81.72,2.84-8.59,19.78-46.93,13.92-77.28-3.39-12.29-11.56-17.49-24.01-22.08Z"/>
</svg>