<?xml version="1.0" encoding="utf-8"?>
<!-- Generator: Adobe Illustrator 17.0.0, SVG Export Plug-In . SVG Version: 6.00 Build 0)  -->
<!DOCTYPE svg PUBLIC "-//W3C//DTD SVG 1.1//EN" "http://www.w3.org/Graphics/SVG/1.1/DTD/svg11.dtd">
<svg version="1.1" id="Capa_1" xmlns="http://www.w3.org/2000/svg" xmlns:xlink="http://www.w3.org/1999/xlink" x="0px" y="0px"
	 width="560px" height="560px" viewBox="0 0 560 560" style="enable-background:new 0 0 560 560;" xml:space="preserve">
<style type="text/css">
	.st0{fill:#64A253;}
	.st1{fill-rule:evenodd;clip-rule:evenodd;fill:#FFFFFF;}
</style>
<g>
	<path class="st0" d="M560.1,280c0,154.6-116.7,280-271.4,280C134.1,560,0.1,434.6,0.1,280S125.5,0,280.1,0
		C434.8,0,560.1,125.4,560.1,280z"/>
	<g>
		<path class="st1" d="M182.1,230.5c6.2-7.5,7.7-15.4,20.8-15.6c10.1-0.1,16.9,5.3,20.2,13.3c7.6,18.3-5.8,35-12.5,49.2
			c-33,70,17.6,164.7,97.9,149.2c33.8-6.5,63.5-37.3,70.1-63.7c-19.3,16-43.6,52.5-89.9,43c-32.3-6.7-57.3-34.8-63.2-70
			c-8.8-52.6,25.7-68.5,21.9-108.2C243.3,185.4,184.5,180.4,182.1,230.5L182.1,230.5z"/>
		<path class="st1" d="M249.6,210.5c9.2,46.4-9.5,49.5-16.8,84.8c-6.5,31.8,3.1,62.3,18.8,80c51.7,57.9,121.4,2.7,122.6-29.4
			c-2.6,15-31.2,35.9-54.7,37.7c-30.1,2.3-49.1-13.7-59.2-33.3c-13.3-25.7-11.8-47.6-0.6-73.4C269.2,254.4,278.4,220.2,249.6,210.5
			L249.6,210.5z"/>
		<path class="st1" d="M351.9,355c-17.9,13.1-65.6,15.6-77.4-35.2c-8.3-36.2,33.8-87.4-3.4-99.1c8,46.4-30.1,70.8-6.6,120.6
			c7.6,16.1,20.8,30.2,38.2,34.2C323.4,380.3,346.7,370.8,351.9,355L351.9,355z"/>
		<path class="st1" d="M243.8,180.8c-0.6-35.2-17.1-50.9-52.7-48.9C192.2,165.9,208.4,182,243.8,180.8L243.8,180.8z"/>
		<path class="st1" d="M253.3,198.3c23.6-1.5,33.5-8.8,35.4-31.1C265.1,166.4,255.3,175.1,253.3,198.3L253.3,198.3z"/>
	</g>
</g>
</svg>
