<?xml version="1.0" encoding="utf-8"?>
<!-- Generator: Adobe Illustrator 17.0.0, SVG Export Plug-In . SVG Version: 6.00 Build 0)  -->
<!DOCTYPE svg PUBLIC "-//W3C//DTD SVG 1.1//EN" "http://www.w3.org/Graphics/SVG/1.1/DTD/svg11.dtd">
<svg version="1.1" id="Capa_1" xmlns="http://www.w3.org/2000/svg" xmlns:xlink="http://www.w3.org/1999/xlink" x="0px" y="0px"
	 width="560px" height="560px" viewBox="0 0 560 560" style="enable-background:new 0 0 560 560;" xml:space="preserve">
<style type="text/css">
	.st0{fill:#64A253;}
	.st1{fill:#FCFCFC;}
</style>
<g>
	<circle class="st0" cx="280.1" cy="280" r="280"/>
	<g>
		<path class="st1" d="M341.2,374c6.8,17.8,13.6,35.6,20.4,53.4c4.8,12.7,2.5,20.9-6.7,24.6c-10,4-17.2-0.4-22.5-13.9
			c-9.8-24.8-19.6-49.7-30-75.9c-22.4,7.5-44.6,14.5-66.4,22.4c-21.6,7.8-30.3,4.5-38.7-16.5c-8-20.1-16-40.2-23.9-60.4
			c-7-18-2.5-27.7,14.8-35.4c16.7-7.4,32.2-8.6,48.2,2.2c7.6,5.1,17.2,2.8,25.9,0.8c0.8-0.2,1.5-0.8,2.3-1.2
			c33.6-14.8,33.6-14.8,33.5-51.3c0-23.8-0.4-47.6,0.2-71.3c0.2-8.5-2.7-11.7-11-13.4c-42.4-8.6-84.7-17.7-127-26.8
			c-4.8-1-13.3,0.2-11.5-8c1.6-7,8.5-3.1,13.1-2.2c28.6,5.9,57.2,12,86.3,18.2c2.5-8.8,4.5-17.4,16.3-13.6c2.9,0.9,4.2-2.2,6-3.8
			c6.5-5.8,13.2-5.4,16.4,2.7c2.6,6.5,6.8,8.1,12.4,8.5c12.3,1,24.7,11,37.1-0.4c1.1-1,4.2-0.5,6,0.2c7.6,2.7,17,20.8,15.1,29.7
			c28.9,6.1,57.9,12.3,86.8,18.4c2.9,0.6,5.8,1.2,8.7,2c3.1,0.9,5.6,2.6,4.6,6.3c-1,3.6-3.9,4.1-7.1,3.5c-2.9-0.5-5.8-1.1-8.7-1.8
			c-41.5-8.8-83.1-17.6-124.6-26.3c-2.4-0.5-4.8-0.6-8.6-1.1c0,35.9,0.1,71-0.1,106.2c0,4.3,3.2,5.3,5.7,7.4
			c6.8,5.6,8.2,13.8,1.5,18.5c-7.7,5.3-7.2,11.6-7.2,18.7c0,10.2,0,20.3,0,30.7c33.2,11.5,66,22.8,98.7,34.3
			c12.1,4.2,16.8,13,12.2,22.2c-4.6,9.2-12.3,10.8-21.5,7.6c-18.1-6.1-36.1-12.2-54.2-18.3c-1.1-0.1-2.1-0.2-3.2-0.3
			C340.9,371.8,341,372.9,341.2,374z M252.9,302.1c5.4,13.7,10.2,25.7,15.2,38.6c9-3,16.9-5.8,24.9-8.3c3.2-1,5.3-2.7,5.2-6.2
			c-0.4-12.9,1.3-25.8-0.9-39C282.2,291.3,271,303.1,252.9,302.1z"/>
		<path class="st1" d="M181.8,265.4c-18.2-0.5-33.6-17.8-33.2-37.2c0.4-19.8,17.4-36.1,37-35.7c20.4,0.5,36,17.5,35.3,38.5
			C220.2,251.4,203.5,266.1,181.8,265.4z"/>
	</g>
	<path class="st1" d="M341.2,374c-0.2-1.1-0.4-2.1-0.5-3.2c1.1,0.1,2.1,0.2,3.2,0.3C343,372,342.1,373,341.2,374z"/>
</g>
</svg>
