<?xml version="1.0" encoding="utf-8"?>
<!-- Generator: Adobe Illustrator 17.0.0, SVG Export Plug-In . SVG Version: 6.00 Build 0)  -->
<!DOCTYPE svg PUBLIC "-//W3C//DTD SVG 1.1//EN" "http://www.w3.org/Graphics/SVG/1.1/DTD/svg11.dtd">
<svg version="1.1" id="Capa_1" xmlns="http://www.w3.org/2000/svg" xmlns:xlink="http://www.w3.org/1999/xlink" x="0px" y="0px"
	 width="478.4px" height="560px" viewBox="0 0 478.4 560" style="enable-background:new 0 0 478.4 560;" xml:space="preserve">
<style type="text/css">
	.st0{fill:#A2C640;}
	.st1{fill:#2DA7DF;}
	.st2{fill:#FDFFFF;}
	.st3{fill:#63A152;stroke:#FFFFFF;stroke-miterlimit:10;}
	.st4{fill:#FFFFFF;}
	.st5{fill-rule:evenodd;clip-rule:evenodd;fill:#FFFFFF;}
</style>
<path class="st0" d="M284.6,474.9c13.7,28.2,26.8,55.5,40.4,83.5c-6.6,0-12.5,0-18.5,0c-1.9,0-2.3-1.6-2.6-2.8
	c-1.6-7.7-6.3-9.9-13.9-9.1c-6.4,0.7-12.9,0.3-19.4,0.1c-2.3-0.1-3.9,0.6-4.4,2.8c-1.6,8-6.5,9.8-14.2,9.1
	c-8.6-0.8-17.4-0.3-26.1-0.1c-2.6,0.1-4-0.8-5.4-2.9c-5.6-8.1-11.4-16-17.3-24.3c-5.3,7.9-10.6,15.4-15.6,23.2
	c-1.8,2.8-3.8,4.1-7.4,4c-10.8-0.3-21.6-0.2-32.4,0c-2.8,0-4.6-0.6-5.2-3.4c-1.5-7.1-5.8-9.3-12.9-8.5c-6.5,0.7-13.2,0.3-19.8,0.1
	c-2.5-0.1-4.2,0.5-4.7,3c-1.6,7.8-6.4,10.1-13.8,8.8c-2.7-0.5-5.6-0.1-9.1-0.1c13.7-27.7,27.2-55.1,41.3-83.5
	c13.7,28.2,26.9,55.5,40.4,83.5c9.7-13.9,19.1-27.4,28.7-41.2c-9.2-12.6-18.5-25.2-28.3-38.6c8,0,15.2,0,22.4,0
	c1.4,0,1.9,1.5,2.6,2.5c4.9,6.7,9.7,13.4,14.7,20.3c4.7-6.9,9.3-13.5,13.6-20.2c1.3-2,2.7-2.9,5.1-2.8c5.5,0.2,11,0.1,17.5,0.1
	c-8.7,12.6-17.1,24.7-25.7,37c9.8,13.3,19.5,26.7,29.7,40.6C257.8,529,271,502.5,284.6,474.9z M133.3,533
	c-3.5-8.4-6.7-16.3-10.4-25.1c-3.8,8.9-7.1,16.8-10.6,25.1C119.5,533,126,533,133.3,533z M273.2,532.9c7.3,0,13.9,0,20.9,0
	c-3.4-8.3-6.7-16.2-10.3-24.9C280,516.7,276.7,524.6,273.2,532.9z"/>
<path class="st0" d="M40.8,559.4C18.4,559.5,0.1,540.7,0,517.7c-0.1-24.2,17.6-43.3,40.4-43.3c23-0.1,41.1,18.4,41.1,42.1
	C81.5,540.6,63.8,559.3,40.8,559.4z M62,516.4c-0.2-1.5-0.3-3.6-0.7-5.6c-1.7-9.8-9.5-17.4-19.1-18.5c-8.5-1-17.1,4.7-20.7,14.1
	c-3.1,7.9-2.8,15.9,1.1,23.5c6.9,13.5,23.6,15.7,33.2,4.5C60.1,529.4,61.7,523.4,62,516.4z"/>
<path class="st0" d="M390,502c-6.1-5.9-12.4-10-20.7-10.3c-12.7-0.4-22.7,8.4-23.8,21.1c-0.7,7.8,0.4,15.2,5.9,21.2
	c7.8,8.5,20.6,9.7,32.5,3.1c2.8-1.6,5.4-3.4,8.6-5.5c-0.4,6.6-0.8,12.7-1.1,18.9c-0.1,1.8-1.3,2.7-2.7,3.4
	c-26.5,14.4-57.8-1-61.9-29.9c-3.3-23.4,9.1-43,30.8-48.5c11-2.8,21.4-1.1,31.3,4.2c2.5,1.3,3.3,3,3,5.7
	C391.2,490.7,390.7,496,390,502z"/>
<path class="st0" d="M478.4,558.4c-6.4,0-12-0.1-17.6,0c-1.9,0-2.9-0.7-3.3-2.4c-1.6-8.3-6.9-10.4-14.8-9.5
	c-6.1,0.7-12.3,0.3-18.5,0.1c-2.3-0.1-3.9,0.5-4.4,2.8c-1.6,7.9-6.5,10.4-14.1,9.1c-2.7-0.5-5.5-0.1-8.9-0.1
	c13.7-27.8,27.3-55.1,41.3-83.5C451.7,503.2,464.9,530.4,478.4,558.4z M447.6,533c-3.4-8.3-6.8-16.3-10.4-25
	c-3.7,8.8-7.1,16.8-10.6,25C433.8,533,440.4,533,447.6,533z"/>
<path class="st0" d="M350.3,517c0-10.3,7.8-18.7,17.6-18.8c9.7-0.1,18.1,8.8,17.9,19c-0.2,10.3-8.1,18.4-17.9,18.4
	C358.1,535.5,350.3,527.3,350.3,517z"/>
<path class="st0" d="M41,498.1c7.9,0,14.1,5.9,15.7,15.3c1.3,7.8-0.9,14.5-7.2,19.4c-5.9,4.6-14,3.6-19.3-2
	c-7.2-7.6-6.9-21.3,0.7-28.6C33.6,499.5,37,498,41,498.1z"/>
<path class="st1" d="M239.5,0c125.2-0.4,227.8,102.9,227.7,228.1c-0.1,125.3-103,228.1-228.5,227.8C113.5,455.6,11,352.7,11.2,227.5
	C11.4,102.3,114.3-0.7,239.5,0z M150.1,44c-5.5,0.3-10.1,3.4-15,5.5c1.4,0.1,3,0.5,4-0.1c2.6-1.5,5.2-2.5,8.1-2.9
	C148.3,46.2,150.2,46,150.1,44c0.2-0.1,0.4-0.1,0.6-0.1c-0.1-0.1-0.1-0.2-0.2-0.4C150.4,43.7,150.2,43.8,150.1,44z M192.5,39
	c1.3-0.3,2.3-0.2,2.4,1.5c0,0.3-0.3,1,0.5,1.4c2.2,0.9,6.3-1,7.6-4.3C199.4,39,195.9,37.7,192.5,39c-2.6,2.1-6,0-8.8,1.3
	c2,0.5,3.9,0.7,5.8,0.8C191.1,41.2,192.3,40.8,192.5,39z M210.9,35.5c0.3-0.5,0.6-0.9,1-1.7c-3.2,0-6.1-0.9-9.8-0.1
	C205.2,36,208.1,35.3,210.9,35.5c-0.7,1.6-3,0-3.9,2.1c2.9-0.4,5.5,0.7,8.2,0.2c1.6-0.3,3.6,0.2,4.1,1.3c1.1,2.2,2.8,2.1,4.5,2.1
	c4.8,0.1,9.6-0.2,14.3,0.1c4.3,0.3,8.6-0.2,13,0.4c2.5,0.3,5.4,0.8,8.4-0.9c-2.3-1.6-4.2-1.6-6.2-1.8c-7.6-0.6-15.3,1.4-22.9,0.1
	c-5-0.8-9.8-2.9-15.1-2.3c-0.1,0-0.2-0.3-0.3-0.4c0.3-0.5,1.3,0,1.1-0.9C214.4,35.5,212.6,35.5,210.9,35.5z M235,33.4L235,33.4
	c0.9,1.7,3.5-0.3,4.4,2.4c-4.3-2.4-7.4,0.3-10.9,1.5c11.6,0.3,23.2,0.2,35.1,1.2c-0.9-1.5-2.1-0.6-2.8-1.4c2.4-0.7,4.7-1.7,7.3-1.2
	c1.2,0.2,3.2,0,3.7-0.7c1.8-3.1,4.5-1.7,6.8-1.6c2,0.2,3.9,0.3,5.9,0c5.6-1,11.2-0.3,16.9-0.7c2.9-0.2,5.9,1.7,9.6,0.6
	c-14.3-4.1-28.4-6-42.6-7.1c-14.7-1.1-39.5,0-42.1,1.6c1.1,1.2,3.2,0.4,4.6,2.1c-7.7,0.2-15.3-3.5-22.6,1.8c2.8,0.3,5.2,0.2,7.3,1
	c3.3,1.3,6.4,1.6,9.9,1.3C228.6,34,231.7,32.8,235,33.4z M368,286.6c0.2-1,0.4-2,0.6-3c-1.1-0.4-2.2-0.8-3.2-1.1
	c-1.2-0.4-2.3-0.5-3,0.9c-0.6,1.3-0.5,2.3,0.7,3.4C364.9,288.4,366.4,287.7,368,286.6c-0.1,1.4-1,2.4-2,3.3
	c-6.6-2.2-7.3-4.1-3.7-9.6c0.9-1.5,2-2.9,3.1-4.4c-1.6-1.5-2.4-3.4-2.7-5.3c-0.3-1.8-1.3-2.8-2.6-3.9c-2.9-2.6-6.3-3.3-10.1-3.5
	c-3.6-0.2-7.7,0-9.8-3.4c-2.5-4-8-3.7-10-8.1c-0.2-0.5-1.4-0.7-2.2-0.9c-1-0.3-2.3-0.5-2.7-1.5c-1.3-3.4-3.6-1.7-5.4-0.9
	c-1.5,0.7-3.1,1.9-4.6,1.1c-2.1-1.2-4.3-0.9-6.5-1c-0.9,0-1.9,0.1-2.6-0.7c-2.5-3.2-5.8-2.6-9.1-1.7c-2.2,0.6-3.4,1.7-1.8,4
	c0.9,1.4,0.7,2.6-0.9,3.4c-2.6-2.9-2.4-4.7,0.5-9.8c-0.4-0.9-1.3-1.3-2-0.7c-3.3,2.6-7.4,2.9-11.1,4.2c-1.3,0.5-2.8,1-3.1,2.6
	c-0.6,3.1-3.3,4.3-4.7,6.5c-1.3,0.1-1.7-0.6-2.3-1.2c-4-4.5-4-4.6-9.8-2.3c-2.4,0.9-4.5,1.3-6.3-1.1c-0.5-0.7-1.5-1.2-2.3-1.6
	c-2.4-1.1-3.3-2.8-3.4-5.6c-0.1-4,0.8-7.9,0.9-11.9c0-1.7-0.3-2.7-2-3.7c-2.3-1.3-4.6-1.7-7.1-1.5c-2.8,0.2-5.6,0.4-8.4,0.6
	c-1.1,0.1-2.4,0.2-2.6-0.5c2.5-7,4.8-13.2,7.2-19.9c-2.9-0.3-5.2-0.7-7.5-0.6c-3.2,0.1-6,0.4-7.2,4.6c-0.8,2.8-2.5,6.5-7.2,5.1
	c-1.1-0.3-2.5,0.4-3.7,0.8c-1,0.3-2.1,0.8-3.1,0.4c-5.1-2.5-9-6.3-11.2-11.5c-2.8-6.8,1-13.8-0.2-20.8c-0.1-0.5,0.3-1.1,0.6-1.6
	c0.9-2.1,12.3-8.9,14.5-8.4c3.8,0.9,7.9-0.4,11.3,2.2c0.7,0.5,1.8,0.7,2.6,0.1c0.2-1.4,0.3-2.9,0.5-4.5c5.2,0.9,10.4-1.6,15,2
	c0.7,0.6,1.8,0.2,2.7-0.2c3-1.4,5.5-0.5,6,2.8c0.8,5,2.8,9.1,6.3,12.7c0.8,0.8,1.1,2.2,2.6,1.9c1.7-0.3,2.1-1.7,2.2-3.2
	c0.1-4-1.2-7.6-3.2-10.9c-3.4-5.6-2-11.1,4-13.7c4.3-1.8,8-4.8,11.8-6.2c1.5-4.6,0.8-8.7-0.1-13.2c1.9,1,1.1,2.8,2.1,3.9
	c2.7-2.9,2.7-2.9,2-6c3-0.5,4.4-2.8,3.8-6.1c4.1-1.9,8.7-1.9,13-3c-0.8-2.2-2.6-4.5,0.6-5.9c2.2-1,4.7-1.8,7.1-2.1
	c2.1-0.2,3.5-0.8,3.8-3.5c2.9,2.5,5.5-0.8,8.2,0.1c-1,0.9-2.2,1.2-3.1,1.8c-1.2,0.7-2.6,1.4-1.4,3.3c1,1.6,2.1,2.2,3.7,0.7
	c1.8-1.6,4.2-2.1,6.4-2.8c1.7-0.5,3.7-0.6,5.3-3c-6.6,0.2-10.8-3.2-14.3-7.5c0,0,0.3-0.2,0.6-0.4c1.1-0.5,2.9-0.5,2.6-2.2
	c-0.3-1.5-1.9-1.5-3.2-1.6c-3.3-0.2-6.6-0.3-9.7,1.3c-0.9,0.5-1.9,1.2-3.2,0.5c1.6-1.8,4.3-1.3,5.4-2.9c3-4.4,7.1-3,11.1-2.8
	c6.2,0.3,12.6,3.7,18.7-0.7c0.8-0.5,2.1-0.3,3.1-0.4c1.4-0.1,2.8-0.2,3.8-1.3c-1.2-4.4-2.9-5.6-6.9-5.2c-2.1,0.2-4.2,0-6.3,0
	c2.3-0.8,4.8-0.7,7.2-2c-5.7-2.5-11.4-3.6-14.7-9.8c-1.5-2.7-4.4-6-7.9-7.7c-1.6-0.8-2.7-1.5-4.1,0.6c-1.6,2.5-4.8,3.7-7.3,3.1
	c-2.8-0.6-6.3-1.8-6.4-5.9c0-1.4-0.8-2.1-2.2-2.3c-1.1-0.2-2.5-0.4-3.3-1c-5.7-4.3-12.8-3.2-19.2-4.9c-0.6-0.2-1.4,0.2-2.1,0.4
	c-0.3,0.1-0.5,0.4-0.8,0.5c-0.1,1.3,1.4,1.3,1.6,2.8c-0.4,0.2-1.2,0.5-2,0.9c4,3.5,4,3.5-0.3,6c2.3,1.9,6.6,1.6,6.1,6.2
	c-0.6,5.2-5.9,4.2-8.8,6.6c2,1.1,2.4,3.1,2.9,5.1c0.6,2.4-0.4,3.9-2.7,4.2c-3.3,0.5-9.9-4.4-10.3-7.7c-0.3-2.7-1.8-4-4.2-4.3
	c-5.6-0.8-10.9-2.9-16.4-3.9c-4.6-0.8-9.1-3.6-14.1-1.6c-1,0.4-1.4-0.5-1.7-1.3c-1.2-2.9-3.3-4.2-6.5-3c-0.5-2.2-0.8-4.4,0.7-5.9
	c3.1-3.1,5.8-7,10.9-6.7c-0.1-1-1.3-0.5-1.3-1.4c5.6-0.2,11.1-1.7,14-4.2c-3.1-0.5-6.2,0.2-9.4-2c5.1,0,9.9,3.6,13.9-1.3
	c5.1,1.5,10.3,1.6,15.3-1.4c-0.7-1.3-2.3-1.1-2.5-2.3c1.7-2.3,3.4-4.2,6.7-2.3c0.6,0.4,1.8-0.1,2.7-0.5c3.5-1.5,6.3,0.8,9.4,1.6
	c1.1,0.3-0.6,1.1,0.2,1.6c4.9-0.8,9,1,13.1,3.7c-1.5,2-3.5,1.9-5.2,2.7c-3.7,2.8-8.7-0.8-12.7,2c2.2,1.1,4.1,1.6,6.5,1.4
	c3-0.3,6.2-0.7,9.1,0.7c7.4,3.6,15.4,5.6,24.2,7.3c-1.3-1-2-1.5-2.6-1.9c2.3-1.3,5,2.1,7.1-0.6c-2.4-4.2-8.2-2.8-10.7-6.9
	c1.7-1,3.4-0.8,4.7,0.2c4.4,3.3,8.8,4.1,13.8,0.5c-6-1.5-11.6-3.5-17.1-5.9c-1.7-0.7-1.1-3.2-3.1-3c0.3-0.2,1-0.1,0.8-0.8
	c-5.5-1.7-10.7-4.2-16.5-4.7c-4.1-0.4-7.8-2.2-11.2-3.9c-4.8-2.4-9.5-2.5-14.9-2.9c1.8,1.8,3.5,2.3,5.4,2.3c1.9-0.1,3.8,0,5.7,0
	c-1.1,0.6-2.3,0.8-3.4,1c-2.9,0.4-5.8,0.7-8.1-2c-1.5-1.7-12.7-1.7-14.4-0.2c-0.2,0.1-0.5,0.4-0.4,0.5c0.2,1.1,0.4,2.1-1.3,2
	c-1.6-0.1-1.8-1.1-1.9-2.1c0.8-1.2,2.4-0.5,2.8-2c-5.2-0.5-10.1,0-14.2,3.9c1.8,2.7,4.9,0.9,7.4,2.1c-1.3,0.2-2.4,0.3-4,0.6
	c4.4,2.1,9.3-0.2,13,3.8c-4.2-0.6-5.5,6.6-10.2,3.1c-0.2-1.2,1.6-0.8,1.3-1.7c-2.9-2.6-5.4-1.9-7.9,1.1c-1.5-2.6-3.8-3.4-6.2-3.3
	c-0.6-1.2,1.4-1.1,0.8-2.1c-2.4-1.2-4.4-2.8-6.8-5.3c4.5,0.2,8-0.1,11.7-2.8c-6,0.3-11.2-1.3-15.7,1.6c-0.7,1.4,1.1,1.6,0.7,3.2
	c-2.1,0.6-3.9,1.9-4,4.9c3.2,0.1,6.5,0,8.4,3.4c-2.5,0.9-5.2,1.4-7.2,3.3c-1.4-2.5-5.2-3.4-7.7-1.6c-1.1,0.8-2.1,1.4-3.5,1.1
	c-3.4-0.7-6.8-0.3-10.2,0c-3.5,0.3-7.1,0.5-10.7-1.9c4.5-0.4,8.5,0.6,12.3-1c-0.1-0.6-1.1-0.7-0.5-1.7c1-0.1,2.1-0.2,3.3-0.4
	c-4.1-1.1-9.1,0-11.1-5c-0.1-1.5,2.1-0.9,1.7-2.5c-4-1-7,2.2-10.9,2.3c0.6,1.2,0.9,2,1.3,2.8c-1.1,0.5-1.8,0.4-2.5-0.5
	c-1.1-1.3-2.8-1.4-4.2-0.6c-3.6,2.1-7.9,1.4-11.5,1.3c-5.4-0.2-10.6,0.1-15.9,0.6c-6.3,0.7-11,3.4-14.6,8.1c7,1.7,12.4-2.7,18.2-6
	c0.1,1.6-1.5,1.5-1.4,2.7c4.9,3.1,9.8-1.2,15.4-0.2c-4.2,1.1-7.8,1.3-11,3.2c7.1-0.4,14.4,1.1,21.3-1.6c2-0.8,2.2,1.3,3.7,1.3
	c0.5,0-0.1,1.6-0.2,3.1c-3.5-2.9-7.2-1.6-10.7-1.1c-3.4,0.4-6.7,1.3-10,1.9c-0.3,0.1-0.6-0.2-0.7-0.2c0.7-1.6,2.3-0.5,2.8-1.7
	c-0.9-1.2-2.3-1-3.3-0.6c-7.1,2.9-15-0.4-22.1,3.4c-3.7,2-8.1,1.5-12.2,2.7c-8.5,2.5-15.1,8.9-24,10.3c-0.3,0-0.6,0.4-0.8,0.6
	c-6.9,6.9-13.2,14.3-18.8,22.8c7.8-2.1,15.5-2.5,23.1-0.8c0,0-0.2,0.5-0.5,1.3c3.1-1.1,3.9,3.7,7.3,1.9c-0.5,3.1,0.5,4.8,2.8,6.4
	c2.8,1.8,4.7,4.5,8.7,4.9c2.4,0.2,5.6,0.6,7.6,3c-1.3,2.7-2.8,1.9-4.4,0.6c-3-2.4-6.4-3.3-10.2-2.8c2.1,1.4,4.4,2.7,6.8,3.4
	c2.9,0.8,4,3,3.6,5.3c-1.2,6.3-3.8,12.4-1.5,19c-2.3,3.5,0.7,5.6,2.1,8c0.8,1.4,1.8,2.9,2.6,4.2c1.8,3,2.7,7.2,7.4,7.9
	c2.6,0.4,5.3,1.9,6.3,4.6c2.1,5.5,3.7,11.3,8.5,15.4c0.6,0.5,1.4,1.3,1.3,1.7c-0.3,1.4-1.6,0.9-1.4,2.2c3.4,0.4,6.8,2.5,7.2,5.4
	c0.7,5.4,5.2,6.4,8.2,9.6c0.7-2,0.3-3.1-1.2-3.5c-1-0.3-1.8-0.8-2.1-1.7c-1.5-4.4-4.3-8.1-6.1-12.2c-0.9-2-1.9-3.6-3.8-4.9
	c-2.8-1.9-3.8-4.8-3.4-8c4.3-0.2,6.3,2.1,7.2,5.6c0.6,2.4,2,4.1,3.8,5.8c3,2.8,7.3,4.6,8.1,9.4c0.1,0.4,0.8,0.9,1.3,1.1
	c4.8,2.4,7.4,6.7,9.5,11.4c0.6,1.4,2.3,2.8,1.6,4.1c-2.7,5,1.4,6,4.2,7.8c6.7,4.1,14.3,6.1,21.4,9.2c2.3,1,5.4,2.7,8.3,1.4
	c5.4-2.4,7.7-2.1,10.9,2.8c4.3,6.4,11.5,6.2,17.6,8.1c1.8,0.6,3.6,0.2,4.7,2.3c0.4,0.8,1.3,1.4,2,2c2,1.5,3.8,3.1,3.6,6
	c-0.1,1,0.4,2.1,2,1.8c2.6-0.5,4.2,1.2,5.5,2.8c0.8,1,1.9,2.6,2.8,2.4c3-0.4,4.7,1.3,6.7,2.9c1,0.8,3.5,1.2,3.3-0.7
	c-0.4-3.9,2.6-3.3,4.5-4.8c1.2,5.6,5.5,9.8,4.5,15.5c-0.3,1.7,1.7,3.8-0.1,4.8c-3.4,1.9-4.9,5.4-7.6,7.5c-1.8,1.4-2.4,2.9-2.7,4.8
	c-0.2,1.3-0.5,2.5-0.8,3.8c-0.6,3-1.3,6.1,3.6,6.6c-1.4,1.2-2.3,2.1-3.3,3c-3,3-3.1,5.6-0.2,8.5c1.4,1.5,2.8,3.1,4.2,4.4
	c5.5,5,5.5,12.5,8.7,18.5c1.2,2.3,2,4.5,4.4,5.6c3.5,1.6,7.1,3.1,10.7,4.3c4.5,1.5,6.1,3.4,6.4,8.2c0.4,5.1-1.4,10-2.2,14.9
	c-1.1,6.4-4.4,12.4-4.5,19.1c0,3.6-1.3,7-4,9.4c-4.1,3.7-3.3,9.2-5.4,13.7c-0.1,0.1,0.1,0.4,0.2,0.6c0.8,0.8,1.8-0.7,3,0.7
	c-3.1,2.6-2.6,8.9-9.9,7.8c2.8,2.8,0.6,3.8-0.2,4.4c-1.4,3.6,3.5,4.7,1.4,8.2c7.6,0.6,15.1,3.1,22.3-0.7c-3.8-0.6-3.8-0.6-7.8-4.4
	c3.9-2.3,7.6-4.7,11.5-7c-1.1-1.5-3.2-0.5-3.8-3.2c5.4-0.3,9.1-3.9,13.1-7.3c-1-0.4-2.3,1.1-3.1-0.5c-0.3-0.5-0.7-1.1-0.3-1.6
	c0.8-1.2,2-1,3.2-0.7c2.1,0.5,4.3,0.4,4.9-2c0.7-2.7,2.5-3,4.7-3.3c5.1-0.7,9.9-2.2,12.9-6.9c-1.1-1.6-2.2-3.1-3.6-5
	c1.8,0,3.2-0.1,4.6,0c3.7,0.2,7.2-0.1,9.6-3.2c3.3-4.3,7.3-8,11.2-11.7c2.7-2.6,5.7-5,5.4-9.4c-0.1-1.5,1-2.4,2.3-3.3
	c5.1-3.7,9.9-7.8,16.1-9.6c1.1-0.3,2.1-1.2,2.6-2.3c1-2.2,2.7-3.9,3.8-5.9c2.8-5.1,5.7-10.3,6-16.3c0.1-2.1,0.7-3.6,2.1-5.3
	c4.5-5.3,8.9-10.8,10.6-17.7c1.2-4.8,0.9-5-3.8-5.9c-0.2,0-0.5-0.1-0.7-0.2c-3.3-4.3-7.5-4.9-12.7-4.6c-1.6,0.1-3.4-0.2-5.1,0.6
	C378.5,285.3,372,283.5,368,286.6z M389.9,80.4c-11.6-12.2-24.2-22.2-37.6-31.3c-8.5-5.7-17.5-10-27.5-11.8
	c-5.2-0.9-10.4-2.1-15.9-1.9c-4.5,0.1-9.2-0.2-14.3-0.8c2.3,2.2,5.3,0.8,7.9,3.1c-7.8-0.2-14.7-1.5-22.3-0.7
	c6.5,2.4,12.9,2.4,18.9,3.6c-3.6,0.8-7-1-10.2-0.2c4.6,3.5,10.4,3.5,16,4c11.1,0.9,21.4,3.8,29.5,11.9c0,0.7-1.4,0.8-0.4,2.1
	c4.2-0.2,7.9,1.4,11.6,4.4c-7.4-1.5-7.4-1.5-9.1-0.7c2.9,4.2,7.6,0.6,11.1,2.5c-1.4,3.5-5.9,0.4-7.2,3.6c1.2,2.6,3.7,4,5.3,6
	c1.1,1.4,3.3,0.7,3.7,2c1.5,5.3,6.4,6.8,10.1,9.6c1.5,1.1,3.9-0.2,5.3,1.3c1.9,2.1,4.3,2.7,6.8,3.2c2-1.2,1.4-3.2,1.4-4.7
	c0.8-1.1,2.1-0.5,2.5-1.6c0.1-0.9-1.2-1.6-0.1-2.6c4.3-0.5,8.2,1.8,12.7,2c-0.4-1.1-0.7-1.8-1-2.7C388,80.8,388.8,80.6,389.9,80.4z
	 M272.4,211.3c8.5,1.1,8.5,1.1,11.3-0.6c-0.9-1.3-2-2.1-3.5-2.7c-2.4-0.9-5.2-1-7.2-2.7c-4-3.4-9.2-4-13.9-5.4
	c-5.4-1.7-10.6,0.6-12.5,4.9c1.4-0.7,2.6-1.4,3.8-1.9c1.5-0.6,3.6-1.8,4.6-0.7c1.6,1.6,3.3,1.3,5,1.7c4.4,0.9,8.4,2.9,12.2,5.2
	C273.5,209.8,271.6,210.4,272.4,211.3z M341.4,106.4c-5,2.5-6,7.7-9,11.4c5.3-0.6,10,2.7,15.4,1.9c0.2,0.2,0.5,1,1.2,1.4
	c0.8,0.5,1.6,2.4,2.8,0.8c0.9-1.2,0-2.2-1.2-2.6c-1.7-0.5-1-2.2-1.7-3.2c-0.4-0.6-0.1-1.9-1.2-1.8c-3.2,0.3-5.3-2.1-8-2.8
	C340.1,109.8,341.9,109.2,341.4,106.4z M146.3,48.7c7.7,0.5,31.1-4.2,33.2-6.8c-1.4-0.3-2.6-0.2-3.8,0.3c-1.2,0.4-2.7,0.8-3.7-0.2
	c-2.2-1.9-3.7-0.3-5.5,0.6c0.5,0.7,1.4,0.4,1.5,1.5C160.8,45.8,152.4,42.3,146.3,48.7z M305,217.1c-4.5-6.2-10.6-5.2-16.7-5.3
	c0.7,1.7,2.8,2.5,1.4,4.8c-1.6,0-3.2,0-4.9,0c2.9,2.4,7-0.6,9.5,2.7C297.5,217.6,301,217.1,305,217.1z M235.6,66
	c8.1,1.8,15.3-1.5,22.6,0.7c-3.9-2-7.9-3.5-12.1-4.3c-3.3-0.6-6.8-2.6-8.2,2.6C237.8,65.4,236.9,65.5,235.6,66z M188.8,47.7
	c5.9,0.2,11.8,3.8,18.2-0.4c-2.9-0.8-3.7-4.5-7.1-3.1c-2.4,1-5.3-0.2-7.7,1.5c0.6,0.7,1.9-0.1,2.3,1.1
	C192.7,48.2,190.6,46.8,188.8,47.7z M181.7,34.8c1.8,1.7,15,2.2,17.6,0.9C193.5,33.2,187.7,35.2,181.7,34.8z M159.6,41.9
	c4.1,0.1,7.4-0.7,10.1-3.7C165.7,37.9,162.6,39.1,159.6,41.9z M208.4,54.9c-3.8-2.3-7.3-2.3-10.9,0.3
	C201.2,54.8,204.7,56.9,208.4,54.9z M207.6,40.9c6.4,1.1,6.4,1.1,8.1-0.7C213,39,210.5,39.1,207.6,40.9z M275.5,58.4
	c-3.6-2-4.1-2-6.6-0.1C271,59.5,273,59.6,275.5,58.4z M276.2,218c-1.9-0.4-3.5-2.4-5.8-0.5C272.6,219.5,272.6,219.5,276.2,218z
	 M316.1,109.7c2.1,1.2,4,2.7,7.5,2.7C320.8,110.6,318.6,109.7,316.1,109.7z M329.8,122.8c-0.6-1.1-0.7-2.2-1.8-3
	c-1,0.8-2.2,1.4-1.6,3.1C327.4,123.3,328.4,123.5,329.8,122.8z M314.5,218c-1.3-0.8-2.6-2-4.5-0.6C311.5,218.9,313,218.8,314.5,218z
	 M312.6,420c2.4-0.9,4.8-0.1,6.4-2.2C317.1,418.9,314.5,417.8,312.6,420z"/>
<path class="st2" d="M368,286.6c4.1-3.1,10.5-1.3,11.7,3.5c1.7-0.8,3.5-0.5,5.1-0.6c5.1-0.4,9.4,0.3,12.7,4.6
	c0.1,0.2,0.4,0.2,0.7,0.2c4.7,0.9,5,1.1,3.8,5.9c-1.7,6.9-6.1,12.4-10.6,17.7c-1.4,1.7-2,3.1-2.1,5.3c-0.3,6-3.2,11.2-6,16.3
	c-1.1,2-2.8,3.7-3.8,5.9c-0.5,1.1-1.5,2-2.6,2.3c-6.2,1.8-11,6-16.1,9.6c-1.2,0.9-2.4,1.8-2.3,3.3c0.3,4.4-2.7,6.8-5.4,9.4
	c-3.9,3.7-7.9,7.4-11.2,11.7c-2.4,3.2-6,3.5-9.6,3.2c-1.4-0.1-2.7,0-4.6,0c1.4,1.9,2.5,3.4,3.6,5c-3,4.8-7.8,6.2-12.9,6.9
	c-2.2,0.3-4,0.6-4.7,3.3c-0.6,2.4-2.8,2.5-4.9,2c-1.2-0.3-2.4-0.5-3.2,0.7c-0.4,0.6,0,1.1,0.3,1.6c0.8,1.6,2.1,0.1,3.1,0.5
	c-4,3.3-7.7,6.9-13.1,7.3c0.6,2.7,2.7,1.7,3.8,3.2c-3.8,2.3-7.6,4.6-11.5,7c4,3.8,4,3.8,7.8,4.4c-7.2,3.7-14.6,1.2-22.3,0.7
	c2.1-3.5-2.8-4.6-1.4-8.2c0.8-0.6,2.9-1.6,0.2-4.4c7.3,1.1,6.8-5.2,9.9-7.8c-1.2-1.4-2.2,0.1-3-0.7c-0.1-0.2-0.3-0.4-0.2-0.6
	c2.1-4.4,1.3-10,5.4-13.7c2.7-2.5,4-5.8,4-9.4c0.1-6.7,3.4-12.7,4.5-19.1c0.8-4.9,2.6-9.8,2.2-14.9c-0.3-4.7-1.9-6.6-6.4-8.2
	c-3.6-1.3-7.2-2.7-10.7-4.3c-2.3-1.1-3.1-3.4-4.4-5.6c-3.3-6-3.3-13.5-8.7-18.5c-1.4-1.3-2.8-3-4.2-4.4c-2.9-3-2.9-5.6,0.2-8.5
	c0.9-0.9,1.9-1.7,3.3-3c-4.9-0.5-4.2-3.6-3.6-6.6c0.3-1.3,0.6-2.5,0.8-3.8c0.3-2,0.9-3.4,2.7-4.8c2.7-2.2,4.2-5.7,7.6-7.5
	c1.8-1-0.2-3.1,0.1-4.8c1-5.7-3.3-10-4.5-15.5c-1.9,1.5-4.9,0.9-4.5,4.8c0.2,1.9-2.2,1.5-3.3,0.7c-2-1.7-3.7-3.3-6.7-2.9
	c-1,0.1-2-1.4-2.8-2.4c-1.4-1.7-3-3.4-5.5-2.8c-1.6,0.3-2-0.8-2-1.8c0.2-3-1.6-4.5-3.6-6c-0.7-0.6-1.6-1.2-2-2
	c-1-2.1-2.8-1.7-4.7-2.3c-6.2-1.9-13.4-1.7-17.6-8.1c-3.2-4.9-5.5-5.2-10.9-2.8c-2.9,1.3-6-0.4-8.3-1.4c-7.1-3-14.7-5-21.4-9.2
	c-2.9-1.8-6.9-2.7-4.2-7.8c0.7-1.3-1-2.7-1.6-4.1c-2.1-4.7-4.6-9-9.5-11.4c-0.5-0.3-1.2-0.7-1.3-1.1c-0.8-4.8-5.1-6.6-8.1-9.4
	c-1.8-1.6-3.2-3.4-3.8-5.8c-0.9-3.5-2.9-5.8-7.2-5.6c-0.4,3.2,0.6,6.1,3.4,8c1.8,1.3,2.9,2.9,3.8,4.9c1.8,4.2,4.6,7.9,6.1,12.2
	c0.3,0.9,1.1,1.4,2.1,1.7c1.6,0.4,1.9,1.5,1.2,3.5c-3-3.2-7.5-4.1-8.2-9.6c-0.4-2.9-3.8-5-7.2-5.4c-0.1-1.2,1.1-0.8,1.4-2.2
	c0.1-0.4-0.7-1.1-1.3-1.7c-4.8-4.1-6.4-9.8-8.5-15.4c-1-2.7-3.7-4.2-6.3-4.6c-4.7-0.8-5.6-4.9-7.4-7.9c-0.8-1.4-1.8-2.8-2.6-4.2
	c-1.4-2.4-4.5-4.5-2.1-8c-2.3-6.6,0.3-12.7,1.5-19c0.4-2.3-0.7-4.5-3.6-5.3c-2.4-0.7-4.6-1.9-6.8-3.4c3.8-0.5,7.3,0.5,10.2,2.8
	c1.7,1.3,3.1,2.1,4.4-0.6c-2-2.4-5.2-2.8-7.6-3c-3.9-0.4-5.9-3-8.7-4.9c-2.3-1.5-3.3-3.2-2.8-6.4c-3.4,1.8-4.2-3-7.3-1.9
	c0.3-0.8,0.5-1.3,0.5-1.3c-7.6-1.7-15.4-1.3-23.1,0.8C74.9,92.3,81.2,85,88,78.1c0.2-0.2,0.5-0.6,0.8-0.6c8.9-1.3,15.5-7.8,24-10.3
	c4.1-1.2,8.5-0.8,12.2-2.7c7-3.8,15-0.5,22.1-3.4c1-0.4,2.3-0.6,3.3,0.6c-0.5,1.2-2.1,0.2-2.8,1.7c0.1,0,0.5,0.3,0.7,0.2
	c3.3-0.6,6.7-1.5,10-1.9c3.5-0.5,7.2-1.8,10.7,1.1c0.1-1.5,0.7-3.2,0.2-3.1c-1.5,0-1.7-2.1-3.7-1.3c-6.9,2.6-14.1,1.2-21.3,1.6
	c3.2-1.9,6.8-2.1,11-3.2c-5.7-1-10.5,3.3-15.4,0.2c-0.1-1.2,1.5-1.1,1.4-2.7c-5.8,3.3-11.2,7.7-18.2,6c3.5-4.7,8.3-7.5,14.6-8.1
	c5.3-0.6,10.5-0.8,15.9-0.6c3.6,0.1,7.8,0.8,11.5-1.3c1.4-0.8,3.1-0.7,4.2,0.6c0.8,0.9,1.4,1,2.5,0.5c-0.4-0.8-0.8-1.6-1.3-2.8
	c3.9-0.1,6.9-3.3,10.9-2.3c0.4,1.6-1.8,1-1.7,2.5c2,5,7,3.9,11.1,5c-1.1,0.1-2.2,0.3-3.3,0.4c-0.6,0.9,0.4,1,0.5,1.7
	c-3.8,1.6-7.8,0.7-12.3,1c3.6,2.4,7.2,2.2,10.7,1.9c3.4-0.3,6.8-0.7,10.2,0c1.4,0.3,2.3-0.3,3.5-1.1c2.5-1.8,6.3-0.9,7.7,1.6
	c2.1-1.8,4.7-2.3,7.2-3.3c-1.9-3.5-5.2-3.3-8.4-3.4c0.1-3,1.9-4.3,4-4.9c0.4-1.6-1.4-1.7-0.7-3.2c4.5-2.9,9.8-1.3,15.7-1.6
	c-3.7,2.7-7.2,3-11.7,2.8c2.4,2.5,4.4,4.1,6.8,5.3c0.6,0.9-1.4,0.9-0.8,2.1c2.4,0,4.7,0.8,6.2,3.3c2.4-2.9,5-3.6,7.9-1.1
	c0.4,1-1.5,0.5-1.3,1.7c4.8,3.5,6-3.8,10.2-3.1c-3.7-4.1-8.6-1.7-13-3.8c1.7-0.2,2.7-0.4,4-0.6c-2.5-1.2-5.5,0.6-7.4-2.1
	c4.1-4,9-4.4,14.2-3.9c-0.4,1.4-2.1,0.8-2.8,2c0.1,1,0.3,2.1,1.9,2.1c1.7,0.1,1.5-0.9,1.3-2c0-0.1,0.3-0.4,0.4-0.5
	c1.7-1.5,12.8-1.5,14.4,0.2c2.3,2.6,5.2,2.3,8.1,2c1.1-0.2,2.3-0.4,3.4-1c-1.9,0-3.8,0-5.7,0c-1.9,0.1-3.6-0.5-5.4-2.3
	c5.4,0.4,10.1,0.6,14.9,2.9c3.4,1.7,7.1,3.5,11.2,3.9c5.7,0.5,11,3.1,16.5,4.7c0.1,0.7-0.5,0.6-0.8,0.8c2.1-0.2,1.5,2.2,3.1,3
	c5.5,2.5,11.1,4.5,17.1,5.9c-5,3.6-9.5,2.8-13.8-0.5c-1.3-1-3-1.2-4.7-0.2c2.5,4.1,8.2,2.7,10.7,6.9c-2.2,2.7-4.8-0.8-7.1,0.6
	c0.6,0.5,1.3,1,2.6,1.9c-8.9-1.6-16.8-3.7-24.2-7.3c-3-1.4-6.1-1.1-9.1-0.7c-2.3,0.3-4.3-0.2-6.5-1.4c4.1-2.8,9,0.8,12.7-2
	c1.7-0.9,3.7-0.7,5.2-2.7c-4-2.7-8.2-4.5-13.1-3.7c-0.8-0.5,1-1.3-0.2-1.6c-3.1-0.9-5.9-3.1-9.4-1.6c-0.8,0.4-2.1,0.8-2.7,0.5
	c-3.3-1.9-5,0.1-6.7,2.3c0.3,1.3,1.8,1,2.5,2.3c-5,2.9-10.2,2.9-15.3,1.4c-4,5-8.8,1.4-13.9,1.3c3.2,2.2,6.4,1.5,9.4,2
	c-2.8,2.4-8.4,4-14,4.2c0,0.9,1.2,0.4,1.3,1.4c-5.2-0.3-7.8,3.6-10.9,6.7c-1.5,1.5-1.3,3.7-0.7,5.9c3.2-1.2,5.2,0.1,6.5,3
	c0.3,0.8,0.7,1.7,1.7,1.3c5-2,9.5,0.8,14.1,1.6c5.5,1,10.8,3.1,16.4,3.9c2.5,0.4,3.9,1.6,4.2,4.3c0.4,3.3,7,8.2,10.3,7.7
	c2.3-0.3,3.3-1.8,2.7-4.2c-0.5-2-0.9-4.1-2.9-5.1c2.9-2.5,8.1-1.4,8.8-6.6c0.6-4.6-3.8-4.4-6.1-6.2c4.4-2.5,4.4-2.5,0.3-6
	c0.8-0.4,1.5-0.7,2-0.9c-0.2-1.5-1.7-1.5-1.6-2.8c0.2-0.2,0.5-0.4,0.8-0.5c0.7-0.2,1.4-0.5,2.1-0.4c6.4,1.7,13.5,0.6,19.2,4.9
	c0.9,0.7,2.2,0.8,3.3,1c1.3,0.3,2.1,0.9,2.2,2.3c0.1,4.1,3.7,5.3,6.4,5.9c2.5,0.5,5.6-0.6,7.3-3.1c1.4-2.1,2.5-1.4,4.1-0.6
	c3.5,1.7,6.4,5,7.9,7.7c3.3,6.2,9,7.3,14.7,9.8c-2.4,1.3-4.9,1.2-7.2,2c2.1,0,4.2,0.2,6.3,0c4.1-0.4,5.7,0.8,6.9,5.2
	c-1,1.1-2.4,1.2-3.8,1.3c-1.1,0.1-2.4-0.2-3.1,0.4c-6.1,4.4-12.5,1-18.7,0.7c-4-0.2-8.1-1.6-11.1,2.8c-1.1,1.6-3.8,1-5.4,2.9
	c1.3,0.7,2.3,0,3.2-0.5c3.1-1.6,6.4-1.6,9.7-1.3c1.3,0.1,2.9,0.1,3.2,1.6c0.3,1.8-1.5,1.8-2.6,2.2c-0.3,0.1-0.6,0.4-0.6,0.4
	c3.5,4.3,7.7,7.7,14.3,7.5c-1.7,2.4-3.7,2.5-5.3,3c-2.2,0.7-4.6,1.2-6.4,2.8c-1.6,1.4-2.7,0.8-3.7-0.7c-1.2-1.8,0.2-2.6,1.4-3.3
	c1-0.6,2.1-0.8,3.1-1.8c-2.7-0.9-5.3,2.4-8.2-0.1c-0.3,2.7-1.7,3.2-3.8,3.5c-2.4,0.3-4.8,1.1-7.1,2.1c-3.1,1.4-1.4,3.7-0.6,5.9
	c-4.4,1-8.9,1-13,3c0.6,3.2-0.8,5.5-3.8,6.1c0.7,3.1,0.7,3.1-2,6c-0.9-1.1-0.2-2.9-2.1-3.9c0.9,4.4,1.7,8.6,0.1,13.2
	c-3.8,1.4-7.5,4.3-11.8,6.2c-6,2.6-7.4,8.1-4,13.7c2,3.3,3.3,6.9,3.2,10.9c0,1.5-0.4,2.9-2.2,3.2c-1.5,0.3-1.8-1-2.6-1.9
	c-3.5-3.6-5.5-7.7-6.3-12.7c-0.6-3.3-3-4.2-6-2.8c-0.9,0.4-1.9,0.8-2.7,0.2c-4.6-3.6-9.9-1.2-15-2c-0.2,1.7-0.4,3.1-0.5,4.5
	c-0.9,0.6-1.9,0.5-2.6-0.1c-3.4-2.7-7.6-1.4-11.3-2.2c-2.2-0.5-13.6,6.4-14.5,8.4c-0.2,0.5-0.7,1.1-0.6,1.6
	c1.1,6.9-2.7,13.9,0.2,20.8c2.2,5.2,6.1,9.1,11.2,11.5c1,0.5,2.1,0,3.1-0.4c1.2-0.4,2.7-1.2,3.7-0.8c4.7,1.4,6.4-2.3,7.2-5.1
	c1.2-4.2,4-4.5,7.2-4.6c2.3-0.1,4.6,0.4,7.5,0.6c-2.4,6.6-4.7,12.9-7.2,19.9c0.2,0.7,1.5,0.5,2.6,0.5c2.8-0.2,5.6-0.4,8.4-0.6
	c2.5-0.2,4.8,0.2,7.1,1.5c1.6,0.9,2,2,2,3.7c-0.1,4-1,7.9-0.9,11.9c0.1,2.7,1,4.5,3.4,5.6c0.8,0.4,1.8,0.9,2.3,1.6
	c1.8,2.4,3.9,2,6.3,1.1c5.7-2.3,5.8-2.2,9.8,2.3c0.5,0.6,1,1.3,2.3,1.2c1.4-2.1,4.1-3.4,4.7-6.5c0.3-1.6,1.8-2.1,3.1-2.6
	c3.7-1.3,7.9-1.6,11.1-4.2c0.7-0.6,1.6-0.2,2,0.7c-2.9,5.1-3,6.9-0.5,9.8c1.6-0.8,1.8-2,0.9-3.4c-1.5-2.4-0.4-3.4,1.8-4
	c3.3-0.9,6.6-1.5,9.1,1.7c0.7,0.9,1.7,0.7,2.6,0.7c2.2,0.1,4.4-0.2,6.5,1c1.5,0.8,3-0.4,4.6-1.1c1.8-0.8,4-2.5,5.4,0.9
	c0.4,1,1.7,1.2,2.7,1.5c0.8,0.2,2,0.4,2.2,0.9c2,4.4,7.6,4.1,10,8.1c2.1,3.4,6.2,3.3,9.8,3.4c3.7,0.2,7.1,0.8,10.1,3.5
	c1.3,1.2,2.3,2.1,2.6,3.9c0.3,1.9,1.1,3.8,2.7,5.3c-1.1,1.6-2.2,3-3.1,4.4c-3.5,5.5-2.8,7.4,3.7,9.6
	C366.9,289,367.9,288.1,368,286.6L368,286.6z M231.9,113.1c0.2,0.2,0.4,0.4,0.6,0.5c-0.2,0.7,0,0.9,0.7,1.2
	c4.5,1.8,9.3-0.2,13.8,1.3c-0.3,2-1.8,1.4-3,1.4c-7.3,0.1-7.5,0.2-9.6,6.6c-0.6,1.9-1,3.9-1,5.9c0,1.2,0.5,2,1.7,2.3
	c1.3,0.3,2.3-0.2,2.9-1.4c0.6-1.1,0.5-2.3,0.5-3.4c0.1-3.2-0.3-5.9,3.9-7.9c2.8-1.3,4.2-0.6,6.2,0.3c2.6,1.1,0.2,3,0.5,4.8
	c2.5-1.1,2.3,2.2,4.1,2.4c2.3-1.3,1.9-4,3.3-5.7c1.5,0.6,2.8,2.2,4.5,0.1c-0.4-1.8-1.8-3-3.3-3.1c-3.7-0.2-7-1.9-10.6-2.3
	c-0.9-1-2.5-1-3-2.7c-0.9-3.1-4-4.6-6.3-4.7c-1.8-0.1-3.6-2.5-5.3-0.5c-0.9,1.2-2,1.2-3.3,1.6c-3.6,1-7.1,2.6-9.9,5.2
	C223.9,116.6,227.9,114.6,231.9,113.1z M275.2,125c-4.1-0.3-10.7,0.9-12.7,2.3C271.6,128,272.7,127.8,275.2,125z M250.5,131.4
	c1.9,2.3,4.9,2,9.9-0.8C257,128.2,253.9,131.9,250.5,131.4z"/>
<path class="st2" d="M389.9,80.4c-1.1,0.2-1.8,0.4-2.7,0.5c0.3,0.9,0.6,1.6,1,2.7c-4.5-0.2-8.4-2.5-12.7-2c-1.1,0.9,0.2,1.7,0.1,2.6
	c-0.4,1.1-1.8,0.5-2.5,1.6c0,1.5,0.6,3.4-1.4,4.7c-2.5-0.5-4.9-1.1-6.8-3.2c-1.4-1.6-3.8-0.2-5.3-1.3c-3.7-2.8-8.6-4.4-10.1-9.6
	c-0.4-1.2-2.6-0.6-3.7-2c-1.6-2.1-4.1-3.4-5.3-6c1.3-3.1,5.8-0.1,7.2-3.6c-3.5-1.9-8.3,1.7-11.1-2.5c1.7-0.8,1.7-0.8,9.1,0.7
	c-3.7-3-7.5-4.7-11.6-4.4c-1-1.3,0.4-1.4,0.4-2.1c-8.1-8.1-18.4-11-29.5-11.9c-5.6-0.5-11.4-0.5-16-4c3.2-0.8,6.6,1,10.2,0.2
	c-6.1-1.2-12.4-1.2-18.9-3.6c7.7-0.8,14.6,0.5,22.3,0.7c-2.6-2.4-5.6-0.9-7.9-3.1c5.1,0.6,9.8,0.9,14.3,0.8c5.5-0.2,10.7,1,15.9,1.9
	c10,1.8,19,6.1,27.5,11.8C365.7,58.3,378.3,68.2,389.9,80.4z"/>
<path class="st2" d="M235,33.4c-3.2-0.5-6.3,0.6-9.5,0.9c-3.5,0.3-6.6-0.1-9.9-1.3c-2.1-0.8-4.6-0.7-7.3-1
	c7.3-5.3,14.9-1.6,22.6-1.8c-1.4-1.7-3.5-0.9-4.6-2.1c2.7-1.6,27.5-2.8,42.1-1.6c14.2,1.1,28.4,3.1,42.6,7.1c-3.7,1-6.7-0.9-9.6-0.6
	c-5.6,0.5-11.3-0.3-16.9,0.7c-2,0.4-3.9,0.2-5.9,0c-2.3-0.2-5-1.6-6.8,1.6c-0.4,0.7-2.5,0.9-3.7,0.7c-2.7-0.5-4.9,0.5-7.3,1.2
	c0.7,0.8,1.9-0.1,2.8,1.4c-11.9-1-23.5-1-35.1-1.2c3.5-1.2,6.6-4,10.9-1.5C238.4,33.1,235.9,35,235,33.4c2.6-0.5,5.5,0.7,8.6-1.2
	C240.2,31.7,237.5,32.3,235,33.4z M247.9,30.9c-3.5-1.9-7.4,0.2-11-1.2C240.5,30.5,244.3,29.8,247.9,30.9z"/>
<path class="st2" d="M272.4,211.3c-0.8-0.9,1.1-1.4-0.1-2.2c-3.8-2.3-7.8-4.4-12.2-5.2c-1.8-0.3-3.5-0.1-5-1.7
	c-1.1-1.1-3.1,0.2-4.6,0.7c-1.3,0.5-2.5,1.2-3.8,1.9c1.9-4.2,7.1-6.5,12.5-4.9c4.7,1.5,9.9,2,13.9,5.4c2,1.7,4.8,1.7,7.2,2.7
	c1.5,0.6,2.6,1.4,3.5,2.7C280.9,212.4,280.9,212.4,272.4,211.3z"/>
<path class="st2" d="M210.9,35.5c1.8,0,3.5,0,5.3,0c0.2,1-0.9,0.5-1.1,0.9c0.1,0.1,0.2,0.5,0.3,0.4c5.2-0.6,10.1,1.5,15.1,2.3
	c7.7,1.2,15.3-0.7,22.9-0.1c2,0.2,3.9,0.2,6.2,1.8c-3,1.7-5.9,1.2-8.4,0.9c-4.3-0.6-8.6-0.1-13-0.4c-4.8-0.3-9.5,0-14.3-0.1
	c-1.7,0-3.5,0.1-4.5-2.1c-0.5-1.1-2.5-1.6-4.1-1.3c-2.7,0.6-5.3-0.5-8.2-0.2C207.9,35.5,210.2,37.1,210.9,35.5L210.9,35.5z"/>
<path class="st2" d="M341.4,106.4c0.5,2.8-1.4,3.4-1.7,5c2.7,0.7,4.8,3.1,8,2.8c1.1-0.1,0.8,1.2,1.2,1.8c0.6,1,0,2.7,1.7,3.2
	c1.2,0.4,2.2,1.4,1.2,2.6c-1.2,1.6-2-0.2-2.8-0.8c-0.6-0.4-1-1.2-1.2-1.4c-5.5,0.8-10.2-2.5-15.4-1.9
	C335.5,114,336.4,108.9,341.4,106.4z"/>
<path class="st2" d="M146.3,48.7c6.1-6.4,14.5-3,21.7-4.6c-0.1-1.2-1-0.8-1.5-1.5c1.8-0.9,3.3-2.4,5.5-0.6c1.1,0.9,2.5,0.6,3.7,0.2
	c1.3-0.4,2.5-0.5,3.8-0.3C177.4,44.5,154,49.2,146.3,48.7z"/>
<path class="st2" d="M305,217.1c-4,0-7.5,0.5-10.8,2.2c-2.5-3.3-6.6-0.3-9.5-2.7c1.7,0,3.4,0,4.9,0c1.4-2.2-0.7-3.1-1.4-4.8
	C294.3,211.9,300.5,210.9,305,217.1z"/>
<path class="st2" d="M235.6,66c1.3-0.6,2.1-0.7,2.2-1c1.4-5.2,4.9-3.2,8.2-2.6c4.2,0.8,8.2,2.3,12.1,4.3
	C251,64.5,243.7,67.9,235.6,66z"/>
<path class="st2" d="M188.8,47.7c1.8-0.9,3.9,0.5,5.7-0.9c-0.4-1.2-1.7-0.3-2.3-1.1c2.4-1.6,5.3-0.5,7.7-1.5
	c3.4-1.4,4.2,2.3,7.1,3.1C200.6,51.4,194.7,47.9,188.8,47.7z"/>
<path class="st2" d="M181.7,34.8c6,0.4,11.8-1.6,17.6,0.9C196.6,37,183.5,36.5,181.7,34.8z"/>
<path class="st2" d="M368,286.6c-1.6,1.1-3.1,1.8-4.9,0.2c-1.2-1.1-1.3-2.1-0.7-3.4c0.7-1.4,1.8-1.3,3-0.9c1.1,0.4,2.1,0.8,3.2,1.1
	C368.4,284.6,368.2,285.6,368,286.6L368,286.6z"/>
<path class="st2" d="M192.6,39c3.3-1.3,6.8,0,10.6-1.5c-1.3,3.3-5.5,5.2-7.6,4.3c-0.8-0.3-0.5-1-0.5-1.4
	C194.8,38.7,193.8,38.7,192.6,39L192.6,39z"/>
<path class="st2" d="M150.1,43.9c0.2,2.1-1.8,2.3-2.8,2.4c-2.9,0.5-5.6,1.5-8.1,2.9c-1,0.6-2.7,0.2-4,0.1
	C140,47.4,144.6,44.3,150.1,43.9L150.1,43.9z"/>
<path class="st2" d="M159.6,41.9c3-2.8,6.2-4,10.1-3.7C167,41.2,163.7,42.1,159.6,41.9z"/>
<path class="st2" d="M208.4,54.9c-3.7,1.9-7.2-0.1-10.9,0.3C201.2,52.6,204.7,52.6,208.4,54.9z"/>
<path class="st2" d="M210.9,35.5c-2.8-0.2-5.7,0.5-8.8-1.7c3.6-0.8,6.6,0.1,9.8,0.1C211.4,34.6,211.2,35,210.9,35.5L210.9,35.5z"/>
<path class="st2" d="M207.6,40.9c2.9-1.8,5.4-1.9,8.1-0.7C214,42,214,42,207.6,40.9z"/>
<path class="st2" d="M275.5,58.4c-2.5,1.2-4.5,1.1-6.6-0.1C271.4,56.4,271.9,56.4,275.5,58.4z"/>
<path class="st2" d="M192.5,39c-0.2,1.8-1.4,2.2-3,2.1c-1.9-0.1-3.9-0.2-5.8-0.8C186.6,38.9,189.9,41.1,192.5,39L192.5,39z"/>
<path class="st2" d="M276.2,218c-3.6,1.5-3.6,1.5-5.8-0.5C272.7,215.6,274.4,217.6,276.2,218z"/>
<path class="st2" d="M316.1,109.7c2.5,0,4.7,0.9,7.5,2.7C320.1,112.4,318.2,111,316.1,109.7z"/>
<path class="st2" d="M329.8,122.8c-1.4,0.7-2.4,0.5-3.4,0.1c-0.6-1.7,0.6-2.3,1.6-3.1C329.1,120.6,329.2,121.8,329.8,122.8z"/>
<path class="st2" d="M314.5,218c-1.6,0.8-3,1-4.5-0.6C311.9,216,313.2,217.2,314.5,218z"/>
<path class="st2" d="M312.6,420c1.9-2.2,4.5-1.1,6.4-2.2C317.4,419.9,314.9,419.1,312.6,420z"/>
<path class="st2" d="M150.1,44c0.1-0.1,0.3-0.3,0.4-0.4c0.1,0.1,0.1,0.2,0.2,0.4C150.5,43.9,150.3,43.9,150.1,44L150.1,44z"/>
<path class="st1" d="M247,116.1c3.6,0.4,6.9,2.1,10.6,2.3c1.5,0.1,2.9,1.3,3.3,3.1c-1.7,2-3.1,0.4-4.5-0.1c-1.4,1.7-1,4.4-3.3,5.7
	c-1.8-0.2-1.6-3.5-4.1-2.4c-0.3-1.8,2.1-3.7-0.5-4.8c-1.9-0.9-3.3-1.6-6.2-0.3c-4.2,2-3.8,4.7-3.9,7.9c0,1.2,0.1,2.4-0.5,3.4
	c-0.7,1.2-1.6,1.7-2.9,1.4c-1.2-0.3-1.7-1.1-1.7-2.3c0-2,0.4-3.9,1-5.9c2.1-6.4,2.2-6.5,9.6-6.6C245.2,117.5,246.7,118,247,116.1
	L247,116.1z"/>
<path class="st1" d="M231.9,113.1c-4,1.5-8,3.5-12.6,2c2.8-2.6,6.2-4.2,9.9-5.2c1.2-0.4,2.4-0.4,3.3-1.6c1.7-2.1,3.5,0.4,5.3,0.5
	c2.4,0.1,5.5,1.6,6.3,4.7c0.5,1.7,2,1.8,3,2.7c0,0,0,0,0,0c-4.5-1.6-9.3,0.4-13.8-1.3c-0.7-0.3-0.9-0.5-0.7-1.2
	c0-0.2,0.1-0.5,0.1-0.7C232.4,112.9,232.2,113,231.9,113.1z"/>
<path class="st1" d="M275.2,125c-2.4,2.9-3.6,3-12.7,2.3C264.4,125.9,271.1,124.6,275.2,125z"/>
<path class="st1" d="M250.5,131.4c3.4,0.4,6.5-3.3,9.9-0.8C255.4,133.5,252.4,133.7,250.5,131.4z"/>
<path class="st1" d="M247.9,30.9c-3.6-1.1-7.4-0.4-11-1.2C240.5,31.1,244.3,29,247.9,30.9z"/>
<path class="st1" d="M235,33.4c2.6-1.1,5.2-1.6,8.6-1.2C240.4,34,237.6,32.9,235,33.4L235,33.4z"/>
<path class="st2" d="M231.9,113.1c0.2-0.1,0.5-0.1,0.7-0.2c-0.1,0.2-0.1,0.5-0.1,0.7C232.3,113.4,232.1,113.2,231.9,113.1z"/>
<path class="st3" d="M181.4,385.6c-1.7,1.9-3.3,3.5-5.2,5.6c2.9,0.2,5.2,0.4,7.6,0.6c-7.2,0.4-12.4,4.8-18.4,7.7
	c-10.2,4.8-19.4,12.3-30.8,13.8c-5.9,0.8-12-1.2-17.2-4.2c-5.3-3.1-11.3-3.4-16.8-3.4c-4.4,0-7.9-0.9-11.4-2.9
	c-4.7-2.8-9.9-4.2-15.2-5.5c2.6-4.3,6.3-7,9.4-10.2c3.9-4,2.5-13.2-2.7-18.4c-6.3-6.2-5.1-13.6-4.9-20.8c0.1-4.1,9.6-7.2,14.2-4.8
	c2.1,1.1,3.1,0.8,4.4-0.5c-3-6.7-1.8-9.5,5.2-11.5c-2.5,4.8,2.5,7,3,12.7c2-7.3,6-9.3,11.3-8.5c5.8,0.9,12-7.6,14-15.6
	c4.6-0.8,6.5,2.4,8.4,5.7c2.4,4.1,4.1,8,10.6,7.7c5.9-0.3,8.5,5.9,4.8,10.8c-2.5,3.3-0.1,5,0.9,7.3c1.3,3.1,3.7,1.6,5.9,1.1
	c2.4-0.5,4.2-2.1,6.1-3.3c2-1.2,3.8-2.6,6.9-2.7c-1,2.5-1.2,4.9,1,6.6c4.5,3.5,8.3,8.1,14.8,8c7.6-0.1,15.1-1,22.7-0.1
	c0,3.4,0.5,6.7-2.9,10.5c-1.8,2-4.7,7.9-1.8,12.6c1.5,2.4-1,4.9,0.7,7.4c-4.3,2.1-8.4,1.8-12.5,1.7c-0.6,0-1.7-0.2-1.7-0.3
	c-0.3-5.4-5.1-3.9-7.9-5.2C183,386.9,182.3,386.2,181.4,385.6z"/>
<g>
	<g>
		<path class="st4" d="M200.2,229.9c-0.6,3.3,2.6,7.7-4.5,7.3C196.3,234.4,192.7,230.2,200.2,229.9z"/>
		<path class="st4" d="M202.8,262.6c-1.5,0-2.9,1.1-4.4,0.4c-0.2-1.9-0.5-3.8-0.7-5.7c1.7-0.7,3.1-1.3,4.8-0.4
			C202.6,258.7,202.7,260.7,202.8,262.6z"/>
		<path class="st4" d="M209.3,334.1c0.2,2.4,0.4,4.2,0.6,5.9c-1.2,1.7-2.7,1.4-4.7,1.5C205.5,338.6,202.3,334.4,209.3,334.1z"/>
		<path class="st4" d="M212,367.1c-1.3,0.8-2.5,1-4,0.5c-1-1.7-0.7-3.8-0.8-5.8c1.2-1.5,2.7-1.2,4.3-1.1
			C212.1,362.8,212.4,364.9,212,367.1z"/>
		<path class="st4" d="M204.7,287.9c-1.6,0.6-2.8,1-4.4,0.4c-0.2-1.8-0.4-3.8-0.6-5.7C204.7,281,204.7,281,204.7,287.9z"/>
		<path class="st4" d="M206.9,308.1c-0.7,2.6,3,7-4.2,6.9c-0.2-2.2-0.4-4.2-0.6-6C203.7,307.7,205.1,307.6,206.9,308.1z"/>
	</g>
	<g>
		<path class="st4" d="M84.5,327.8c2.9-1.7,4.2-7,8.4-1.4C90.5,327.9,89.6,333.3,84.5,327.8z"/>
		<path class="st4" d="M107.6,304.5c1,1.1,2.7,1.5,3.2,3.1c-1.3,1.4-2.6,2.8-3.9,4.2c-1.7-0.8-3-1.5-3.4-3.3
			C104.8,307.3,106.2,305.9,107.6,304.5z"/>
		<path class="st4" d="M157.7,253c1.6-1.7,2.9-3,4.1-4.3c2-0.2,2.8,1.2,4.2,2.6C163.5,253,162.4,258.1,157.7,253z"/>
		<path class="st4" d="M180.9,229.5c1.4,0.5,2.4,1.3,3,2.7c-0.6,1.9-2.4,3-3.9,4.4c-1.9,0.1-2.7-1.2-3.6-2.5
			C177.5,232.1,178.9,230.6,180.9,229.5z"/>
		<path class="st4" d="M125.6,286.6c1.5,0.8,2.6,1.5,3.1,3.1c-1.3,1.3-2.6,2.8-3.9,4.2C120.4,291.1,120.4,291.1,125.6,286.6z"/>
		<path class="st4" d="M139.4,271.7c2.4-1.2,3.3-6.8,8-1.4c-1.6,1.6-2.9,3-4.2,4.4C141.3,274.4,140.2,273.5,139.4,271.7z"/>
	</g>
</g>
<g>
	<path class="st5" d="M145.4,355.9c-1.3-1.6-1.7-3.3-4.5-3.3c-2.2,0-3.6,1.1-4.3,2.8c-1.6,3.9,1.2,7.5,2.7,10.5
		c7.1,15-3.8,35.3-21,32c-7.2-1.4-13.6-8-15-13.7c4.1,3.4,9.4,11.3,19.3,9.2c6.9-1.4,12.3-7.5,13.5-15c1.9-11.3-5.5-14.7-4.7-23.2
		C132.3,346.2,144.9,345.1,145.4,355.9L145.4,355.9z"/>
	<path class="st5" d="M131,351.6c-2,9.9,2,10.6,3.6,18.2c1.4,6.8-0.7,13.4-4,17.1c-11.1,12.4-26,0.6-26.3-6.3
		c0.6,3.2,6.7,7.7,11.7,8.1c6.4,0.5,10.5-2.9,12.7-7.1c2.8-5.5,2.5-10.2,0.1-15.7C126.8,361,124.8,353.6,131,351.6L131,351.6z"/>
	<path class="st5" d="M109.1,382.5c3.8,2.8,14.1,3.3,16.6-7.6c1.8-7.8-7.2-18.7,0.7-21.2c-1.7,9.9,6.5,15.2,1.4,25.9
		c-1.6,3.5-4.5,6.5-8.2,7.3C115.2,388,110.2,385.9,109.1,382.5L109.1,382.5z"/>
	<path class="st5" d="M132.2,345.2c0.1-7.5,3.7-10.9,11.3-10.5C143.3,342,139.8,345.5,132.2,345.2L132.2,345.2z"/>
	<path class="st5" d="M130.2,349c-5-0.3-7.2-1.9-7.6-6.7C127.7,342.1,129.8,344,130.2,349L130.2,349z"/>
</g>
</svg>
