<?xml version="1.0" encoding="UTF-8"?>
<svg id="Pagina_inicia_Movil" data-name="Pagina inicia Movil" xmlns="http://www.w3.org/2000/svg" viewBox="0 0 62.2 62.2">
  <defs>
    <style>
      .cls-1 {
        fill: #12afaf;
      }

      .cls-2 {
        fill: #050505;
      }
    </style>
  </defs>
  <circle class="cls-1" cx="31.1" cy="31.1" r="31.1"/>
  <path class="cls-2" d="m51.86,32.55c-.46-4.12-4.51-6.13-4.51-6.13,0,0-3.56-1.97-7.27-.02l-3.56-6.43s-.07-.1.04-.16.84-.44.84-.44c0,0,.38-.6.14-1.12s-1.01-.49-1.01-.49l-1.99.93s-.76.44-.35.98c.41.55.64,1.2.64,1.2l-5.68,3.77-4.22.07-.71-2.22,1.99-.08s.67-.15.71-.9c.04-.75-.78-.94-.78-.94l-3.94.1s-.41.04-.64-.04c-.23-.08-.42-.31-.42-.31,0,0-.68-.11-1.12.44-.44.55.25,1.26.25,1.26,0,0,.53.42,1.21.49s.79.1.79.1l1.47,4.95-1.56.87s-2.29-2.68-5.43-2.78-6.46.65-8.45,4.87c-1.99,4.22.33,8.58,2.64,10.16s8.39,3.62,12.37-3.01c.8-1.99.63-1.88.92-3.17l3.89-.02s.06,0,.12-.04l8.19-10.59,5.94,11s.44.78,1.28.41c.85-.37.42-1.39.42-1.39l-3.13-5.79s3.55-1.71,6.76.89c3.21,2.59,2.14,6.43,2.14,6.43,0,0-1.12,4.82-6.29,4.93-5.17.11-6.1-4.79-6.1-4.79,0,0-.46-2.77.34-4.31.81-1.54,1.21-1.73,1.21-1.73l-.98-1.75s-1.68,1.26-2.48,4.05c-.81,2.8.49,5.6.49,5.6,0,0,1.82,4.37,6.8,4.88,4.98.51,7.67-3.65,7.67-3.65,0,0,1.81-1.91,1.35-6.03Zm-30.29,4.38s-2.02,4.09-6.63,3.36c-4.61-.74-5.38-5.4-5.38-5.4,0,0-.63-5.24,3.79-6.82,4.42-1.58,6.99,1.31,6.99,1.31,0,0-2.62,1.5-5.21,3.17-2.59,1.67-.3,1.86-.3,1.86l7.42.08c.03,1.12-.68,2.46-.68,2.46Zm5.84-4.45h-1.23v-3.58l-1.88,1.09-.03,2.49h-.19l-.63-2.1-1.72.93s.38.49.41,1.17h-3.22l12.2-6.91,3.06-1.97-6.77,8.87Z"/>
</svg>