<?xml version="1.0" encoding="UTF-8"?>
<svg id="Pagina_inicia_Movil" data-name="Pagina inicia Movil" xmlns="http://www.w3.org/2000/svg" viewBox="0 0 62.2 62.2">
  <defs>
    <style>
      .cls-1 {
        fill: #fff;
      }

      .cls-2 {
        fill: #12afaf;
      }
    </style>
  </defs>
  <circle class="cls-2" cx="31.1" cy="31.1" r="31.1"/>
  <g>
    <path class="cls-1" d="m22.24,16.43c.27,0,.53,0,.8.01.11.06.23.06.34.05.41.08.82.13,1.22.25.28.09.39,0,.51-.24.34-.68.71-1.35,1.07-2.02.11-.04.23-.02.34-.02.63-.01,1.27.02,1.9-.02.59-.13.92-.56.91-1.19-.01-.53-.41-.96-.97-1.05-.7.04-1.4-.03-2.1.03,0,0-.01-.05-.02-.08-.2-.17-.41-.32-.68-.35-.19,0-.39,0-.58,0-.38.06-.68.26-.87.57-.3.52-.56,1.06-.84,1.6-.13.17-.22.37-.3.56-.04.07-.07.15-.11.22-.07.14-.15.28-.22.41-.06.07-.1.14-.11.23-.23.31-.37.67-.55,1.02.1.04.18.03.27,0Z"/>
    <path class="cls-1" d="m27.14,19.45c-.03.21-.03.43,0,.64.13.74.58,1.27,1.15,1.71,1.53,1.17,3.28,1.95,5.02,2.76h0c.02.05.07.05.11.06.2.13.39.26.65.2.32-.08.64-.15.96-.22,1.91-.43,3.81-.93,5.67-1.55,1.51-.51,3.01-1.06,4.35-1.93.63-.41,1.22-.88,1.44-1.65,0-.06.01-.11.02-.17.12-.31.05-.41-.26-.38-.09,0-.19.02-.26.09-.11.04-.22.08-.34.05-.2.04-.41.08-.61.12-.75.12-1.51.25-2.25.45-.29.02-.57.11-.85.18-.36.08-.72.15-1.08.23-.17.04-.36.02-.52.11-.39.07-.79.14-1.18.21-.04,0-.09,0-.13.02-.04,0-.07,0-.11,0-.09,0-.19,0-.28,0-.76.14-1.52.19-2.28.23-.28.09-.58.02-.86.06-.04,0-.08,0-.12,0-.17,0-.34,0-.51,0-.13,0-.26,0-.4-.01,0-.01-.01-.03-.01-.04-.4-.02-.79-.05-1.19-.07h-.02s-.02,0-.02,0c-.05-.02-.1-.02-.14-.02-.74-.12-1.49-.23-2.22-.42-.04,0-.07-.02-.11-.03-1.01-.29-2-.61-2.97-1.01-.54-.23-.57-.21-.64.39Z"/>
    <path class="cls-1" d="m8.31,22.57c-.02-.07.04-.17.09-.2,0,0,0,0,.01,0-.04.07-.08.14-.1.21Z"/>
    <path class="cls-1" d="m25.86,23.15s.02.01.02.02c-.01,0-.02,0-.02-.02Z"/>
    <path class="cls-1" d="m29.79,27.05s.04.04.06.06c-.02-.02-.04-.04-.06-.06Z"/>
    <path class="cls-1" d="m34,31.08s.03.03.04.05c-.01-.02-.03-.03-.04-.05Z"/>
    <path class="cls-1" d="m33.95,26.23s.07-.04.1,0c-.03,0-.06,0-.1,0Z"/>
    <path class="cls-1" d="m36.19,33.34c.07.01.11.05.14.12-.05-.04-.09-.08-.14-.12Z"/>
    <path class="cls-1" d="m53.56,29.55s0,.02,0,.03c0,0-.01-.01-.02-.02,0,0,.02,0,.03-.01Z"/>
    <path class="cls-1" d="m56.87,18.59c-1.14.02-2.28,0-3.42,0-1.09,0-2.19,0-3.28,0-.51.1-1.03.08-1.54.13-.11.02-.23.04-.34.06h0c-.09,0-.17-.01-.26,0-.4.02-.42.04-.43.44-.01.45-.12.87-.36,1.27-.44.71-1.07,1.23-1.76,1.66-2.2,1.37-4.65,2.13-7.13,2.79-.04-.01-.08-.02-.11.02-.59.21-1.21.34-1.83.46-.08-.02-.16-.02-.22.05-.51.11-1.02.2-1.51.35-.62.19-1.2.19-1.75-.21-.02-.02-.05-.02-.08-.03-1.41-.69-2.85-1.32-4.17-2.18-1.1-.71-2.13-1.49-2.6-2.79h0c0-.1-.1-.18-.06-.28,0-.29,0-.57,0-.86,0,0,0,0,0,0,.02-.01.02-.03,0-.04h0c.07-.27.13-.53.2-.8.02-.09.03-.15-.09-.19-.82-.32-1.64-.66-2.52-.78-.15-.03-.3-.05-.45-.08-.27-.04-.53,0-.8-.02-.03,0-.07,0-.1.02-.06-.04-.13-.01-.2,0-.04,0-.07,0-.11.01h0c-.3.08-.61.12-.87.28,0,0,0,0,0,0-.29.14-.57.31-.79.55,0,.1.03.16.08.18-.07-.01-.13-.05-.19-.12-.14.1-.27.22-.37.37.02,0,.04,0,.06,0,0,0-.02.02-.02.03h0c-.1.08-.17.18-.22.29h0c-.13.16-.26.32-.34.51-.19.22-.3.49-.43.75q-.16.32-.49.23c-.27-.1-.55-.21-.84-.25-.11-.07-.23-.08-.36-.09-.65-.18-1.32-.25-1.99-.31-.48,0-.96,0-1.44,0-1.05.06-2.05.3-3.03.67-1.1.41-2.1,1-3.07,1.66-.15.1-.17.19-.08.34.3.49.72.75,1.3.73.32-.01.61-.12.9-.24.07,0,.12-.02.17-.06.06-.01.13-.02.19-.03.8-.18,1.6-.36,2.42-.38.02,0,.02,0,.03-.02.02,0,.04,0,.06,0,.55,0,1.09,0,1.64,0,.01,0,.02,0,.04,0,0,.01.01.02.03.02.79.03,1.56.18,2.32.37.87.22,1.71.55,2.52.93.05.05.09.1.17.08.14-.03.28-.05.41-.1.28-.09.34-.02.27.27-.02.07-.06.14,0,.21l.12.07c.49.34.99.65,1.44,1.04.3.26.6.52.9.78h0s.04.07.07.09c1.36,1.43,2.3,3.11,3.04,4.92.3.72.59,1.45,1.01,2.12,1.3,2.04,3.19,3.03,5.57,3.16.06,0,.11-.02.17-.02,1.42,0,2.84,0,4.27,0,.67,0,1.35,0,2.02,0,.14,0,.25-.01.25-.18,0-.12-.01-.24-.02-.36.02-.02.03-.04.04-.07.02-.35-.03-.7.03-1.05-.02-.14.04-.15.17-.12.28.07.57.13.86.19.13.05.09.17.09.27.02.35-.03.7.02,1.04.04.73.23,1.42.47,2.1.05.12.11.23.16.35.05.18.13.35.23.51.16.29.29.61.52.85.34.56.77,1.03,1.25,1.46,1.39,1.27,3.02,2,4.91,2.14.41.05.84-.02,1.25.07.78,0,1.53-.2,2.25-.46,1.66-.61,3-1.66,4.01-3.12.87-1.26,1.37-2.66,1.43-4.2,0-.31,0-.61,0-.92-.08-2.03-.9-3.75-2.24-5.25-.17-.19-.32-.44-.6-.49,0,0,0,0-.01,0-.28-.25-.62-.43-.91-.66-.42-.33-.88-.56-1.35-.77-.52-.23-1.07-.39-1.64-.48-.03,0-.07,0-.1-.01-.28.06-.61.02-.73.43-.14-.26-.45-.27-.54-.53-.02,0-.04,0-.06,0-.11.09-.23.08-.34,0-.04,0-.08,0-.12,0-.17.3.08.42.28.58-.2.04-.38.03-.56.02-.29-.01-.35-.11-.26-.38.04-.11.07-.2-.09-.23-.06,0-.11,0-.16.03-.09.21-.24.29-.45.18-.12-.06-.24-.02-.37-.04-.1,0-.19.01-.27.09-.08.15.16.24.08.4-.21-.02-.16-.33-.38-.33-.46.06-.87.28-1.27.49-1.59.83-2.79,2.06-3.61,3.66-.19.36-.18.37-.59.29-.63-.12-.63-.13-.33-.71.85-1.62,2.06-2.89,3.64-3.8.11-.06.25-.1.29-.25.02,0,.05,0,.07-.02,0,0,0,0,0,0,.15.05.25-.03.33-.15.83-.4,1.65-.8,2.48-1.19.79-.38,1.59-.76,2.38-1.13,1.17-.56,2.34-1.11,3.51-1.66.15-.07.15-.13.09-.25-.17-.35-.31-.72-.5-1.05-.14-.23-.03-.29.14-.36.68-.27,1.35-.54,2.03-.82.78-.33,1.55-.66,2.24-1.16.25-.18.51-.37.53-.73.01-.21-.03-.29-.26-.28Zm-13.66,17.4c.03-.13.16-.07.23-.13,0,0,0-.01,0-.02.14.03.29.06.43.09.02.02.04.04.06.05.04.02.08.02.12.02.02,0,.04-.01.06-.02.12.03.25.06.37.08,0,.02.02.03.03.05.1.1.25.11.37.13.29.05.43.21.53.48.31.83.9,1.38,1.72,1.72,1.84.77,4.03-.59,4.14-2.57,0-.19,0-.37,0-.56-.07-1.41-1.36-2.69-2.74-2.74-.2,0-.4,0-.6,0-.65.03-1.18.31-1.67.72-.1.09-.19.19-.35.15-.58-.14-1.17-.25-1.75-.4-.13-.03-.15-.1-.08-.21.11-.18.23-.35.37-.51.9-1.02,2.04-1.59,3.39-1.75.1-.03.21-.03.29-.09,0,0,0,0,.01-.01.1.05.22,0,.32.02.02,0,.04,0,.07-.01.03.02.07.01.1.03.54.03,1.04.19,1.55.35.05.15.2.19.32.25.68.36,1.27.83,1.74,1.45.6.79.91,1.7,1.03,2.68.04.25.04.5,0,.75-.28,2.43-2.02,4.29-4.56,4.6-.32.04-.63.04-.95,0-.16-.03-.32-.06-.48-.09-1.08-.21-1.98-.73-2.73-1.54-.31-.34-.54-.73-.82-1.09-.01,0-.02,0-.04-.01-.13-.33-.26-.67-.39-1-.08-.1-.01-.23-.06-.34-.02-.15-.05-.29-.07-.44.02-.03.03-.07.04-.11Z"/>
    <path class="cls-1" d="m47.86,24.17s-.01-.03-.02-.05c.02.02.02.03.02.05Z"/>
    <path class="cls-1" d="m21.54,34.52c0-.19-.03-.38-.1-.56-.1.04-.12.2-.28.19.05-.14.2-.14.27-.23,0-.06,0-.11-.01-.17-.44-1.77-1.34-3.27-2.75-4.44-.15-.13-.18-.21-.09-.39.49-.91.96-1.82,1.44-2.74.18-.34.17-.33-.14-.54-.67-.45-1.39-.8-2.12-1.15-.01,0-.03,0-.04,0-.05,0-.09.04-.11.08-.26.49-.53.97-.78,1.47-.03.06-.07.13-.02.19-.08.03-.1.09-.11.17,0,.02,0,.03,0,.05-.15.27-.3.54-.43.82-.23.47-.24.49-.69.42-.01-.01-.02-.03-.04-.04-.08-.05-.16-.07-.25-.06-.02,0-.03,0-.04.01-.42-.15-.87-.18-1.31-.22-.32-.02-.64-.05-.95.02,0,0,0,0,0,0-.03-.03-.07-.05-.12-.05-.04,0-.09,0-.13.02-.01.02-.03.03-.04.04-.22,0-.44.02-.65.07-.03,0-.06-.02-.09-.03-.04,0-.08.01-.12.03-.01.02-.02.03-.04.04-.11,0-.22.03-.32.07-.03,0-.05,0-.08.02-.01,0-.02.01-.03.02-.36.07-.71.18-1.04.33.03.18-.11-.03-.12.06-.96.38-1.81.94-2.53,1.67-.02,0-.05,0-.07,0-.09.02-.15.08-.21.14-.81.84-1.41,1.81-1.81,2.9-.19.53-.4,1.07-.37,1.65v.02s0,.02,0,.02c-.04.04-.06.09-.07.15-.1.61-.09,1.23-.04,1.85,0,.1.04.21.11.29,0,.03,0,.07,0,.1-.03.37.06.71.22,1.04.02.07.04.14.07.21.02.09,0,.19.03.28.23.59.48,1.16.82,1.69.77,1.2,1.78,2.17,3.04,2.86,1.07.58,2.2.94,3.42.98.39,0,.79,0,1.18,0,1.96-.13,3.63-.89,5.07-2.22.17-.16.37-.3.46-.53,0-.01,0-.02,0-.04.08-.07.13-.17.19-.26.37-.39.64-.85.9-1.32.1-.21.22-.42.31-.63.19-.44.37-.89.43-1.37h0c.11-.31.16-.63.18-.96.08-.19.05-.39.04-.59,0,0,0,0,0,0,.02-.02.05-.04.07-.08.02-.45.1-.9-.09-1.34-.01-.01-.03-.02-.04-.03Zm-5.54-1.43c-.04.05-.09.07-.15.08.05-.02.1-.05.15-.08Zm-1.43-2.47s-.01.02-.02.03c0-.01.01-.02.02-.03Zm-5.83-1.46s0,0,0,0c0,0,0,0,0,0,0,0,0,0,0,0Zm9.65,6.61c-.07,1.64-.78,2.93-2.08,3.9-.71.53-1.53.79-2.39.93-.34.04-.67.04-1.01,0-.07-.02-.15-.03-.23-.04-2.79-.42-4.62-3.01-4.24-5.63.15-1.03.56-1.92,1.26-2.7.42-.47.93-.81,1.45-1.14.05-.04.1-.08.14-.13.54-.23,1.11-.39,1.7-.44.27-.04.54-.03.81,0,.16.02.32.05.48.07.18.02.26.07.14.26-.13.21-.22.43-.33.65,0,.02-.02.03-.02.05-.18.32-.38.63-.5.98-.18.11-.38.08-.57.1-2.08.3-3.21,2.57-2.19,4.41.74,1.33,2.48,1.97,4.01,1.18,1.48-.76,2.04-2.76,1.14-4.16-.01-.13.07-.23.12-.34.25-.47.49-.95.73-1.42.01,0,.02,0,.03,0,.23-.24.34-.02.45.13.76.98,1.17,2.08,1.12,3.33Z"/>
  </g>
</svg>