<?xml version="1.0" encoding="UTF-8"?>
<svg id="Pagina_inicia_Movil" data-name="Pagina inicia Movil" xmlns="http://www.w3.org/2000/svg" viewBox="0 0 62.2 62.2">
  <defs>
    <style>
      .cls-1 {
        fill: #fff;
      }

      .cls-2 {
        fill: #f5f5f5;
      }

      .cls-3 {
        fill: #767676;
      }

      .cls-4 {
        fill: #12afaf;
      }

      .cls-5 {
        fill: #424242;
      }

      .cls-6 {
        fill: #434343;
      }

      .cls-7 {
        fill: #c5c5c6;
      }
    </style>
  </defs>
  <circle class="cls-4" cx="31.1" cy="31.1" r="31.1"/>
  <g>
    <path class="cls-1" d="m26.76,18.81c-.49.85-.54,1.77-.59,2.73-.1,1.83.27,2.65,2.4,1.95,1.57-.52,3.33-.52,5.01-.7,1.3-.14,1.56-.7,1.06-1.91-.82-1.99-1.04-3.65,1.63-4.75,1.4-.57,2.66-1.93,3.07-3.83.45-2.06,2.68-3.2,5.13-3.15,2.19.04,2.86,1.56,3.25,3.29.18.78.37,1.39,1.18,1.76,3.36,1.52,5.23,4.01,4.5,7.81-.7,3.66.26,7.28.05,10.93-.14,2.55-.07,5.11-.02,7.66.04,2.08-.79,3.31-2.98,3.16-1.49-.1-2.86.84-4.45.26-.67-.24-1.75.36-2,1.26-.24.86.53,1.43,1.2,1.72,1.75.79,1.72,2.54,1.8,3.87.11,1.67-1.06,2.5-2.96,2.61-3.8.22-7.5-.82-11.28-.62-3.48.19-6.95.04-10.44.36-2.49.23-5.19-.2-7.8-.35-2.87-.17-1.84-2.75-2.59-4.27-1.68-3.43-1.24-7.94-4.11-10.52-3.86-3.49-2.97-7.01-1.58-10.93.23-.65.47-1.31,1.06-1.62,1.25-.65,1.01-1.52.69-2.6-1-3.38,1.53-6.76,5.14-6.98,4.4-.26,4.54-.38,5.71-4.84.41-1.56,1.52-2.19,2.99-1.94,1.99.34,4.34.39,4.34,3.37.76,2.03-.23,4.22.57,6.25Z"/>
    <path class="cls-5" d="m10.27,34.65c-.8-.15-1.64.8-2.31.2-.94-.85.51-1.33.59-2.12.1-1.03,1.24-2.04-.12-3.02-.17-.12-.44-.3-.16-.66,2.48-3.13,1.31-7.87,5.08-10.74.66,2.39,2.46,4.01,2.89,6.96.37,2.56.49,5.4,1.39,7.99.48,1.37.93,1.56,2.18.89,2.9-1.57,6.06-2.51,9.17-3.58,1.09-.38,2.78-.32,2.92-1.8.13-1.35-1.39-1.74-2.37-2.6,1.27,0,2.54.02,3.81,0,.83-.02,1.61.25,1.85,1.02.29.9.2,1.84-.61,2.59-1.27,1.17-2.92,1.63-4.63,2.56,2.55,1.9,5.45,1.82,8.16,2.3,1.83.33,3.71.43,5.53.82.95.2,2.17.38,2.44,1.62.29,1.32-.24,2.42-1.32,3.21-1.45,1.05-2.92,2.07-4.42,3.06-2.97,1.97-2.98,2.71.05,4.7.91.59,1.88,1.08,3.45,1.98-8.61,0-16.51.03-24.4-.02-1.47,0-2.99-.94-3.32-2.12-.33-1.19,1.35-1.84,2.41-2.36,3.65-1.79,7.59-2.81,11.42-4.14,1.06-.37,2.09-.8,3.11-1.27.61-.28,1.17-.7,1.02-1.51-.12-.69-.78-.84-1.28-.91-2.14-.32-4.3-.76-6.45-.75-3.17,0-6.31.28-8.98-2-.42-.36-1.27-.22-1.93-.31-1.16-.52-1.42.09-1.49,1.11-.06.97.3,2-.28,2.92-.37,0-.74,0-1.1,0-.56-.83-.28-1.77-.27-2.65.02-1.6-.68-1.92-2.04-1.36Z"/>
    <path class="cls-5" d="m42.77,12.65c1.26,2.15,2.18,3.78,3.16,5.37.73,1.19-.63,2.5.44,3.83.64.8,2.12,2.36-.09,3.43,0,0,.19.5.34.74,1.5,2.38,1.99,4.13-1.97,3.64-1.17-.15-.81,1-.85,1.68-.06,1.08.34,2.38-1.48,2.49-.43-.38-.24-.97-.2-1.44.21-2.29-.1-3.74-2.96-2.46-1.14.51-1.71.03-1.13-1.32,1.13-2.65,1.4-5.71,1.75-8.35.4-2.98,2.42-4.56,2.98-7.59Z"/>
    <path class="cls-6" d="m20.92,15c2.04,2.51,2.93,5.34,2.58,8.5-.06.57.12.82.38,1.2,1.06,1.54.52,2.4-1.2,1.96-1.35-.34-1.09.37-1.1,1.04-.02.68.05,1.38-.95,1.34-.89-.03-.71-.71-.7-1.23.03-1.24-.12-2.1-1.71-1.33-.58.28-1.12-.19-.91-.8,1.21-3.51.84-7.56,3.61-10.69Z"/>
    <path class="cls-2" d="m22.3,47.63c1.5-2.37,3.21-2.23,5.07-.44-1.56,1.59-3.33.89-5.07.44Z"/>
    <path class="cls-7" d="m35.47,44.07c-1.55.27-2.53.47-3.75-.19,1.24-1.36,2.24-1.4,3.75.19Z"/>
    <path class="cls-3" d="m22.3,47.63c1.71.05,3.47.7,5.07-.44.29.29.45.84.08.88-1.73.21-3.54.92-5.14-.44Z"/>
  </g>
</svg>