<?xml version="1.0" encoding="UTF-8"?>
<svg id="Pagina_inicia_Movil" data-name="Pagina inicia Movil" xmlns="http://www.w3.org/2000/svg" viewBox="0 0 62.2 62.2">
  <defs>
    <style>
      .cls-1 {
        fill: #fff;
        fill-rule: evenodd;
      }

      .cls-2 {
        fill: #12afaf;
      }
    </style>
  </defs>
  <circle class="cls-2" cx="31.1" cy="31.1" r="31.1"/>
  <g>
    <path class="cls-1" d="m15.77,22.69c1.05-1.27,1.32-2.62,3.53-2.66,1.73-.02,2.87.91,3.43,2.25,1.3,3.11-.98,5.96-2.11,8.37-5.6,11.89,2.98,27.99,16.64,25.36,5.75-1.11,10.8-6.34,11.91-10.83-3.28,2.71-7.43,8.93-15.28,7.3-5.5-1.14-9.75-5.91-10.75-11.89-1.5-8.94,4.37-11.64,3.71-18.4-.68-7.16-10.67-8.01-11.08.5"/>
    <path class="cls-1" d="m27.25,19.28c1.57,7.87-1.62,8.43-2.86,14.4-1.11,5.41.52,10.6,3.2,13.6,8.78,9.85,20.63.46,20.83-5-.45,2.55-5.32,6.1-9.3,6.41-5.12.39-8.35-2.34-10.07-5.66-2.27-4.37-2-8.09-.11-12.48,1.64-3.8,3.2-9.64-1.7-11.28"/>
    <path class="cls-1" d="m44.64,43.84c-3.03,2.23-11.14,2.64-13.14-6-1.41-6.16,5.75-14.85-.59-16.83,1.36,7.87-5.12,12.03-1.12,20.51,1.29,2.73,3.53,5.14,6.48,5.82,3.53.8,7.48-.8,8.37-3.5"/>
    <path class="cls-1" d="m26.27,14.25c-.11-5.98-2.91-8.66-8.96-8.32.2,5.77,2.95,8.51,8.96,8.32"/>
    <path class="cls-1" d="m27.89,17.21c4-.27,5.69-1.5,6.02-5.28-4.02-.14-5.69,1.36-6.02,5.28"/>
  </g>
</svg>