<?xml version="1.0" encoding="UTF-8"?>
<svg id="Pagina_inicia_Movil" data-name="Pagina inicia Movil" xmlns="http://www.w3.org/2000/svg" viewBox="0 0 62.2 62.2">
  <defs>
    <style>
      .cls-1 {
        fill: #fff;
      }

      .cls-2 {
        fill: #12afaf;
      }
    </style>
  </defs>
  <circle class="cls-2" cx="31.1" cy="31.1" r="31.1"/>
  <g>
    <circle class="cls-1" cx="22.9" cy="26.81" r="4.05"/>
    <path class="cls-1" d="m48.22,19.29l-13.88-3.02c-.01-1.72-1.41-3.11-3.14-3.11-1.34,0-2.47.84-2.92,2.01l-13.93-3.03h0s-.03,0-.04,0c-.31,0-.56.25-.56.56,0,.25.17.46.4.53l13.92,3.03s0,.03,0,.04c0,1.61,1.22,2.93,2.78,3.1h-.1v3.21s-1.43.4-.6,2.52c.17.5.6,4.05.6,4.05,0,0,.2,1.16-1.89,1.29-2.09.13-4.34.23-7.3,2.59-1.72,1.59,3.85,10.95,3.85,10.95,0,0,.56,1.19,10.81,2.85.56,0,.13,1.26.13,1.26l-1.59,5.21s-.43,1.56.8,1.76c1.23.2,1.69-.13,1.96-1.03s2.62-8.03,2.62-8.03c0,0,.63-1.16-1.23-1.86-1.86-.7-6.6-1.56-6.6-1.56l-.2-.4,5.27-2.75s.46-.27,1.03.27c.56.53,5.31,5.74,5.31,5.74,0,0,1.66.13,2.02-.4.36-.53.76-1.09.2-1.99s-6.97-7.4-6.97-7.4c0,0-1.13-.9-4.81,1.89-1.13.73-2.35,1.03-2.35,1.03l-.03-3.58s2.55.13,2.35-1.23c-.2-1.36-.27-4.78-.83-6.83-.56-2.06-.33-4.15-1.59-4.41.07-1.13-.04-3.15-.04-3.15h-.02c1.16-.17,2.11-.97,2.49-2.04l13.88,3.02h0s.03,0,.04,0c.31,0,.56-.25.56-.56,0-.25-.17-.46-.4-.53Zm-16.74-1.42c-.86.11-1.65-.5-1.76-1.36-.11-.86.5-1.65,1.36-1.76s1.65.5,1.76,1.36-.5,1.65-1.36,1.76Z"/>
  </g>
</svg>