<?xml version="1.0" encoding="UTF-8"?>
<svg id="Pagina_inicia_Movil" data-name="Pagina inicia Movil" xmlns="http://www.w3.org/2000/svg" viewBox="0 0 62.2 62.2">
  <defs>
    <style>
      .cls-1 {
        fill: #fff;
      }

      .cls-2 {
        fill: #12afaf;
      }
    </style>
  </defs>
  <circle class="cls-2" cx="31.1" cy="31.1" r="31.1"/>
  <path class="cls-1" d="m48.7,9.8s-.02-.99-1.06-.94c-1.04.05-14.83,0-14.83,0,0,0-1.23.58-.02,1.49,1.42,0,14.23.05,14.23.05l.36,42.1-7.53-.02,4.09-16.54s.6-2.84-1.04-3.92-2.94-1.95-2.94-1.95l3.9-7.53s.53-2.07-.99-4.36c-.53-1.04-1.44-2.79-2.74-3.08-1.3-.29-3.32.46-3.32.46l-4.19,1.49-.7.05-3.63-.84-11.68-2.84s-1.59-.05-2.14-.55c-.55-.51-1.66-2.29-1.66-2.29l-.02-.24,15.4.1s.1.02.15.02c.41,0,.74-.33.74-.74s-.33-.74-.74-.74c0,0,0,0,0,0h0s-16.72,0-16.72,0c0,0-1.52.32-.76,1.77.76,1.44,2.09,2.89,2.09,2.89,0,0,1.01,1.08,3.03,1.37,2.02.29,13.54,2.92,13.54,2.92l1.77.51.29.25-.9,4.95s-1.59.36-1.84,1.3c-.25.94-.54,3.03-.54,3.03l-.04.32-4.06-.14s-.03,0-.07,0c1.17-.65,1.96-1.9,1.96-3.33,0-2.11-1.71-3.81-3.81-3.81s-3.81,1.71-3.81,3.81c0,1.88,1.36,3.44,3.15,3.75-.34.16-.64.39-.82.7-.78,1.3-.54,1.46-.54,1.46l-2.94,4.01s-.34.88.29,3.36c.63,2.47.47,4.24,1.68,5.09.49.32-2.78,2.98-2.78,2.98l-4.89,3.94s-.25.43,0,.74c.25.31.49.4.97.31.29-.2,7.47-5.45,9.57-8.47-.2-1.9-.14-4.59-.14-4.59l2.96,3.11,1.91,3.86-.87,6.21s-.14,1.88.79,2.33,2.04.72,2.82,0c.78-.72.94-1.14,1.21-2.74.27-1.61.9-5,.9-5h.13s.43,2.74,2.08,2.65c1.64-.09,2.98-.65,2.8-1.95s-1.64-8.03-1.64-8.03c0,0-.43-.56-2.84-1.19s-4.33-2.07-4.33-2.07c0,0-1.28-1.49-1.06-2.72,2.43-.02,3.54-.02,3.54-.02,0,0,1.23-.31,1.54-1.71.31-1.4,1.3-4.84,1.11-5.51-.19-.67-.99-1.3-.99-1.3l1.04-5.56,5.32-1.88s1.59-.58,2.65,1.35c1.06,1.93,1.95,3.03,1.44,4.48-.67,1.16-3.61,6.88-3.61,6.88,0,0-.96.99.36,1.95,1.32.96,2.82,2.02,2.82,2.02,0,0,.77,1.04.26,2.96s-3.83,15.7-3.83,15.7c0,0-.91,1.9.84,2,1.76.1,8.5.05,8.5.05,0,0,.82.1.87-1.4.05-1.49,0-42.75,0-42.75Zm-28.77,14.98c0-1.29,1.05-2.34,2.34-2.34s2.34,1.05,2.34,2.34-1.05,2.34-2.34,2.34-2.34-1.05-2.34-2.34Zm10.74,5.35s.11.9-.65,1.01c-.76.11-4.33,0-4.33,0,0,0-.61.76-.18,2.42.43,1.66,2.46,3.68,2.46,3.68,0,0,2.2,1.23,5.09,1.84,1.23.51,1.08,1.19,1.08,1.19l.97,5.13s.36,1.41-.65,1.59c-1.01.18-1.26-.69-1.26-.69l-.79-5.38s-1.62-.9-3.14-.94c-1.52-.04.14,3.03.14,3.03l.86,1.73s.24.22,0,.87-1.15,6.36-1.15,6.36c0,0-.83,1.52-1.84-.25.36-1.34,1.16-6.25,1.16-6.25,0,0,.25-.14-.25-.9-.51-.76-1.88-4.01-1.88-4.01,0,0-3.9-3.5-4.41-6.07h-.83s-.58.14-.4,2.2c.18,2.06.32,5.06.32,5.06,0,0-.65.58-1.05.04-.4-.54-1.12-5.06-1.12-5.06l-.32-1.3s.14-.36.9-1.19c.76-.83,2.17-2.79,2.17-2.79,0,0-.25-1,.7-1.72.96-.72,1.86-.14,1.86-.14l4.77-.07s.83.07.78-1.26c-.05-1.34.7-2.89.7-2.89,0,0,.87-.29,1.16.36l-.87,4.41Z"/>
</svg>