<?xml version="1.0" encoding="utf-8"?>
<!-- Generator: Adobe Illustrator 16.0.0, SVG Export Plug-In . SVG Version: 6.00 Build 0)  -->
<!DOCTYPE svg PUBLIC "-//W3C//DTD SVG 1.0//EN" "http://www.w3.org/TR/2001/REC-SVG-20010904/DTD/svg10.dtd">
<svg version="1.0" id="Capa_1" xmlns="http://www.w3.org/2000/svg" xmlns:xlink="http://www.w3.org/1999/xlink" x="0px" y="0px"
	 width="955px" height="436px" viewBox="0 0 955 436" style="enable-background:new 0 0 955 436;" xml:space="preserve">
<style type="text/css">
<![CDATA[
	.st0{fill:#FFFFFF;}
	.st1{fill:#64A253;}
	.st2{fill-rule:evenodd;clip-rule:evenodd;fill:#5B95CB;}
	.st3{fill-rule:evenodd;clip-rule:evenodd;fill:#5B99C5;}
	.st4{fill-rule:evenodd;clip-rule:evenodd;fill:#649B54;}
	.st5{fill-rule:evenodd;clip-rule:evenodd;fill:#64A253;}
]]>
</style>
<g>
	<path class="st2" d="M41.7,162.9c5.9-7.1,7.4-14.7,19.8-14.9c9.7-0.1,16.1,5.1,19.2,12.6C88,178,75.2,194,68.9,207.5
		c-31.4,66.6,16.7,156.8,93.2,142.1c32.2-6.2,60.5-35.5,66.7-60.7c-18.4,15.2-41.6,50-85.6,40.9c-30.8-6.4-54.6-33.1-60.2-66.6
		c-8.4-50.1,24.5-65.2,20.8-103.1C100,120,44,115.2,41.7,162.9"/>
	<path class="st2" d="M106,143.8c8.8,44.1-9.1,47.2-16,80.7c-6.2,30.3,2.9,59.4,17.9,76.2c49.2,55.2,115.6,2.6,116.7-28
		c-2.5,14.3-29.8,34.2-52.1,35.9c-28.7,2.2-46.8-13.1-56.4-31.7c-12.7-24.5-11.2-45.3-0.6-69.9C124.7,185.7,133.4,153,106,143.8"/>
	<path class="st3" d="M203.4,281.4c-17,12.5-62.4,14.8-73.6-33.6c-7.9-34.5,32.2-83.2-3.3-94.3c7.6,44.1-28.7,67.4-6.3,114.9
		c7.2,15.3,19.8,28.8,36.3,32.6C176.3,305.5,198.4,296.5,203.4,281.4"/>
	<path class="st5" d="M100.5,115.6C99.9,82.1,84.2,67.1,50.3,69C51.4,101.3,66.8,116.7,100.5,115.6"/>
	<path class="st4" d="M109.6,132.2c22.4-1.5,31.9-8.4,33.7-29.6C120.8,101.8,111.4,110.2,109.6,132.2"/>
	<g>
		<path class="st1" d="M183.9,140.5h30.4c5.5,0,9.6,1.6,12.1,4.7c2.5,3.1,3.8,8.7,3.8,16.7c0,15-5.5,22.5-16.6,22.5h-12.1v17.1
			h-17.6V140.5z M201.5,156.7v13.5h5.2c4.2,0,6.3-2.3,6.3-6.9c0-4.4-1.8-6.6-5.4-6.6H201.5z"/>
		<path class="st1" d="M234.9,201.6l13.1-61h26.6l12.6,61h-18.1l-1.5-9.5h-13.4l-1.5,9.5H234.9z M256.7,176.5h8.6l-4.3-26.2
			L256.7,176.5z"/>
		<path class="st1" d="M293,140.5h31c5.9,0,10.1,1.4,12.5,4.3c2.5,2.9,3.7,7.5,3.7,13.8c0,11.5-4.4,17.2-13.2,17.2l14.8,25.7h-20.6
			l-10.8-21.6v21.6H293V140.5z M310.6,156.7v12.5h5.9c4,0,6.1-2.2,6.1-6.7c0-3.8-1.9-5.7-5.8-5.7H310.6z"/>
		<path class="st1" d="M365.5,203.2c-6.1-1.2-10.6-4.4-13.6-9.6c-3-5.2-4.5-13.4-4.5-24.5c0-11.3,1.8-19.2,5.5-23.6
			c3.7-4.4,9.9-6.5,18.6-6.5c8.7,0,14.9,2.3,18.5,6.9c3.6,4.6,5.4,12.4,5.4,23.4c0,9.3-1.1,16.6-3.2,21.8
			c-2.1,5.2-5.7,8.8-10.9,10.9l4.5,9.6H369L365.5,203.2z M364.1,172.6c0,8.5,2.4,12.8,7.3,12.8c4.8,0,7.2-4.5,7.2-13.4
			c0-8.1-2.4-12.2-7.2-12.2C366.5,159.8,364.1,164.1,364.1,172.6z"/>
		<path class="st1" d="M403.3,140.5h17.6v40.3c0,4.1,1.8,6.2,5.4,6.2c3.5,0,5.3-2,5.3-6v-40.5h17.6v41.3c0,7.7-1.8,13.2-5.4,16.4
			c-3.6,3.2-9.5,4.9-17.7,4.9c-7.9,0-13.6-1.6-17.3-4.9c-3.6-3.3-5.5-8.7-5.5-16.2V140.5z"/>
		<path class="st1" d="M458.4,201.6v-61h37.2v17.7h-19.7v6.5h19.7V179h-19.7v6.4h19.7v16.1H458.4z"/>
		<path class="st1" d="M575,201.6h-18.4l-12.1-37.7l1.1,37.7h-16.5v-61h20l10.4,34.1l-1.1-34.1H575V201.6z"/>
		<path class="st1" d="M581.3,201.6l13.1-61H621l12.6,61h-18.1l-1.5-9.5h-13.4l-1.5,9.5H581.3z M603.1,176.5h8.6l-4.3-26.2
			L603.1,176.5z"/>
		<path class="st1" d="M637.6,140.5h41.8v20.2h-12.1v40.8h-17.6v-40.8h-12.1V140.5z"/>
		<path class="st1" d="M686.4,140.5h17.6v40.3c0,4.1,1.8,6.2,5.4,6.2c3.5,0,5.3-2,5.3-6v-40.5h17.6v41.3c0,7.7-1.8,13.2-5.4,16.4
			c-3.6,3.2-9.5,4.9-17.7,4.9c-7.9,0-13.6-1.6-17.3-4.9c-3.6-3.3-5.5-8.7-5.5-16.2V140.5z"/>
		<path class="st1" d="M741.5,140.5h31c5.9,0,10.1,1.4,12.5,4.3c2.5,2.9,3.7,7.5,3.7,13.8c0,11.5-4.4,17.2-13.2,17.2l14.8,25.7
			h-20.6L759,179.9v21.6h-17.6V140.5z M759,156.7v12.5h5.9c4,0,6.1-2.2,6.1-6.7c0-3.8-1.9-5.7-5.8-5.7H759z"/>
		<path class="st1" d="M793.6,201.6l13.1-61h26.6l12.6,61h-18.1l-1.5-9.5h-13.4l-1.5,9.5H793.6z M815.4,176.5h8.6l-4.3-26.2
			L815.4,176.5z"/>
		<path class="st1" d="M851.7,140.5h17.6v43h18.2v18h-35.7V140.5z"/>
		<path class="st0" d="M321.6,243.6h18.9l4.7,21.5l4.7-21.5h18.9l-14.6,42v19.1h-18.1v-19.1L321.6,243.6z"/>
		<path class="st0" d="M374.6,272.1c0-11.3,1.8-19.1,5.4-23.5c3.6-4.4,9.9-6.6,18.8-6.6c8.7,0,14.9,2.3,18.5,6.8
			c3.6,4.6,5.4,12.3,5.4,23.3c0,12.2-1.9,20.9-5.8,26.2c-3.8,5.3-9.9,7.9-18.2,7.9c-8.6,0-14.8-2.8-18.5-8.3
			C376.4,292.4,374.6,283.8,374.6,272.1z M391.3,275.7c0,8.5,2.4,12.8,7.3,12.8c4.8,0,7.2-4.5,7.2-13.4c0-8.1-2.4-12.2-7.2-12.2
			C393.7,262.8,391.3,267.1,391.3,275.7z"/>
		<path class="st0" d="M431.1,288.8c3.6,0.9,8.7,1.3,15.2,1.3c2.1,0,3.6-0.3,4.5-0.8c0.9-0.5,1.4-1.6,1.4-3.4c0-1.7-0.3-2.8-1-3.3
			c-0.7-0.5-1.8-0.8-3.3-0.8h-4.3c-5.2,0.1-8.9-1.4-11.1-4.3c-2.2-2.9-3.3-8.2-3.3-15.8c0-6.9,1.5-11.9,4.6-15
			c3.1-3.2,8.3-4.7,15.7-4.7c5.9,0,12,0.7,18.5,2.1v18.1c-5.4-0.8-10.3-1.1-14.7-1.1c-2.6,0-4.4,0.3-5.4,1c-1,0.7-1.5,1.8-1.5,3.4
			c0,2.4,1.7,3.6,5.1,3.6c7.1,0,11.9,1.1,14.2,3.2c2.5,2.4,3.7,7.1,3.7,14.2c0,7.3-1.4,12.4-4.1,15.3c-2.7,3-7.4,4.4-14.1,4.4
			c-7,0-13.7-0.6-20-1.7V288.8z"/>
		<path class="st0" d="M476.4,272.1c0-11.3,1.8-19.1,5.4-23.5c3.6-4.4,9.9-6.6,18.8-6.6c8.7,0,14.9,2.3,18.5,6.8
			c3.6,4.6,5.4,12.3,5.4,23.3c0,12.2-1.9,20.9-5.8,26.2c-3.8,5.3-9.9,7.9-18.2,7.9c-8.6,0-14.8-2.8-18.5-8.3
			S476.4,283.8,476.4,272.1z M493.2,275.7c0,8.5,2.4,12.8,7.3,12.8c4.8,0,7.2-4.5,7.2-13.4c0-8.1-2.4-12.2-7.2-12.2
			C495.6,262.8,493.2,267.1,493.2,275.7z"/>
		<path class="st0" d="M578.2,304.6h-18.4l-12.1-37.7l1.1,37.7h-16.5v-61h20l10.4,34.1l-1.1-34.1h16.5V304.6z"/>
		<path class="st0" d="M587.5,304.6v-61h23.3c8.6,0,14.6,2.3,18.2,6.7c3.6,4.5,5.4,11.8,5.4,21.9c0,21.6-6.8,32.4-20.5,32.4H587.5z
			 M604.2,287.5h5.1c3,0,5-1,6.1-3.1c1.1-2.1,1.7-5.4,1.7-9.9c0-4.1-0.5-7-1.6-8.7c-1.1-1.7-3.4-2.6-6.8-2.6h-4.6V287.5z"/>
		<path class="st0" d="M642.6,243.6h17.6v40.3c0,4.1,1.8,6.2,5.4,6.2c3.5,0,5.3-2,5.3-6v-40.5h17.6v41.3c0,7.7-1.8,13.2-5.4,16.4
			c-3.6,3.2-9.5,4.9-17.7,4.9c-7.9,0-13.6-1.6-17.3-4.9c-3.6-3.3-5.5-8.7-5.5-16.2V243.6z M656.4,236.8l3.2-9.4h15.5l-4.8,9.4H656.4
			z"/>
		<path class="st0" d="M694.7,304.6l13.1-61h26.6l12.6,61h-18.1l-1.5-9.5h-13.4l-1.5,9.5H694.7z M716.5,279.6h8.6l-4.3-26.2
			L716.5,279.6z"/>
	</g>
</g>
<g>
</g>
<g>
</g>
<g>
</g>
<g>
</g>
<g>
</g>
<g>
</g>
<g>
</g>
<g>
</g>
<g>
</g>
<g>
</g>
<g>
</g>
<g>
</g>
<g>
</g>
<g>
</g>
<g>
</g>
</svg>
