<?xml version="1.0" encoding="UTF-8"?>
<svg id="Capa_1" data-name="Capa 1" xmlns="http://www.w3.org/2000/svg" viewBox="0 0 959.3 319.09">
  <defs>
    <style>
      .cls-1 {
        fill: #5b95cb;
      }

      .cls-1, .cls-2, .cls-3, .cls-4 {
        fill-rule: evenodd;
      }

      .cls-5, .cls-6 {
        fill: #fff;
      }

      .cls-2 {
        fill: #649b54;
      }

      .cls-7 {
        fill: #0f609f;
      }

      .cls-8 {
        letter-spacing: 0em;
      }

      .cls-6 {
        font-family: MyriadPro-Regular, 'Myriad Pro';
        font-size: 61.64px;
        opacity: .27;
      }

      .cls-9 {
        letter-spacing: .02em;
      }

      .cls-3 {
        fill: #64a253;
      }

      .cls-4 {
        fill: #5b99c5;
      }

      .cls-10 {
        letter-spacing: 0em;
      }

      .cls-11 {
        letter-spacing: -.03em;
      }
    </style>
  </defs>
  <g>
    <path class="cls-1" d="m0,106.29c6.6-8,8.3-16.6,22.4-16.8,10.9-.1,18.2,5.7,21.7,14.3,8.1,19.7-6.3,37.7-13.4,52.9-35.5,75.3,18.9,177.2,105.3,160.6,36.4-7,68.4-40.1,75.4-68.6-20.8,17.2-47,56.6-96.7,46.2-34.8-7.2-61.7-37.4-68-75.3-9.4-56.6,27.7-73.7,23.5-116.4C65.9,57.79,2.6,52.39,0,106.29h0Z"/>
    <path class="cls-1" d="m72.6,84.69c9.9,49.9-10.3,53.3-18,91.2-7,34.3,3.3,67.1,20.3,86.1,55.7,62.3,130.7,3,131.9-31.6-2.8,16.2-33.6,38.6-58.9,40.6-32.4,2.5-52.9-14.8-63.8-35.8-14.3-27.7-12.7-51.2-.7-79,10.4-24.1,20.2-61-10.8-71.5h0Z"/>
    <path class="cls-4" d="m182.7,240.19c-19.3,14.1-70.6,16.8-83.2-37.9-9-39,36.4-94-3.7-106.6,8.6,49.9-32.4,76.2-7.1,129.8,8.2,17.3,22.4,32.5,41.1,36.8,22.3,5.2,47.3-5,52.9-22.1h0Z"/>
    <path class="cls-3" d="m66.5,52.79C65.8,14.99,48-2.01,9.7.19c1.2,36.5,18.6,53.9,56.8,52.6h0Z"/>
    <path class="cls-2" d="m76.7,71.59c25.4-1.7,36.1-9.5,38.1-33.4-25.5-.9-36,8.5-38.1,33.4h0Z"/>
  </g>
  <path class="cls-7" d="m205,93.49c4.2-.7,9.8-1.2,16.8-1.2,8.6,0,15,1.9,19,5.3,3.7,3,5.9,7.7,5.9,13.3s-1.8,10.3-5.2,13.6c-4.6,4.6-12.2,7-20.7,7-2.6,0-5-.1-7-.6v25.5h-8.7v-62.9h-.1Zm8.7,30.7c1.9.5,4.3.7,7.2.7,10.6,0,17-4.8,17-13.6s-6.3-12.5-16-12.5c-3.8,0-6.7.3-8.2.7v24.7Z"/>
  <path class="cls-7" d="m264.5,136.39l-7,20h-9l23-63.7h10.6l23.1,63.7h-9.3l-7.2-20h-24.2Zm22.2-6.5l-6.6-18.3c-1.5-4.2-2.5-7.9-3.5-11.6h-.3c-1,3.8-2.1,7.7-3.4,11.5l-6.6,18.4h20.4Z"/>
  <path class="cls-7" d="m315.1,93.59c4.4-.9,10.8-1.3,16.8-1.3,9.3,0,15.4,1.6,19.6,5.2,3.4,2.8,5.3,7.2,5.3,12.1,0,8.4-5.6,14-12.8,16.3v.3c5.2,1.7,8.3,6.2,10,12.8,2.2,8.9,3.8,15,5.2,17.5h-9c-1.1-1.8-2.6-7.3-4.5-15.2-2-8.8-5.6-12.1-13.6-12.4h-8.2v27.6h-8.7v-62.9h-.1Zm8.7,29h8.9c9.3,0,15.3-4.8,15.3-12.1,0-8.2-6.3-11.8-15.6-11.9-4.2,0-7.2.4-8.6.8v23.2h0Z"/>
  <path class="cls-7" d="m425,165.69c-9.1-2.3-18.1-4.8-25.9-7.4-1.4-.5-2.8-.9-4.1-.9-16.1-.6-29.9-11.7-29.9-32.2s13.3-33.5,31.6-33.5,30.4,13.4,30.4,32.2c0,16.3-8,26.8-19.3,30.5v.4c6.7,1.6,14.1,3.1,19.8,4.1l-2.6,6.8Zm-7.2-41.4c0-12.8-7-25.9-21.4-25.9s-22,12.9-21.9,26.6c-.1,13.5,7.8,25.7,21.5,25.7s21.8-11.9,21.8-26.4Z"/>
  <path class="cls-7" d="m447.2,92.69v37.7c0,14.3,6.7,20.3,15.8,20.3,10.1,0,16.5-6.2,16.5-20.3v-37.7h8.8v37.1c0,19.6-11,27.6-25.6,27.6s-24.3-7.5-24.3-27.2v-37.5h8.8Z"/>
  <path class="cls-7" d="m538.5,126.49h-26.3v23h29.4v6.9h-38.1v-63.7h36.6v6.9h-27.8v20.1h26.3v6.8h-.1Z"/>
  <path class="cls-7" d="m574.2,156.39v-63.7h9.6l21.7,32.2c5,7.5,8.9,14.2,12.2,20.7l.2-.1c-.8-8.5-1-16.3-1-26.2v-26.6h8.2v63.7h-8.8l-21.5-32.3c-4.7-7.1-9.2-14.4-12.7-21.3l-.3.1c.5,8,.7,15.7.7,26.3v27.2h-8.3Z"/>
  <path class="cls-7" d="m651.3,136.39l-7,20h-9l23-63.7h10.6l23.1,63.7h-9.3l-7.2-20h-24.2Zm22.3-6.5l-6.6-18.3c-1.5-4.2-2.5-7.9-3.5-11.6h-.2c-1,3.8-2.1,7.7-3.4,11.5l-6.6,18.4h20.3Z"/>
  <path class="cls-7" d="m706.7,99.69h-20.6v-7h50.2v7h-20.7v56.7h-8.8v-56.7h-.1Z"/>
  <path class="cls-7" d="m752.6,92.69v37.7c0,14.3,6.7,20.3,15.8,20.3,10.1,0,16.5-6.2,16.5-20.3v-37.7h8.8v37.1c0,19.6-11,27.6-25.6,27.6s-24.3-7.5-24.3-27.2v-37.5h8.8Z"/>
  <path class="cls-7" d="m808.9,93.59c4.4-.9,10.8-1.3,16.8-1.3,9.3,0,15.4,1.6,19.6,5.2,3.4,2.8,5.3,7.2,5.3,12.1,0,8.4-5.6,14-12.8,16.3v.3c5.2,1.7,8.3,6.2,10,12.8,2.2,8.9,3.8,15,5.2,17.5h-9c-1.1-1.8-2.6-7.3-4.5-15.2-2-8.8-5.6-12.1-13.6-12.4h-8.2v27.6h-8.7v-62.9h-.1Zm8.7,29h8.9c9.3,0,15.3-4.8,15.3-12.1,0-8.2-6.3-11.8-15.6-11.9-4.2,0-7.2.4-8.6.8v23.2h0Z"/>
  <path class="cls-7" d="m871,136.39l-7,20h-9l23-63.7h10.6l23.1,63.7h-9.4l-7.2-20h-24.1Zm22.2-6.5l-6.6-18.3c-1.5-4.2-2.5-7.9-3.5-11.6h-.2c-1,3.8-2.1,7.7-3.4,11.5l-6.6,18.4h20.3Z"/>
  <path class="cls-7" d="m921.6,92.69h8.7v56.8h29v6.9h-37.7v-63.7Z"/>
  <path class="cls-5" d="m331.8,263.69v-27l-21.4-36.7h10l9.6,17.6c2.6,4.8,4.6,8.7,6.7,13.1h.2c1.9-4.2,4.2-8.3,6.8-13.1l9.8-17.6h10l-22.7,36.6v27.1h-9Z"/>
  <path class="cls-5" d="m427,231.19c0,21.9-14.2,33.5-31.5,33.5s-30.5-13-30.5-32.3,13.4-33.4,31.5-33.4,30.5,13.3,30.5,32.2Zm-52.6,1.1c0,13.6,7.8,25.8,21.6,25.8s21.7-12,21.7-26.5c0-12.7-7-25.9-21.6-25.9-14.4,0-21.7,12.6-21.7,26.6Z"/>
  <path class="cls-5" d="m437.2,253.69c3.9,2.3,9.6,4.2,15.7,4.2,8.9,0,14.2-4.4,14.2-10.9,0-6-3.6-9.4-12.8-12.7-11.1-3.7-17.9-9.1-17.9-18,0-9.9,8.7-17.3,21.9-17.3,6.9,0,12,1.5,15,3.1l-2.4,6.7c-2.2-1.1-6.7-3-12.9-3-9.2,0-12.8,5.2-12.8,9.5,0,6,4.1,8.9,13.5,12.3,11.5,4.2,17.3,9.4,17.3,18.7,0,9.8-7.7,18.3-23.7,18.3-6.5,0-13.7-1.8-17.3-4.1l2.2-6.8Z"/>
  <path class="cls-5" d="m545.8,231.19c0,21.9-14.2,33.5-31.5,33.5s-30.5-13-30.5-32.3,13.4-33.4,31.5-33.4,30.5,13.3,30.5,32.2Zm-52.5,1.1c0,13.6,7.8,25.8,21.6,25.8s21.7-12,21.7-26.5c0-12.7-7-25.9-21.6-25.9-14.5,0-21.7,12.6-21.7,26.6Z"/>
  <path class="cls-5" d="m557.2,263.69v-63.7h9.6l21.7,32.2c5,7.5,8.9,14.2,12.2,20.7l.2-.1c-.8-8.5-1-16.3-1-26.2v-26.6h8.2v63.7h-8.8l-21.5-32.3c-4.7-7.1-9.2-14.4-12.7-21.3l-.3.1c.5,8,.7,15.7.7,26.3v27.2h-8.3Z"/>
  <path class="cls-5" d="m623.4,200.89c5.3-.8,11.7-1.3,18.6-1.3,12.6,0,21.5,2.7,27.4,7.9,6,5.2,9.6,12.6,9.6,22.9s-3.4,18.9-9.8,24.8c-6.3,6-16.8,9.2-30,9.2-6.2,0-11.5-.3-15.9-.8v-62.7h.1Zm8.7,56.3c2.2.4,5.4.5,8.8.5,18.7,0,28.9-9.8,28.9-27,.1-15-8.9-24.6-27.4-24.6-4.5,0-7.9.4-10.3.9v50.2Z"/>
  <path class="cls-5" d="m699.1,199.99v37.7c0,14.3,6.7,20.3,15.8,20.3,10.1,0,16.5-6.2,16.5-20.3v-37.7h8.8v37.1c0,19.6-11,27.6-25.6,27.6s-24.3-7.5-24.3-27.2v-37.5h8.8Z"/>
  <path class="cls-5" d="m763.4,243.69l-7,20h-9l23-63.7h10.6l23.1,63.7h-9.3l-7.2-20h-24.2Zm22.2-6.4l-6.6-18.3c-1.5-4.2-2.5-7.9-3.5-11.6h-.2c-1,3.8-2.1,7.7-3.4,11.5l-6.6,18.4h20.3Z"/>
  <text class="cls-6" transform="translate(211.4 59.47) scale(1.59 1)"><tspan class="cls-11" x="0" y="0">P</tspan><tspan x="31.19" y="0">a</tspan><tspan class="cls-8" x="60.9" y="0">g</tspan><tspan x="94.98" y="0">ina no </tspan><tspan class="cls-9" x="267.51" y="0">O</tspan><tspan class="cls-10" x="310.96" y="0">ficial</tspan></text>
</svg>